Bravura_full.ufo
<glyph name="onequarter" format="2">
  <advance width="631"/>
  <unicode hex="00BC"/>
  <outline>
    <contour>
      <point x="495" y="84" type="line"/>
      <point x="495" y="35" type="line" smooth="yes"/>
      <point x="495" y="29"/>
      <point x="487" y="19"/>
      <point x="480" y="19" type="curve" smooth="yes"/>
      <point x="447" y="19" type="line"/>
      <point x="447" y="-3" type="line"/>
      <point x="582" y="-3" type="line"/>
      <point x="582" y="19" type="line"/>
      <point x="562" y="19" type="line" smooth="yes"/>
      <point x="550" y="19"/>
      <point x="545" y="27"/>
      <point x="545" y="32" type="curve" smooth="yes"/>
      <point x="545" y="84" type="line"/>
      <point x="607" y="84" type="line"/>
      <point x="607" y="111" type="line"/>
      <point x="544" y="111" type="line"/>
      <point x="544" y="336" type="line"/>
      <point x="521" y="336" type="line"/>
      <point x="358" y="108" type="line"/>
      <point x="358" y="84" type="line"/>
    </contour>
    <contour>
      <point x="75" y="-15" type="line"/>
      <point x="119" y="-15" type="line"/>
      <point x="521" y="561" type="line"/>
      <point x="477" y="561" type="line"/>
    </contour>
    <contour>
      <point x="83" y="509" type="line" smooth="yes"/>
      <point x="91" y="509"/>
      <point x="97" y="506"/>
      <point x="97" y="497" type="curve" smooth="yes"/>
      <point x="97" y="259" type="line" smooth="yes"/>
      <point x="97" y="252"/>
      <point x="89" y="243"/>
      <point x="82" y="243" type="curve" smooth="yes"/>
      <point x="38" y="243" type="line"/>
      <point x="38" y="221" type="line"/>
      <point x="214" y="221" type="line"/>
      <point x="214" y="243" type="line"/>
      <point x="163" y="243" type="line" smooth="yes"/>
      <point x="158" y="243"/>
      <point x="148" y="251"/>
      <point x="148" y="259" type="curve" smooth="yes"/>
      <point x="148" y="563" type="line"/>
      <point x="121" y="563" type="line"/>
      <point x="98" y="538"/>
      <point x="63" y="528"/>
      <point x="29" y="528" type="curve"/>
      <point x="29" y="509" type="line"/>
    </contour>
    <contour>
      <point x="388" y="111" type="line"/>
      <point x="495" y="263" type="line"/>
      <point x="495" y="111" type="line"/>
    </contour>
  </outline>
</glyph>
<glyph name="onehalf" format="2">
  <advance width="652"/>
  <unicode hex="00BD"/>
  <outline>
    <contour>
      <point x="371" y="11" type="curve"/>
      <point x="371" y="-3" type="line"/>
      <point x="610" y="-3" type="line"/>
      <point x="618" y="96" type="line"/>
      <point x="600" y="96" type="line"/>
      <point x="595" y="76"/>
      <point x="599" y="44"/>
      <point x="567" y="44" type="curve"/>
      <point x="438" y="43" type="line"/>
      <point x="479" y="82"/>
      <point x="507" y="103"/>
      <point x="542" y="137" type="curve" smooth="yes"/>
      <point x="576" y="171"/>
      <point x="613" y="199" name="hr01"/>
      <point x="613" y="246" type="curve" smooth="yes"/>
      <point x="613" y="303"/>
      <point x="559" y="335"/>
      <point x="500" y="335" type="curve" smooth="yes"/>
      <point x="441" y="335"/>
      <point x="386" y="303"/>
      <point x="386" y="246" type="curve" smooth="yes"/>
      <point x="386" y="211"/>
      <point x="403" y="197"/>
      <point x="423" y="197" type="curve" smooth="yes"/>
      <point x="442" y="197"/>
      <point x="455" y="207"/>
      <point x="455" y="224" type="curve" smooth="yes"/>
      <point x="455" y="260"/>
      <point x="418" y="247"/>
      <point x="418" y="267" type="curve" smooth="yes"/>
      <point x="418" y="301"/>
      <point x="463" y="312"/>
      <point x="493" y="312" type="curve" smooth="yes"/>
      <point x="535" y="312"/>
      <point x="561" y="291"/>
      <point x="561" y="253" type="curve" smooth="yes"/>
      <point x="561" y="224"/>
      <point x="526" y="159"/>
      <point x="448" y="89" type="curve"/>
      <point x="443" y="83"/>
      <point x="394" y="35"/>
    </contour>
    <contour>
      <point x="75" y="-15" type="line"/>
      <point x="119" y="-15" type="line"/>
      <point x="521" y="561" type="line"/>
      <point x="477" y="561" type="line"/>
    </contour>
    <contour>
      <point x="29" y="528" type="curve"/>
      <point x="29" y="509" type="line"/>
      <point x="83" y="509" type="line" smooth="yes"/>
      <point x="91" y="509"/>
      <point x="97" y="506"/>
      <point x="97" y="497" type="curve" smooth="yes"/>
      <point x="97" y="259" type="line" smooth="yes"/>
      <point x="97" y="252"/>
      <point x="89" y="243"/>
      <point x="82" y="243" type="curve" smooth="yes"/>
      <point x="38" y="243" type="line"/>
      <point x="38" y="221" type="line"/>
      <point x="214" y="221" type="line"/>
      <point x="214" y="243" type="line"/>
      <point x="163" y="243" type="line" smooth="yes"/>
      <point x="158" y="243"/>
      <point x="148" y="251"/>
      <point x="148" y="259" type="curve" smooth="yes"/>
      <point x="148" y="563" type="line"/>
      <point x="121" y="563" type="line"/>
      <point x="98" y="538"/>
      <point x="63" y="528"/>
    </contour>
  </outline>
</glyph>
<glyph name="threequarters" format="2">
  <advance width="639"/>
  <unicode hex="00BE"/>
  <outline>
    <contour>
      <point x="356" y="84" type="line"/>
      <point x="494" y="84" type="line"/>
      <point x="494" y="35" type="line" smooth="yes"/>
      <point x="494" y="29"/>
      <point x="486" y="19"/>
      <point x="479" y="19" type="curve" smooth="yes"/>
      <point x="446" y="19" type="line"/>
      <point x="446" y="-3" type="line"/>
      <point x="580" y="-3" type="line"/>
      <point x="580" y="19" type="line"/>
      <point x="560" y="19" type="line" smooth="yes"/>
      <point x="548" y="19"/>
      <point x="543" y="27"/>
      <point x="543" y="32" type="curve" smooth="yes"/>
      <point x="543" y="84" type="line"/>
      <point x="606" y="84" type="line"/>
      <point x="606" y="111" type="line"/>
      <point x="543" y="111" type="line"/>
      <point x="543" y="336" type="line"/>
      <point x="519" y="336" type="line"/>
      <point x="356" y="108" type="line"/>
    </contour>
    <contour>
      <point x="135" y="216" type="curve" smooth="yes"/>
      <point x="201" y="216"/>
      <point x="264" y="246"/>
      <point x="264" y="310" type="curve" smooth="yes"/>
      <point x="264" y="373"/>
      <point x="218" y="389"/>
      <point x="187" y="399" type="curve"/>
      <point x="182" y="401" type="line"/>
      <point x="221" y="419"/>
      <point x="248" y="439" name="hr01"/>
      <point x="248" y="479" type="curve" smooth="yes"/>
      <point x="248" y="537"/>
      <point x="195" y="562"/>
      <point x="137" y="562" type="curve" smooth="yes"/>
      <point x="90" y="562"/>
      <point x="36" y="539"/>
      <point x="36" y="491" type="curve" smooth="yes"/>
      <point x="36" y="475"/>
      <point x="42" y="456"/>
      <point x="66" y="456" type="curve" smooth="yes"/>
      <point x="82" y="456"/>
      <point x="95" y="469"/>
      <point x="95" y="483" type="curve" smooth="yes"/>
      <point x="95" y="504"/>
      <point x="79" y="505"/>
      <point x="79" y="517" type="curve"/>
      <point x="82" y="539"/>
      <point x="116" y="540"/>
      <point x="135" y="540" type="curve" smooth="yes"/>
      <point x="175" y="540"/>
      <point x="193" y="498"/>
      <point x="193" y="471" type="curve" smooth="yes"/>
      <point x="193" y="449"/>
      <point x="187" y="415"/>
      <point x="145" y="412" type="curve"/>
      <point x="99" y="412" type="line" smooth="yes"/>
      <point x="91" y="412"/>
      <point x="88" y="405"/>
      <point x="88" y="397" type="curve" smooth="yes"/>
      <point x="88" y="387"/>
      <point x="95" y="384"/>
      <point x="105" y="384" type="curve" smooth="yes"/>
      <point x="118" y="384"/>
      <point x="130" y="385"/>
      <point x="144" y="385" type="curve" smooth="yes"/>
      <point x="198" y="385"/>
      <point x="201" y="341" name="hr02"/>
      <point x="201" y="313" type="curve" smooth="yes"/>
      <point x="201" y="278"/>
      <point x="189" y="239"/>
      <point x="130" y="239" type="curve" smooth="yes"/>
      <point x="108" y="239"/>
      <point x="64" y="239"/>
      <point x="64" y="267" type="curve" smooth="yes"/>
      <point x="64" y="282"/>
      <point x="86" y="283"/>
      <point x="86" y="304" type="curve" smooth="yes"/>
      <point x="86" y="323"/>
      <point x="76" y="335"/>
      <point x="55" y="335" type="curve" smooth="yes"/>
      <point x="31" y="335"/>
      <point x="21" y="315"/>
      <point x="21" y="296" type="curve" smooth="yes"/>
      <point x="21" y="240"/>
      <point x="80" y="216"/>
    </contour>
    <contour>
      <point x="122" y="-15" type="line"/>
      <point x="166" y="-15" type="line"/>
      <point x="567" y="561" type="line"/>
      <point x="523" y="561" type="line"/>
    </contour>
    <contour>
      <point x="387" y="111" type="line"/>
      <point x="494" y="263" type="line"/>
      <point x="494" y="111" type="line"/>
    </contour>
  </outline>
</glyph>
<glyph name="oneeighth" format="2">
  <advance width="644"/>
  <unicode hex="215B"/>
  <outline>
    <contour>
      <point x="375" y="79" type="curve"/>
      <point x="375" y="18"/>
      <point x="437" y="-10"/>
      <point x="491" y="-10" type="curve" smooth="yes"/>
      <point x="556" y="-10"/>
      <point x="610" y="27"/>
      <point x="610" y="96" type="curve" smooth="yes"/>
      <point x="610" y="148"/>
      <point x="589" y="168"/>
      <point x="543" y="189" type="curve"/>
      <point x="573" y="211"/>
      <point x="594" y="231" name="hr01"/>
      <point x="594" y="268" type="curve" smooth="yes"/>
      <point x="594" y="322"/>
      <point x="543" y="346"/>
      <point x="495" y="346" type="curve" smooth="yes"/>
      <point x="441" y="346"/>
      <point x="391" y="311"/>
      <point x="391" y="254" type="curve" smooth="yes"/>
      <point x="391" y="207"/>
      <point x="410" y="194"/>
      <point x="447" y="171" type="curve"/>
      <point x="401" y="148"/>
      <point x="376" y="130"/>
    </contour>
    <contour>
      <point x="119" y="-15" type="line" name="hr02"/>
      <point x="521" y="561" type="line"/>
      <point x="477" y="561" type="line"/>
      <point x="75" y="-15" type="line"/>
    </contour>
    <contour>
      <point x="29" y="528" type="curve"/>
      <point x="29" y="509" type="line"/>
      <point x="83" y="509" type="line" smooth="yes"/>
      <point x="91" y="509"/>
      <point x="97" y="506"/>
      <point x="97" y="497" type="curve" smooth="yes"/>
      <point x="97" y="259" type="line" smooth="yes"/>
      <point x="97" y="252"/>
      <point x="89" y="243"/>
      <point x="82" y="243" type="curve" smooth="yes"/>
      <point x="38" y="243" type="line"/>
      <point x="38" y="221" type="line"/>
      <point x="214" y="221" type="line"/>
      <point x="214" y="243" type="line"/>
      <point x="163" y="243" type="line" smooth="yes"/>
      <point x="158" y="243"/>
      <point x="148" y="251"/>
      <point x="148" y="259" type="curve" smooth="yes"/>
      <point x="148" y="563" type="line"/>
      <point x="121" y="563" type="line"/>
      <point x="98" y="538"/>
      <point x="63" y="528"/>
    </contour>
    <contour>
      <point x="415" y="83" type="curve" smooth="yes"/>
      <point x="415" y="120"/>
      <point x="443" y="144"/>
      <point x="477" y="157" type="curve"/>
      <point x="515" y="143"/>
      <point x="575" y="135"/>
      <point x="575" y="81" type="curve" smooth="yes"/>
      <point x="575" y="33"/>
      <point x="532" y="13"/>
      <point x="490" y="13" type="curve" smooth="yes"/>
      <point x="442" y="13"/>
      <point x="415" y="31"/>
    </contour>
    <contour>
      <point x="491" y="323" type="curve" smooth="yes"/>
      <point x="524" y="323"/>
      <point x="560" y="308"/>
      <point x="560" y="263" type="curve" smooth="yes"/>
      <point x="560" y="235"/>
      <point x="537" y="210" name="hr03"/>
      <point x="509" y="200" type="curve"/>
      <point x="474" y="212"/>
      <point x="425" y="216"/>
      <point x="425" y="264" type="curve" smooth="yes"/>
      <point x="425" y="302"/>
      <point x="463" y="323"/>
    </contour>
  </outline>
</glyph>
<glyph name="musicalnote" format="2">
  <advance width="553"/>
  <unicode hex="266A"/>
  <outline>
    <contour>
      <point x="109" y="-138" type="curve" smooth="yes"/>
      <point x="209" y="-138"/>
      <point x="332" y="-45"/>
      <point x="332" y="50" type="curve" smooth="yes"/>
      <point x="332" y="611" type="line"/>
      <point x="394" y="573"/>
      <point x="468" y="463"/>
      <point x="499" y="390" type="curve" smooth="yes"/>
      <point x="514" y="356"/>
      <point x="523" y="299"/>
      <point x="523" y="240" type="curve" smooth="yes"/>
      <point x="523" y="195"/>
      <point x="516" y="148"/>
      <point x="499" y="103" type="curve" smooth="yes"/>
      <point x="497" y="97"/>
      <point x="496" y="92"/>
      <point x="496" y="88" type="curve" smooth="yes"/>
      <point x="496" y="72"/>
      <point x="506" y="63"/>
      <point x="512" y="59" type="curve"/>
      <point x="514" y="58" type="line"/>
      <point x="523" y="57"/>
      <point x="535" y="61"/>
      <point x="540" y="78" type="curve"/>
      <point x="540" y="78"/>
      <point x="566" y="173"/>
      <point x="566" y="251" type="curve" smooth="yes"/>
      <point x="566" y="376"/>
      <point x="514" y="494"/>
      <point x="451" y="594" type="curve" smooth="yes"/>
      <point x="400" y="673"/>
      <point x="358" y="755"/>
      <point x="342" y="851" type="curve" smooth="yes"/>
      <point x="339" y="867"/>
      <point x="331" y="873"/>
      <point x="312" y="873" type="curve" smooth="yes"/>
      <point x="307" y="873"/>
      <point x="303" y="871"/>
      <point x="302" y="864" type="curve"/>
      <point x="302" y="118" type="line"/>
      <point x="283" y="135"/>
      <point x="255" y="144"/>
      <point x="222" y="144" type="curve" smooth="yes"/>
      <point x="99" y="144"/>
      <point x="0" y="53"/>
      <point x="0" y="-44" type="curve" smooth="yes"/>
      <point x="0" y="-103"/>
      <point x="48" y="-138"/>
    </contour>
  </outline>
</glyph>
<glyph name="musicalnotedbl" format="2">
  <advance width="962"/>
  <unicode hex="266B"/>
  <outline>
    <contour>
      <point x="109" y="-141" type="curve" smooth="yes"/>
      <point x="209" y="-141"/>
      <point x="331" y="-48"/>
      <point x="332" y="46" type="curve" name="hr01"/>
      <point x="332" y="563" type="line"/>
      <point x="932" y="563" type="line"/>
      <point x="932" y="115" type="line"/>
      <point x="912" y="131"/>
      <point x="885" y="141"/>
      <point x="852" y="141" type="curve" smooth="yes"/>
      <point x="729" y="141"/>
      <point x="630" y="50"/>
      <point x="630" y="-47" type="curve" smooth="yes"/>
      <point x="630" y="-106"/>
      <point x="678" y="-141" name="hr02"/>
      <point x="739" y="-141" type="curve" smooth="yes"/>
      <point x="839" y="-141"/>
      <point x="961" y="-48"/>
      <point x="962" y="46" type="curve"/>
      <point x="962" y="688" type="line"/>
      <point x="302" y="688" type="line" name="hr03"/>
      <point x="302" y="115" type="line"/>
      <point x="283" y="131"/>
      <point x="255" y="141"/>
      <point x="222" y="141" type="curve" smooth="yes"/>
      <point x="99" y="141"/>
      <point x="0" y="50"/>
      <point x="0" y="-47" type="curve" smooth="yes"/>
      <point x="0" y="-106"/>
      <point x="48" y="-141"/>
    </contour>
  </outline>
</glyph>
<glyph name="uni266C" format="2">
  <advance width="963"/>
  <unicode hex="266C"/>
  <note>
{}
</note>
  <outline>
    <contour>
      <point x="109" y="-141" type="curve" smooth="yes"/>
      <point x="209" y="-141"/>
      <point x="331" y="-48"/>
      <point x="332" y="46" type="curve" name="hr01"/>
      <point x="332" y="376" type="line"/>
      <point x="933" y="376" type="line"/>
      <point x="933" y="116" type="line"/>
      <point x="913" y="132"/>
      <point x="886" y="142"/>
      <point x="853" y="142" type="curve" smooth="yes"/>
      <point x="730" y="142"/>
      <point x="631" y="51"/>
      <point x="631" y="-46" type="curve" smooth="yes"/>
      <point x="631" y="-105"/>
      <point x="679" y="-140"/>
      <point x="740" y="-140" type="curve" smooth="yes"/>
      <point x="840" y="-140"/>
      <point x="962" y="-47"/>
      <point x="963" y="47" type="curve"/>
      <point x="963" y="688" type="line" name="hr02"/>
      <point x="302" y="688" type="line" name="hr03"/>
      <point x="302" y="115" type="line"/>
      <point x="283" y="131"/>
      <point x="255" y="141"/>
      <point x="222" y="141" type="curve" smooth="yes"/>
      <point x="99" y="141"/>
      <point x="0" y="50"/>
      <point x="0" y="-47" type="curve" smooth="yes"/>
      <point x="0" y="-106"/>
      <point x="48" y="-141"/>
    </contour>
    <contour>
      <point x="332" y="501" type="line"/>
      <point x="332" y="563" type="line" name="hr04"/>
      <point x="933" y="563" type="line"/>
      <point x="933" y="501" type="line"/>
    </contour>
  </outline>
</glyph>
<glyph name="uni266E" format="2">
  <advance width="169"/>
  <unicode hex="266E"/>
  <note>
{}
</note>
  <outline>
    <contour>
      <point x="0" y="-186" type="line" smooth="yes"/>
      <point x="0" y="-192"/>
      <point x="3" y="-195"/>
      <point x="8" y="-195" type="curve"/>
      <point x="9" y="-195"/>
      <point x="14" y="-194"/>
      <point x="15" y="-193" type="curve"/>
      <point x="29" y="-187"/>
      <point x="85" y="-163"/>
      <point x="114" y="-163" type="curve" smooth="yes"/>
      <point x="124" y="-163"/>
      <point x="131" y="-166"/>
      <point x="131" y="-174" type="curve" smooth="yes"/>
      <point x="131" y="-323" type="line" smooth="yes"/>
      <point x="131" y="-330"/>
      <point x="136" y="-335" name="hr01"/>
      <point x="143" y="-335" type="curve" smooth="yes"/>
      <point x="156" y="-335" type="line" smooth="yes"/>
      <point x="162" y="-335"/>
      <point x="168" y="-330"/>
      <point x="168" y="-323" type="curve" smooth="yes"/>
      <point x="168" y="179" type="line" smooth="yes"/>
      <point x="168" y="184"/>
      <point x="164" y="187"/>
      <point x="160" y="187" type="curve"/>
      <point x="159" y="187"/>
      <point x="157" y="187"/>
      <point x="156" y="186" type="curve"/>
      <point x="141" y="181" type="line"/>
      <point x="139" y="181"/>
      <point x="138" y="180"/>
      <point x="137" y="180" type="curve"/>
      <point x="137" y="180"/>
      <point x="73" y="157"/>
      <point x="47" y="157" type="curve" smooth="yes"/>
      <point x="41" y="157"/>
      <point x="37" y="158"/>
      <point x="37" y="162" type="curve" smooth="yes"/>
      <point x="37" y="329" type="line" smooth="yes"/>
      <point x="37" y="336"/>
      <point x="31" y="341"/>
      <point x="25" y="341" type="curve" smooth="yes"/>
      <point x="12" y="341" type="line" smooth="yes"/>
      <point x="5" y="341"/>
      <point x="0" y="336"/>
      <point x="0" y="329" type="curve" smooth="yes"/>
    </contour>
    <contour>
      <point x="122" y="79" type="curve" smooth="yes"/>
      <point x="128" y="79"/>
      <point x="131" y="78"/>
      <point x="131" y="74" type="curve" smooth="yes"/>
      <point x="131" y="-29" type="line" smooth="yes"/>
      <point x="131" y="-47"/>
      <point x="74" y="-70" name="hr02"/>
      <point x="49" y="-70" type="curve" smooth="yes"/>
      <point x="42" y="-70"/>
      <point x="37" y="-68"/>
      <point x="37" y="-64" type="curve" smooth="yes"/>
      <point x="37" y="39" type="line" smooth="yes"/>
      <point x="37" y="53"/>
      <point x="98" y="79"/>
    </contour>
  </outline>
</glyph>
<glyph name="uniE000" format="2">
  <advance width="84"/>
  <unicode hex="E000"/>
  <note>
{'name': 'brace', 'description': 'Brace'}
</note>
  <outline>
    <contour>
      <point x="49" y="397" type="curve" smooth="yes"/>
      <point x="49" y="327"/>
      <point x="14" y="265"/>
      <point x="14" y="192" type="curve" smooth="yes"/>
      <point x="14" y="92"/>
      <point x="41" y="34"/>
      <point x="63" y="6" type="curve" smooth="yes"/>
      <point x="67" y="1"/>
      <point x="69" y="0"/>
      <point x="71" y="0" type="curve"/>
      <point x="74" y="0"/>
      <point x="77" y="3"/>
      <point x="77" y="6" type="curve" smooth="yes"/>
      <point x="77" y="9"/>
      <point x="76" y="12"/>
      <point x="72" y="17" type="curve" smooth="yes"/>
      <point x="67" y="25"/>
      <point x="44" y="75"/>
      <point x="44" y="128" type="curve" smooth="yes"/>
      <point x="44" y="181"/>
      <point x="74" y="275"/>
      <point x="81" y="334" type="curve" smooth="yes"/>
      <point x="82" y="339"/>
      <point x="82" y="344"/>
      <point x="82" y="350" type="curve" smooth="yes"/>
      <point x="82" y="409"/>
      <point x="49" y="480"/>
      <point x="20" y="498" type="curve"/>
      <point x="49" y="516"/>
      <point x="82" y="587"/>
      <point x="82" y="646" type="curve" smooth="yes"/>
      <point x="82" y="651"/>
      <point x="82" y="657"/>
      <point x="81" y="662" type="curve" smooth="yes"/>
      <point x="74" y="722"/>
      <point x="44" y="815"/>
      <point x="44" y="869" type="curve" smooth="yes"/>
      <point x="44" y="921"/>
      <point x="67" y="971"/>
      <point x="72" y="980" type="curve"/>
      <point x="76" y="984"/>
      <point x="77" y="987"/>
      <point x="77" y="990" type="curve"/>
      <point x="77" y="992"/>
      <point x="76" y="994"/>
      <point x="75" y="994" type="curve"/>
      <point x="74" y="995"/>
      <point x="73" y="997"/>
      <point x="71" y="997" type="curve"/>
      <point x="69" y="997"/>
      <point x="67" y="995"/>
      <point x="63" y="990" type="curve" smooth="yes"/>
      <point x="41" y="963"/>
      <point x="14" y="905"/>
      <point x="14" y="805" type="curve" smooth="yes"/>
      <point x="14" y="706"/>
      <point x="49" y="666"/>
      <point x="49" y="603" type="curve" smooth="yes"/>
      <point x="49" y="556"/>
      <point x="30" y="530"/>
      <point x="2" y="498" type="curve"/>
      <point x="20" y="478"/>
      <point x="49" y="462"/>
    </contour>
  </outline>
</glyph>
<glyph name="uniE001" format="2">
  <advance width="95"/>
  <unicode hex="E001"/>
  <note>
{'name': 'reversedBrace', 'description': 'Reversed brace'}
</note>
  <outline>
    <contour>
      <point x="8" y="646" type="curve" smooth="yes"/>
      <point x="8" y="587"/>
      <point x="41" y="516"/>
      <point x="70" y="498" type="curve"/>
      <point x="41" y="480"/>
      <point x="8" y="409"/>
      <point x="8" y="350" type="curve" smooth="yes"/>
      <point x="8" y="344"/>
      <point x="8" y="339"/>
      <point x="9" y="334" type="curve" smooth="yes"/>
      <point x="16" y="275"/>
      <point x="46" y="181"/>
      <point x="46" y="128" type="curve" smooth="yes"/>
      <point x="46" y="75"/>
      <point x="23" y="25"/>
      <point x="18" y="17" type="curve" smooth="yes"/>
      <point x="14" y="12"/>
      <point x="13" y="9"/>
      <point x="13" y="6" type="curve" smooth="yes"/>
      <point x="13" y="3"/>
      <point x="16" y="0"/>
      <point x="19" y="0" type="curve"/>
      <point x="21" y="0"/>
      <point x="23" y="1"/>
      <point x="27" y="6" type="curve" smooth="yes"/>
      <point x="49" y="34"/>
      <point x="76" y="92"/>
      <point x="76" y="192" type="curve" smooth="yes"/>
      <point x="76" y="291"/>
      <point x="41" y="331"/>
      <point x="41" y="394" type="curve" smooth="yes"/>
      <point x="41" y="462"/>
      <point x="70" y="478"/>
      <point x="88" y="498" type="curve"/>
      <point x="70" y="519"/>
      <point x="41" y="534"/>
      <point x="41" y="600" type="curve" smooth="yes"/>
      <point x="41" y="666"/>
      <point x="76" y="706"/>
      <point x="76" y="805" type="curve" smooth="yes"/>
      <point x="76" y="905"/>
      <point x="49" y="963"/>
      <point x="27" y="990" type="curve" smooth="yes"/>
      <point x="23" y="995"/>
      <point x="21" y="997"/>
      <point x="19" y="997" type="curve"/>
      <point x="17" y="997"/>
      <point x="16" y="995"/>
      <point x="15" y="994" type="curve"/>
      <point x="14" y="994"/>
      <point x="13" y="992"/>
      <point x="13" y="990" type="curve"/>
      <point x="13" y="987"/>
      <point x="14" y="984"/>
      <point x="18" y="980" type="curve"/>
      <point x="23" y="971"/>
      <point x="46" y="921"/>
      <point x="46" y="869" type="curve" smooth="yes"/>
      <point x="46" y="815"/>
      <point x="16" y="722"/>
      <point x="9" y="662" type="curve" smooth="yes"/>
      <point x="8" y="657"/>
      <point x="8" y="651"/>
    </contour>
  </outline>
</glyph>
<glyph name="uniE003" format="2">
  <advance width="469"/>
  <unicode hex="E003"/>
  <note>
{'name': 'bracketTop', 'description': 'Bracket top'}
</note>
  <outline>
    <contour>
      <point x="0" y="117" type="curve" smooth="yes"/>
      <point x="0" y="0" type="line"/>
      <point x="125" y="0" type="line"/>
      <point x="285" y="30"/>
      <point x="428" y="104"/>
      <point x="468" y="271" type="curve" smooth="yes"/>
      <point x="469" y="275"/>
      <point x="469" y="278"/>
      <point x="469" y="281" type="curve" smooth="yes"/>
      <point x="469" y="289"/>
      <point x="466" y="293"/>
      <point x="461" y="295" type="curve"/>
      <point x="452" y="295"/>
      <point x="441" y="288"/>
      <point x="436" y="281" type="curve"/>
      <point x="426" y="270"/>
      <point x="300" y="138"/>
      <point x="109" y="124" type="curve"/>
      <point x="8" y="124" type="line" smooth="yes"/>
      <point x="2" y="124"/>
      <point x="0" y="123"/>
    </contour>
  </outline>
</glyph>
<glyph name="uniE004" format="2">
  <advance width="469"/>
  <unicode hex="E004"/>
  <note>
{'name': 'bracketBottom', 'description': 'Bracket bottom'}
</note>
  <outline>
    <contour>
      <point x="0" y="0" type="line"/>
      <point x="0" y="-117" type="line" smooth="yes"/>
      <point x="0" y="-123"/>
      <point x="2" y="-124"/>
      <point x="8" y="-124" type="curve" smooth="yes"/>
      <point x="109" y="-124" type="line"/>
      <point x="300" y="-138"/>
      <point x="426" y="-270"/>
      <point x="436" y="-281" type="curve"/>
      <point x="441" y="-288"/>
      <point x="452" y="-295"/>
      <point x="461" y="-295" type="curve"/>
      <point x="466" y="-293"/>
      <point x="469" y="-289"/>
      <point x="469" y="-281" type="curve" smooth="yes"/>
      <point x="469" y="-278"/>
      <point x="469" y="-275"/>
      <point x="468" y="-271" type="curve" smooth="yes"/>
      <point x="428" y="-104"/>
      <point x="285" y="-30"/>
      <point x="125" y="0" type="curve"/>
    </contour>
  </outline>
</glyph>
<glyph name="uniE005" format="2">
  <advance width="469"/>
  <unicode hex="E005"/>
  <note>
{'name': 'reversedBracketTop', 'description': 'Reversed bracket top'}
</note>
  <outline>
    <contour>
      <point x="0" y="281" type="curve" smooth="yes"/>
      <point x="0" y="278"/>
      <point x="0" y="275"/>
      <point x="1" y="271" type="curve" smooth="yes"/>
      <point x="41" y="104"/>
      <point x="184" y="30"/>
      <point x="344" y="0" type="curve"/>
      <point x="469" y="0" type="line"/>
      <point x="469" y="117" type="line" smooth="yes"/>
      <point x="469" y="123"/>
      <point x="467" y="124"/>
      <point x="461" y="124" type="curve" smooth="yes"/>
      <point x="360" y="124" type="line"/>
      <point x="169" y="138"/>
      <point x="43" y="270"/>
      <point x="33" y="281" type="curve"/>
      <point x="28" y="288"/>
      <point x="17" y="295"/>
      <point x="8" y="295" type="curve"/>
      <point x="3" y="293"/>
      <point x="0" y="289"/>
    </contour>
  </outline>
</glyph>
<glyph name="uniE006" format="2">
  <advance width="469"/>
  <unicode hex="E006"/>
  <note>
{'name': 'reversedBracketBottom', 'description': 'Reversed bracket bottom'}
</note>
  <outline>
    <contour>
      <point x="8" y="-295" type="curve"/>
      <point x="17" y="-295"/>
      <point x="28" y="-288"/>
      <point x="33" y="-281" type="curve"/>
      <point x="43" y="-270"/>
      <point x="169" y="-138"/>
      <point x="360" y="-124" type="curve"/>
      <point x="461" y="-124" type="line" smooth="yes"/>
      <point x="467" y="-124"/>
      <point x="469" y="-123"/>
      <point x="469" y="-117" type="curve" smooth="yes"/>
      <point x="469" y="0" type="line"/>
      <point x="344" y="0" type="line"/>
      <point x="184" y="-30"/>
      <point x="41" y="-104"/>
      <point x="1" y="-271" type="curve" smooth="yes"/>
      <point x="0" y="-275"/>
      <point x="0" y="-278"/>
      <point x="0" y="-281" type="curve" smooth="yes"/>
      <point x="0" y="-289"/>
      <point x="3" y="-293"/>
    </contour>
  </outline>
</glyph>
<glyph name="uniE007" format="2">
  <advance width="1058"/>
  <unicode hex="E007"/>
  <note>
{'name': 'systemDivider', 'description': 'System divider'}
</note>
  <outline>
    <contour>
      <point x="11" y="308" type="curve"/>
      <point x="12" y="308"/>
      <point x="14" y="308"/>
      <point x="15" y="309" type="curve"/>
      <point x="1043" y="809" type="line"/>
      <point x="1051" y="812"/>
      <point x="1058" y="816"/>
      <point x="1058" y="824" type="curve" smooth="yes"/>
      <point x="1058" y="1044" type="line" smooth="yes"/>
      <point x="1058" y="1051"/>
      <point x="1054" y="1060"/>
      <point x="1047" y="1060" type="curve"/>
      <point x="1046" y="1060"/>
      <point x="1044" y="1060"/>
      <point x="1043" y="1059" type="curve"/>
      <point x="15" y="559" type="line"/>
      <point x="4" y="553"/>
      <point x="0" y="544"/>
      <point x="0" y="536" type="curve" smooth="yes"/>
      <point x="0" y="324" type="line" smooth="yes"/>
      <point x="0" y="316"/>
      <point x="5" y="308"/>
    </contour>
    <contour>
      <point x="0" y="-52" type="line" smooth="yes"/>
      <point x="0" y="-59"/>
      <point x="5" y="-68"/>
      <point x="12" y="-68" type="curve"/>
      <point x="13" y="-68"/>
      <point x="14" y="-67"/>
      <point x="15" y="-67" type="curve"/>
      <point x="1043" y="433" type="line" smooth="yes"/>
      <point x="1050" y="437"/>
      <point x="1058" y="442"/>
      <point x="1058" y="448" type="curve" smooth="yes"/>
      <point x="1058" y="668" type="line" smooth="yes"/>
      <point x="1058" y="675"/>
      <point x="1054" y="684"/>
      <point x="1047" y="684" type="curve"/>
      <point x="1046" y="684"/>
      <point x="1044" y="684"/>
      <point x="1043" y="683" type="curve"/>
      <point x="15" y="183" type="line"/>
      <point x="4" y="177"/>
      <point x="0" y="168"/>
      <point x="0" y="160" type="curve" smooth="yes"/>
    </contour>
  </outline>
</glyph>
<glyph name="uniE008" format="2">
  <advance width="1561"/>
  <unicode hex="E008"/>
  <note>
{'name': 'systemDividerLong', 'description': 'Long system divider'}
</note>
  <outline>
    <contour>
      <point x="25" y="335" type="curve" smooth="yes"/>
      <point x="28" y="335"/>
      <point x="30" y="335"/>
      <point x="33" y="336" type="curve" smooth="yes"/>
      <point x="1544" y="826" type="line"/>
      <point x="1555" y="829"/>
      <point x="1563" y="838"/>
      <point x="1563" y="850" type="curve" smooth="yes"/>
      <point x="1563" y="1026" type="line" smooth="yes"/>
      <point x="1563" y="1041"/>
      <point x="1551" y="1050"/>
      <point x="1538" y="1050" type="curve" smooth="yes"/>
      <point x="1535" y="1050"/>
      <point x="1533" y="1050"/>
      <point x="1530" y="1049" type="curve" smooth="yes"/>
      <point x="20" y="559" type="line" smooth="yes"/>
      <point x="12" y="556"/>
      <point x="0" y="547"/>
      <point x="0" y="533" type="curve" smooth="yes"/>
      <point x="0" y="359" type="line" smooth="yes"/>
      <point x="0" y="344"/>
      <point x="12" y="335"/>
    </contour>
    <contour>
      <point x="26" y="-60" type="curve" smooth="yes"/>
      <point x="29" y="-60"/>
      <point x="31" y="-60"/>
      <point x="34" y="-59" type="curve" smooth="yes"/>
      <point x="1544" y="431" type="line"/>
      <point x="1554" y="435"/>
      <point x="1563" y="443"/>
      <point x="1563" y="456" type="curve" smooth="yes"/>
      <point x="1563" y="630" type="line" smooth="yes"/>
      <point x="1563" y="645"/>
      <point x="1551" y="654"/>
      <point x="1538" y="654" type="curve" smooth="yes"/>
      <point x="1535" y="654"/>
      <point x="1533" y="654"/>
      <point x="1530" y="653" type="curve" smooth="yes"/>
      <point x="20" y="163" type="line" smooth="yes"/>
      <point x="10" y="160"/>
      <point x="1" y="151"/>
      <point x="1" y="138" type="curve" smooth="yes"/>
      <point x="1" y="-36" type="line" smooth="yes"/>
      <point x="1" y="-51"/>
      <point x="13" y="-60"/>
    </contour>
  </outline>
</glyph>
<glyph name="uniE009" format="2">
  <advance width="2319"/>
  <unicode hex="E009"/>
  <note>
{'name': 'systemDividerExtraLong', 'description': 'Extra long system divider'}
</note>
  <outline>
    <contour>
      <point x="27" y="325" type="curve"/>
      <point x="2296" y="815" type="line" smooth="yes"/>
      <point x="2314" y="819"/>
      <point x="2318" y="833"/>
      <point x="2318" y="850" type="curve"/>
      <point x="2319" y="1041" type="line"/>
      <point x="2314" y="1050"/>
      <point x="2306" y="1061"/>
      <point x="2293" y="1061" type="curve" smooth="yes"/>
      <point x="2288" y="1061" type="line"/>
      <point x="23" y="571" type="line"/>
      <point x="13" y="568"/>
      <point x="0" y="559"/>
      <point x="0" y="544" type="curve" smooth="yes"/>
      <point x="0" y="360" type="line" smooth="yes"/>
      <point x="0" y="342"/>
      <point x="14" y="325"/>
    </contour>
    <contour>
      <point x="1" y="139" type="curve"/>
      <point x="2" y="-44" type="line"/>
      <point x="2" y="-58"/>
      <point x="12" y="-70"/>
      <point x="26" y="-70" type="curve"/>
      <point x="28" y="-70"/>
      <point x="30" y="-69"/>
      <point x="32" y="-69" type="curve"/>
      <point x="2296" y="420" type="line" smooth="yes"/>
      <point x="2308" y="423"/>
      <point x="2319" y="432"/>
      <point x="2319" y="446" type="curve" smooth="yes"/>
      <point x="2319" y="630" type="line" smooth="yes"/>
      <point x="2319" y="654"/>
      <point x="2310" y="666"/>
      <point x="2295" y="666" type="curve"/>
      <point x="2293" y="666"/>
      <point x="2291" y="666"/>
      <point x="2288" y="665" type="curve" smooth="yes"/>
      <point x="24" y="176" type="line" smooth="yes"/>
      <point x="7" y="172"/>
      <point x="1" y="148"/>
    </contour>
  </outline>
</glyph>
<glyph name="uniE00A" format="2">
  <advance width="300"/>
  <unicode hex="E00A"/>
  <note>
{'name': 'splitBarDivider', 'description': 'Split bar divider (bar spans a system break)'}
</note>
  <outline>
    <contour>
      <point x="149" y="376" type="line"/>
      <point x="149" y="501" type="line"/>
      <point x="-151" y="439" type="line"/>
      <point x="-151" y="314" type="line" name="hr01"/>
    </contour>
    <contour>
      <point x="-151" y="252" type="line"/>
      <point x="-151" y="127" type="line" name="hr02"/>
      <point x="149" y="190" type="line"/>
      <point x="149" y="315" type="line"/>
    </contour>
  </outline>
</glyph>
<glyph name="uniE00B" format="2">
  <advance width="526"/>
  <unicode hex="E00B"/>
  <note>
{'name': 'staffDivideArrowDown', 'description': 'Staff divide arrow down'}
</note>
  <outline>
    <contour>
      <point x="0" y="508" type="curve" smooth="yes"/>
      <point x="0" y="503"/>
      <point x="1" y="499"/>
      <point x="5" y="495" type="curve" smooth="yes"/>
      <point x="359" y="141" type="line"/>
      <point x="283" y="65" type="line"/>
      <point x="526" y="0" type="line"/>
      <point x="461" y="243" type="line"/>
      <point x="385" y="167" type="line"/>
      <point x="31" y="521" type="line"/>
      <point x="27" y="524"/>
      <point x="22" y="526"/>
      <point x="18" y="526" type="curve" smooth="yes"/>
      <point x="7" y="526"/>
      <point x="0" y="519"/>
    </contour>
  </outline>
</glyph>
<glyph name="uniE00C" format="2">
  <advance width="526"/>
  <unicode hex="E00C"/>
  <note>
{'name': 'staffDivideArrowUp', 'description': 'Staff divide arrow up'}
</note>
  <outline>
    <contour>
      <point x="0" y="492" type="curve" smooth="yes"/>
      <point x="0" y="481"/>
      <point x="7" y="474"/>
      <point x="18" y="474" type="curve" smooth="yes"/>
      <point x="22" y="474"/>
      <point x="27" y="476"/>
      <point x="31" y="479" type="curve"/>
      <point x="385" y="833" type="line"/>
      <point x="461" y="757" type="line"/>
      <point x="526" y="1000" type="line"/>
      <point x="283" y="935" type="line"/>
      <point x="359" y="859" type="line"/>
      <point x="5" y="505" type="line" smooth="yes"/>
      <point x="1" y="501"/>
      <point x="0" y="497"/>
    </contour>
  </outline>
</glyph>
<glyph name="uniE00D" format="2">
  <advance width="526"/>
  <unicode hex="E00D"/>
  <note>
{'name': 'staffDivideArrowUpDown', 'description': 'Staff divide arrows'}
</note>
  <outline>
    <contour>
      <point x="0" y="509" type="curve" smooth="yes"/>
      <point x="0" y="504"/>
      <point x="1" y="499"/>
      <point x="5" y="495" type="curve" smooth="yes"/>
      <point x="359" y="141" type="line"/>
      <point x="283" y="65" type="line"/>
      <point x="526" y="0" type="line"/>
      <point x="461" y="243" type="line"/>
      <point x="385" y="167" type="line"/>
      <point x="42" y="509" type="line"/>
      <point x="385" y="851" type="line"/>
      <point x="461" y="775" type="line"/>
      <point x="526" y="1018" type="line"/>
      <point x="283" y="953" type="line"/>
      <point x="359" y="877" type="line"/>
      <point x="5" y="523" type="line" smooth="yes"/>
      <point x="1" y="519"/>
      <point x="0" y="514"/>
    </contour>
  </outline>
</glyph>
<glyph name="uniE013" format="2">
  <advance width="500"/>
  <unicode hex="E013"/>
  <note>
{'classes': ['forTextBasedApplications', 'tf_zeroWidth'], 'name': 'staff4Lines', 'description': '4-line staff'}
</note>
  <outline>
    <contour>
      <point x="500" y="609" type="line"/>
      <point x="500" y="641" type="line"/>
      <point x="0" y="641" type="line"/>
      <point x="0" y="609" type="line"/>
    </contour>
    <contour>
      <point x="0" y="891" type="line"/>
      <point x="0" y="859" type="line"/>
      <point x="500" y="859" type="line"/>
      <point x="500" y="891" type="line"/>
    </contour>
    <contour>
      <point x="0" y="141" type="line"/>
      <point x="0" y="109" type="line"/>
      <point x="500" y="109" type="line"/>
      <point x="500" y="141" type="line"/>
    </contour>
    <contour>
      <point x="0" y="391" type="line"/>
      <point x="0" y="359" type="line"/>
      <point x="500" y="359" type="line"/>
      <point x="500" y="391" type="line"/>
    </contour>
  </outline>
</glyph>
<glyph name="uniE016" format="2">
  <advance width="750"/>
  <unicode hex="E016"/>
  <note>
{'classes': ['forTextBasedApplications', 'tf_zeroWidth'], 'name': 'staff1LineWide', 'description': '1-line staff (wide)'}
</note>
  <outline>
    <contour>
      <point x="750" y="484" type="line"/>
      <point x="750" y="516" type="line"/>
      <point x="0" y="516" type="line"/>
      <point x="0" y="484" type="line"/>
    </contour>
  </outline>
</glyph>
<glyph name="uniE017" format="2">
  <advance width="750"/>
  <unicode hex="E017"/>
  <note>
{'classes': ['forTextBasedApplications', 'tf_zeroWidth'], 'name': 'staff2LinesWide', 'description': '2-line staff (wide)'}
</note>
  <outline>
    <contour>
      <point x="750" y="359" type="line"/>
      <point x="750" y="391" type="line"/>
      <point x="0" y="391" type="line"/>
      <point x="0" y="359" type="line"/>
    </contour>
    <contour>
      <point x="0" y="641" type="line"/>
      <point x="0" y="609" type="line"/>
      <point x="750" y="609" type="line"/>
      <point x="750" y="641" type="line"/>
    </contour>
  </outline>
</glyph>
<glyph name="uniE019" format="2">
  <advance width="750"/>
  <unicode hex="E019"/>
  <note>
{'classes': ['forTextBasedApplications', 'tf_zeroWidth'], 'name': 'staff4LinesWide', 'description': '4-line staff (wide)'}
</note>
  <outline>
    <contour>
      <point x="750" y="609" type="line"/>
      <point x="750" y="641" type="line"/>
      <point x="0" y="641" type="line"/>
      <point x="0" y="609" type="line"/>
    </contour>
    <contour>
      <point x="0" y="891" type="line"/>
      <point x="0" y="859" type="line"/>
      <point x="750" y="859" type="line"/>
      <point x="750" y="891" type="line"/>
    </contour>
    <contour>
      <point x="0" y="141" type="line"/>
      <point x="0" y="109" type="line"/>
      <point x="750" y="109" type="line"/>
      <point x="750" y="141" type="line"/>
    </contour>
    <contour>
      <point x="0" y="391" type="line"/>
      <point x="0" y="359" type="line"/>
      <point x="750" y="359" type="line"/>
      <point x="750" y="391" type="line"/>
    </contour>
  </outline>
</glyph>
<glyph name="uniE01A" format="2">
  <advance width="750"/>
  <unicode hex="E01A"/>
  <note>
{'classes': ['forTextBasedApplications', 'tf_zeroWidth'], 'name': 'staff5LinesWide', 'description': '5-line staff (wide)'}
</note>
  <outline>
    <contour>
      <point x="0" y="16" type="line"/>
      <point x="0" y="-16" type="line"/>
      <point x="750" y="-16" type="line"/>
      <point x="750" y="16" type="line"/>
    </contour>
    <contour>
      <point x="750" y="734" type="line"/>
      <point x="750" y="766" type="line"/>
      <point x="0" y="766" type="line"/>
      <point x="0" y="734" type="line"/>
    </contour>
    <contour>
      <point x="750" y="484" type="line"/>
      <point x="750" y="516" type="line"/>
      <point x="0" y="516" type="line"/>
      <point x="0" y="484" type="line"/>
    </contour>
    <contour>
      <point x="0" y="266" type="line"/>
      <point x="0" y="234" type="line"/>
      <point x="750" y="234" type="line"/>
      <point x="750" y="266" type="line"/>
    </contour>
    <contour>
      <point x="750" y="984" type="line"/>
      <point x="750" y="1016" type="line"/>
      <point x="0" y="1016" type="line"/>
      <point x="0" y="984" type="line"/>
    </contour>
  </outline>
</glyph>
<glyph name="uniE01B" format="2">
  <advance width="750"/>
  <unicode hex="E01B"/>
  <note>
{'classes': ['forTextBasedApplications', 'tf_zeroWidth'], 'name': 'staff6LinesWide', 'description': '6-line staff (wide)'}
</note>
  <outline>
    <contour>
      <point x="0" y="141" type="line"/>
      <point x="0" y="109" type="line"/>
      <point x="750" y="109" type="line"/>
      <point x="750" y="141" type="line"/>
    </contour>
    <contour>
      <point x="0" y="891" type="line"/>
      <point x="0" y="859" type="line"/>
      <point x="750" y="859" type="line"/>
      <point x="750" y="891" type="line"/>
    </contour>
    <contour>
      <point x="750" y="609" type="line"/>
      <point x="750" y="641" type="line"/>
      <point x="0" y="641" type="line"/>
      <point x="0" y="609" type="line"/>
    </contour>
    <contour>
      <point x="750" y="359" type="line"/>
      <point x="750" y="391" type="line"/>
      <point x="0" y="391" type="line"/>
      <point x="0" y="359" type="line"/>
    </contour>
    <contour>
      <point x="0" y="1141" type="line"/>
      <point x="0" y="1109" type="line"/>
      <point x="750" y="1109" type="line"/>
      <point x="750" y="1141" type="line"/>
    </contour>
    <contour>
      <point x="0" y="-109" type="line"/>
      <point x="0" y="-141" type="line"/>
      <point x="750" y="-141" type="line"/>
      <point x="750" y="-109" type="line"/>
    </contour>
  </outline>
</glyph>
<glyph name="uniE01C" format="2">
  <advance width="250"/>
  <unicode hex="E01C"/>
  <note>
{'classes': ['forTextBasedApplications', 'tf_zeroWidth'], 'name': 'staff1LineNarrow', 'description': '1-line staff (narrow)'}
</note>
  <outline>
    <contour>
      <point x="250" y="484" type="line"/>
      <point x="250" y="516" type="line"/>
      <point x="0" y="516" type="line"/>
      <point x="0" y="484" type="line"/>
    </contour>
  </outline>
</glyph>
<glyph name="uniE01E" format="2">
  <advance width="250"/>
  <unicode hex="E01E"/>
  <note>
{'classes': ['forTextBasedApplications', 'tf_zeroWidth'], 'name': 'staff3LinesNarrow', 'description': '3-line staff (narrow)'}
</note>
  <outline>
    <contour>
      <point x="0" y="266" type="line"/>
      <point x="0" y="234" type="line"/>
      <point x="250" y="234" type="line"/>
      <point x="250" y="266" type="line"/>
    </contour>
    <contour>
      <point x="0" y="766" type="line"/>
      <point x="0" y="734" type="line"/>
      <point x="250" y="734" type="line"/>
      <point x="250" y="766" type="line"/>
    </contour>
    <contour>
      <point x="250" y="484" type="line"/>
      <point x="250" y="516" type="line"/>
      <point x="0" y="516" type="line"/>
      <point x="0" y="484" type="line"/>
    </contour>
  </outline>
</glyph>
<glyph name="uniE020" format="2">
  <advance width="250"/>
  <unicode hex="E020"/>
  <note>
{'classes': ['forTextBasedApplications', 'tf_zeroWidth'], 'name': 'staff5LinesNarrow', 'description': '5-line staff (narrow)'}
</note>
  <outline>
    <contour>
      <point x="0" y="16" type="line"/>
      <point x="0" y="-16" type="line"/>
      <point x="250" y="-16" type="line"/>
      <point x="250" y="16" type="line"/>
    </contour>
    <contour>
      <point x="250" y="734" type="line"/>
      <point x="250" y="766" type="line"/>
      <point x="0" y="766" type="line"/>
      <point x="0" y="734" type="line"/>
    </contour>
    <contour>
      <point x="250" y="484" type="line"/>
      <point x="250" y="516" type="line"/>
      <point x="0" y="516" type="line"/>
      <point x="0" y="484" type="line"/>
    </contour>
    <contour>
      <point x="0" y="266" type="line"/>
      <point x="0" y="234" type="line"/>
      <point x="250" y="234" type="line"/>
      <point x="250" y="266" type="line"/>
    </contour>
    <contour>
      <point x="250" y="984" type="line"/>
      <point x="250" y="1016" type="line"/>
      <point x="0" y="1016" type="line"/>
      <point x="0" y="984" type="line"/>
    </contour>
  </outline>
</glyph>
<glyph name="uniE021" format="2">
  <advance width="250"/>
  <unicode hex="E021"/>
  <note>
{'classes': ['forTextBasedApplications', 'tf_zeroWidth'], 'name': 'staff6LinesNarrow', 'description': '6-line staff (narrow)'}
</note>
  <outline>
    <contour>
      <point x="0" y="141" type="line"/>
      <point x="0" y="109" type="line"/>
      <point x="250" y="109" type="line"/>
      <point x="250" y="141" type="line"/>
    </contour>
    <contour>
      <point x="0" y="891" type="line"/>
      <point x="0" y="859" type="line"/>
      <point x="250" y="859" type="line"/>
      <point x="250" y="891" type="line"/>
    </contour>
    <contour>
      <point x="250" y="609" type="line"/>
      <point x="250" y="641" type="line"/>
      <point x="0" y="641" type="line"/>
      <point x="0" y="609" type="line"/>
    </contour>
    <contour>
      <point x="250" y="359" type="line"/>
      <point x="250" y="391" type="line"/>
      <point x="0" y="391" type="line"/>
      <point x="0" y="359" type="line"/>
    </contour>
    <contour>
      <point x="0" y="1141" type="line"/>
      <point x="0" y="1109" type="line"/>
      <point x="250" y="1109" type="line"/>
      <point x="250" y="1141" type="line"/>
    </contour>
    <contour>
      <point x="0" y="-109" type="line"/>
      <point x="0" y="-141" type="line"/>
      <point x="250" y="-141" type="line"/>
      <point x="250" y="-109" type="line"/>
    </contour>
  </outline>
</glyph>
<glyph name="uniE030" format="2">
  <advance width="36"/>
  <unicode hex="E030"/>
  <note>
{'classes': ['forTextBasedApplications'], 'name': 'barlineSingle', 'description': 'Single barline'}
</note>
  <outline>
    <contour>
      <point x="36" y="0" type="line"/>
      <point x="36" y="1000" type="line"/>
      <point x="0" y="1000" type="line"/>
      <point x="0" y="0" type="line"/>
    </contour>
  </outline>
</glyph>
<glyph name="uniE032" format="2">
  <advance width="229"/>
  <unicode hex="E032"/>
  <note>
{'classes': ['forTextBasedApplications'], 'name': 'barlineFinal', 'description': 'Final barline'}
</note>
  <outline>
    <contour>
      <point x="228" y="0" type="line"/>
      <point x="228" y="1000" type="line"/>
      <point x="103" y="1000" type="line"/>
      <point x="103" y="0" type="line"/>
    </contour>
    <contour>
      <point x="36" y="0" type="line"/>
      <point x="36" y="1000" type="line"/>
      <point x="0" y="1000" type="line"/>
      <point x="0" y="0" type="line"/>
    </contour>
  </outline>
</glyph>
<glyph name="uniE035" format="2">
  <advance width="343"/>
  <unicode hex="E035"/>
  <note>
{'classes': ['forTextBasedApplications'], 'name': 'barlineHeavyHeavy', 'description': 'Heavy double barline'}
</note>
  <outline>
    <contour>
      <point x="218" y="0" type="line"/>
      <point x="343" y="0" type="line"/>
      <point x="343" y="1000" type="line"/>
      <point x="218" y="1000" type="line"/>
    </contour>
    <contour>
      <point x="0" y="0" type="line"/>
      <point x="125" y="0" type="line"/>
      <point x="125" y="1000" type="line"/>
      <point x="0" y="1000" type="line"/>
    </contour>
  </outline>
</glyph>
<glyph name="uniE036" format="2">
  <advance width="36"/>
  <unicode hex="E036"/>
  <note>
{'classes': ['forTextBasedApplications'], 'name': 'barlineDashed', 'description': 'Dashed barline'}
</note>
  <outline>
    <contour>
      <point x="0" y="471" type="line"/>
      <point x="0" y="182" type="line"/>
      <point x="36" y="182" type="line"/>
      <point x="36" y="471" type="line"/>
    </contour>
    <contour>
      <point x="36" y="528" type="line"/>
      <point x="36" y="817" type="line"/>
      <point x="0" y="817" type="line"/>
      <point x="0" y="528" type="line"/>
    </contour>
    <contour>
      <point x="0" y="125" type="line"/>
      <point x="0" y="0" type="line"/>
      <point x="36" y="0" type="line"/>
      <point x="36" y="125" type="line"/>
    </contour>
    <contour>
      <point x="36" y="875" type="line"/>
      <point x="36" y="1000" type="line"/>
      <point x="0" y="1000" type="line"/>
      <point x="0" y="875" type="line"/>
    </contour>
  </outline>
</glyph>
<glyph name="uniE041" format="2">
  <advance width="367"/>
  <unicode hex="E041"/>
  <note>
{'classes': ['forTextBasedApplications'], 'name': 'repeatRight', 'description': 'Right (end) repeat sign'}
</note>
  <outline>
    <contour>
      <point x="367" y="0" type="line"/>
      <point x="367" y="1000" type="line"/>
      <point x="242" y="1000" type="line"/>
      <point x="242" y="0" type="line"/>
    </contour>
    <contour>
      <point x="139" y="1000" type="line"/>
      <point x="139" y="0" type="line"/>
      <point x="175" y="0" type="line"/>
      <point x="175" y="1000" type="line"/>
    </contour>
    <contour>
      <point x="1" y="378" type="curve" smooth="yes"/>
      <point x="1" y="350"/>
      <point x="23" y="328"/>
      <point x="51" y="328" type="curve" smooth="yes"/>
      <point x="78" y="328"/>
      <point x="101" y="350"/>
      <point x="101" y="378" type="curve" smooth="yes"/>
      <point x="101" y="406"/>
      <point x="78" y="428"/>
      <point x="51" y="428" type="curve" smooth="yes"/>
      <point x="23" y="428"/>
      <point x="1" y="406"/>
    </contour>
    <contour>
      <point x="1" y="630" type="curve" smooth="yes"/>
      <point x="1" y="603"/>
      <point x="23" y="580"/>
      <point x="51" y="580" type="curve" smooth="yes"/>
      <point x="78" y="580"/>
      <point x="101" y="603"/>
      <point x="101" y="630" type="curve" smooth="yes"/>
      <point x="101" y="658"/>
      <point x="78" y="680"/>
      <point x="51" y="680" type="curve" smooth="yes"/>
      <point x="23" y="680"/>
      <point x="1" y="658"/>
    </contour>
  </outline>
</glyph>
<glyph name="uniE042" format="2">
  <advance width="608"/>
  <unicode hex="E042"/>
  <note>
{'classes': ['forTextBasedApplications'], 'name': 'repeatRightLeft', 'description': 'Right and left repeat sign'}
</note>
  <outline>
    <contour>
      <point x="367" y="0" type="line"/>
      <point x="367" y="1000" type="line"/>
      <point x="242" y="1000" type="line"/>
      <point x="242" y="0" type="line"/>
    </contour>
    <contour>
      <point x="470" y="0" type="line"/>
      <point x="470" y="1000" type="line"/>
      <point x="434" y="1000" type="line"/>
      <point x="434" y="0" type="line"/>
    </contour>
    <contour>
      <point x="175" y="0" type="line"/>
      <point x="175" y="1000" type="line"/>
      <point x="139" y="1000" type="line"/>
      <point x="139" y="0" type="line"/>
    </contour>
    <contour>
      <point x="1" y="378" type="curve" smooth="yes"/>
      <point x="1" y="350"/>
      <point x="23" y="328"/>
      <point x="51" y="328" type="curve" smooth="yes"/>
      <point x="78" y="328"/>
      <point x="101" y="350"/>
      <point x="101" y="378" type="curve" smooth="yes"/>
      <point x="101" y="406"/>
      <point x="78" y="428"/>
      <point x="51" y="428" type="curve" smooth="yes"/>
      <point x="23" y="428"/>
      <point x="1" y="406"/>
    </contour>
    <contour>
      <point x="558" y="572" type="curve" smooth="yes"/>
      <point x="586" y="572"/>
      <point x="608" y="594"/>
      <point x="608" y="622" type="curve" smooth="yes"/>
      <point x="608" y="650"/>
      <point x="586" y="672"/>
      <point x="558" y="672" type="curve" smooth="yes"/>
      <point x="531" y="672"/>
      <point x="508" y="650"/>
      <point x="508" y="622" type="curve" smooth="yes"/>
      <point x="508" y="594"/>
      <point x="531" y="572"/>
    </contour>
    <contour>
      <point x="508" y="370" type="curve" smooth="yes"/>
      <point x="508" y="342"/>
      <point x="531" y="320"/>
      <point x="558" y="320" type="curve" smooth="yes"/>
      <point x="586" y="320" name="hr01"/>
      <point x="608" y="342"/>
      <point x="608" y="370" type="curve" smooth="yes"/>
      <point x="608" y="397"/>
      <point x="586" y="420"/>
      <point x="558" y="420" type="curve" smooth="yes"/>
      <point x="531" y="420"/>
      <point x="508" y="397"/>
    </contour>
    <contour>
      <point x="51" y="580" type="curve" smooth="yes"/>
      <point x="78" y="580"/>
      <point x="101" y="603"/>
      <point x="101" y="630" type="curve" smooth="yes"/>
      <point x="101" y="658"/>
      <point x="78" y="680"/>
      <point x="51" y="680" type="curve" smooth="yes"/>
      <point x="23" y="680"/>
      <point x="1" y="658"/>
      <point x="1" y="630" type="curve" smooth="yes"/>
      <point x="1" y="603"/>
      <point x="23" y="580"/>
    </contour>
  </outline>
</glyph>
<glyph name="uniE043" format="2">
  <advance width="100"/>
  <unicode hex="E043"/>
  <note>
{'name': 'repeatDots', 'description': 'Repeat dots'}
</note>
  <outline>
    <contour>
      <point x="50" y="318" type="curve" smooth="yes"/>
      <point x="77" y="318"/>
      <point x="100" y="340"/>
      <point x="100" y="368" type="curve" smooth="yes"/>
      <point x="100" y="396"/>
      <point x="77" y="418"/>
      <point x="50" y="418" type="curve" smooth="yes"/>
      <point x="22" y="418"/>
      <point x="0" y="396"/>
      <point x="0" y="368" type="curve" smooth="yes"/>
      <point x="0" y="340"/>
      <point x="22" y="318"/>
    </contour>
    <contour>
      <point x="0" y="620" type="curve" smooth="yes"/>
      <point x="0" y="593"/>
      <point x="22" y="570"/>
      <point x="50" y="570" type="curve" smooth="yes"/>
      <point x="77" y="570"/>
      <point x="100" y="593"/>
      <point x="100" y="620" type="curve" smooth="yes"/>
      <point x="100" y="648"/>
      <point x="77" y="670"/>
      <point x="50" y="670" type="curve" smooth="yes"/>
      <point x="22" y="670"/>
      <point x="0" y="648"/>
    </contour>
  </outline>
</glyph>
<glyph name="uniE045" format="2">
  <advance width="1082"/>
  <unicode hex="E045"/>
  <note>
{'classes': ['forTextBasedApplications'], 'name': 'dalSegno', 'description': 'Dal segno'}
</note>
  <outline>
    <contour>
      <point x="11" y="433" type="line"/>
      <point x="11" y="401" type="line"/>
      <point x="20" y="401" type="line" smooth="yes"/>
      <point x="52" y="401"/>
      <point x="64" y="398"/>
      <point x="70" y="392" type="curve" smooth="yes"/>
      <point x="74" y="387"/>
      <point x="74" y="385"/>
      <point x="74" y="347" type="curve" smooth="yes"/>
      <point x="74" y="86" type="line" smooth="yes"/>
      <point x="74" y="49"/>
      <point x="74" y="46"/>
      <point x="70" y="41" type="curve" smooth="yes"/>
      <point x="64" y="35"/>
      <point x="52" y="32"/>
      <point x="20" y="32" type="curve" smooth="yes"/>
      <point x="11" y="32" type="line"/>
      <point x="11" y="0" type="line"/>
      <point x="232" y="0" type="line" smooth="yes"/>
      <point x="308" y="0"/>
      <point x="356" y="11"/>
      <point x="393" y="37" type="curve" smooth="yes"/>
      <point x="446" y="74"/>
      <point x="476" y="139"/>
      <point x="476" y="221" type="curve" smooth="yes"/>
      <point x="476" y="302"/>
      <point x="446" y="364"/>
      <point x="390" y="401" type="curve" smooth="yes"/>
      <point x="354" y="425"/>
      <point x="310" y="433"/>
      <point x="225" y="433" type="curve" smooth="yes"/>
    </contour>
    <contour>
      <point x="630" y="-4" type="line"/>
      <point x="667" y="31" type="line"/>
      <point x="704" y="4"/>
      <point x="742" y="-9" name="hr01"/>
      <point x="790" y="-9" type="curve" smooth="yes"/>
      <point x="884" y="-9"/>
      <point x="949" y="50"/>
      <point x="949" y="134" type="curve" smooth="yes"/>
      <point x="949" y="210"/>
      <point x="904" y="253"/>
      <point x="800" y="275" type="curve"/>
      <point x="771" y="282" type="line" smooth="yes"/>
      <point x="725" y="293"/>
      <point x="725" y="291"/>
      <point x="710" y="296" type="curve" smooth="yes"/>
      <point x="683" y="306"/>
      <point x="669" y="323"/>
      <point x="669" y="348" type="curve" smooth="yes"/>
      <point x="669" y="385"/>
      <point x="703" y="411"/>
      <point x="750" y="411" type="curve" smooth="yes"/>
      <point x="812" y="411"/>
      <point x="862" y="367"/>
      <point x="898" y="282" type="curve" name="hr02"/>
      <point x="929" y="282" type="line"/>
      <point x="922" y="437" type="line"/>
      <point x="895" y="437" type="line"/>
      <point x="863" y="410" type="line"/>
      <point x="830" y="433"/>
      <point x="797" y="442" name="hr03"/>
      <point x="755" y="442" type="curve" smooth="yes"/>
      <point x="663" y="442"/>
      <point x="600" y="388"/>
      <point x="600" y="308" type="curve" smooth="yes"/>
      <point x="600" y="235"/>
      <point x="654" y="183"/>
      <point x="748" y="166" type="curve"/>
      <point x="785" y="158" type="line" smooth="yes"/>
      <point x="788" y="157"/>
      <point x="791" y="157"/>
      <point x="794" y="156" type="curve" smooth="yes"/>
      <point x="798" y="155"/>
      <point x="804" y="153"/>
      <point x="808" y="153" type="curve"/>
      <point x="829" y="148"/>
      <point x="839" y="145"/>
      <point x="850" y="140" type="curve" smooth="yes"/>
      <point x="867" y="131"/>
      <point x="877" y="113"/>
      <point x="877" y="92" type="curve" smooth="yes"/>
      <point x="877" y="50"/>
      <point x="842" y="22"/>
      <point x="790" y="22" type="curve" smooth="yes"/>
      <point x="722" y="22"/>
      <point x="663" y="76"/>
      <point x="630" y="166" type="curve" name="hr04"/>
      <point x="599" y="166" type="line"/>
      <point x="599" y="-4" type="line"/>
    </contour>
    <contour>
      <point x="218" y="401" type="curve" smooth="yes"/>
      <point x="233" y="401" type="line" smooth="yes"/>
      <point x="316" y="401"/>
      <point x="356" y="343"/>
      <point x="356" y="223" type="curve" smooth="yes"/>
      <point x="356" y="91"/>
      <point x="320" y="32"/>
      <point x="230" y="32" type="curve" smooth="yes"/>
      <point x="218" y="32" type="line" smooth="yes"/>
      <point x="188" y="32"/>
      <point x="182" y="40"/>
      <point x="182" y="71" type="curve" smooth="yes"/>
      <point x="182" y="365" type="line" smooth="yes"/>
      <point x="182" y="394"/>
      <point x="189" y="401"/>
    </contour>
    <contour>
      <point x="1025" y="-9" type="curve" smooth="yes"/>
      <point x="1057" y="-9" name="hr05"/>
      <point x="1082" y="16"/>
      <point x="1082" y="47" type="curve" smooth="yes"/>
      <point x="1082" y="79"/>
      <point x="1057" y="104"/>
      <point x="1025" y="104" type="curve" smooth="yes" name="hr06"/>
      <point x="994" y="104"/>
      <point x="969" y="79"/>
      <point x="969" y="47" type="curve" smooth="yes"/>
      <point x="969" y="17"/>
      <point x="994" y="-9"/>
    </contour>
    <contour>
      <point x="459" y="47" type="curve" smooth="yes"/>
      <point x="459" y="17"/>
      <point x="484" y="-9"/>
      <point x="515" y="-9" type="curve" smooth="yes"/>
      <point x="547" y="-9"/>
      <point x="572" y="16"/>
      <point x="572" y="47" type="curve" smooth="yes"/>
      <point x="572" y="79"/>
      <point x="547" y="104"/>
      <point x="515" y="104" type="curve" smooth="yes"/>
      <point x="484" y="104" name="hr07"/>
      <point x="459" y="79"/>
    </contour>
  </outline>
</glyph>
<glyph name="uniE048" format="2">
  <advance width="954"/>
  <unicode hex="E048"/>
  <note>
{'name': 'coda', 'description': 'Coda'}
</note>
  <outline>
    <contour>
      <point x="-4" y="376" type="curve" smooth="yes"/>
      <point x="-4" y="363"/>
      <point x="0" y="352"/>
      <point x="14" y="352" type="curve" smooth="yes"/>
      <point x="146" y="352" type="line"/>
      <point x="157" y="165"/>
      <point x="296" y="13"/>
      <point x="458" y="0" type="curve"/>
      <point x="458" y="-140" type="line" smooth="yes"/>
      <point x="458" y="-154"/>
      <point x="469" y="-158"/>
      <point x="482" y="-158" type="curve" smooth="yes"/>
      <point x="495" y="-158"/>
      <point x="506" y="-154"/>
      <point x="506" y="-140" type="curve" smooth="yes"/>
      <point x="506" y="0" type="line"/>
      <point x="668" y="13"/>
      <point x="808" y="165"/>
      <point x="818" y="352" type="curve"/>
      <point x="937" y="352" type="line" smooth="yes"/>
      <point x="951" y="352"/>
      <point x="955" y="363"/>
      <point x="955" y="376" type="curve" smooth="yes"/>
      <point x="955" y="389"/>
      <point x="951" y="400"/>
      <point x="937" y="400" type="curve" smooth="yes"/>
      <point x="818" y="400" type="line"/>
      <point x="808" y="588"/>
      <point x="668" y="739"/>
      <point x="506" y="752" type="curve"/>
      <point x="506" y="881" type="line" smooth="yes"/>
      <point x="506" y="894"/>
      <point x="495" y="898"/>
      <point x="482" y="898" type="curve" smooth="yes"/>
      <point x="469" y="898"/>
      <point x="458" y="894"/>
      <point x="458" y="881" type="curve" smooth="yes"/>
      <point x="458" y="752" type="line"/>
      <point x="296" y="739"/>
      <point x="157" y="589"/>
      <point x="146" y="400" type="curve"/>
      <point x="14" y="400" type="line" smooth="yes"/>
      <point x="0" y="400"/>
      <point x="-4" y="389"/>
    </contour>
    <contour>
      <point x="653" y="400" type="curve"/>
      <point x="506" y="400" type="line"/>
      <point x="506" y="696" type="line"/>
      <point x="646" y="684"/>
      <point x="653" y="562"/>
    </contour>
    <contour>
      <point x="506" y="352" type="line"/>
      <point x="653" y="352" type="line"/>
      <point x="650" y="199"/>
      <point x="631" y="63"/>
      <point x="506" y="48" type="curve"/>
    </contour>
    <contour>
      <point x="316" y="400" type="line"/>
      <point x="316" y="562"/>
      <point x="316" y="684"/>
      <point x="458" y="696" type="curve"/>
      <point x="458" y="400" type="line"/>
    </contour>
    <contour>
      <point x="458" y="352" type="line"/>
      <point x="458" y="48" type="line"/>
      <point x="329" y="63"/>
      <point x="317" y="198"/>
      <point x="316" y="352" type="curve"/>
    </contour>
  </outline>
</glyph>
<glyph name="uniE049" format="2">
  <advance width="819"/>
  <unicode hex="E049"/>
  <note>
{'name': 'codaSquare', 'description': 'Square coda'}
</note>
  <outline>
    <contour>
      <point x="16" y="350" type="curve" smooth="yes"/>
      <point x="139" y="350" type="line"/>
      <point x="139" y="10" type="line" smooth="yes"/>
      <point x="139" y="0"/>
      <point x="145" y="-7"/>
      <point x="153" y="-7" type="curve" smooth="yes"/>
      <point x="387" y="-7" type="line"/>
      <point x="387" y="-133" type="line" smooth="yes"/>
      <point x="387" y="-144"/>
      <point x="396" y="-154"/>
      <point x="408" y="-154" type="curve" smooth="yes"/>
      <point x="414" y="-154" type="line" smooth="yes"/>
      <point x="427" y="-154"/>
      <point x="435" y="-144"/>
      <point x="435" y="-133" type="curve" smooth="yes"/>
      <point x="435" y="-7" type="line"/>
      <point x="669" y="-7" type="line" smooth="yes"/>
      <point x="676" y="-7"/>
      <point x="683" y="0"/>
      <point x="683" y="10" type="curve" smooth="yes"/>
      <point x="683" y="350" type="line"/>
      <point x="807" y="350" type="line" smooth="yes"/>
      <point x="815" y="350"/>
      <point x="822" y="358"/>
      <point x="822" y="371" type="curve" smooth="yes"/>
      <point x="822" y="379" type="line" smooth="yes"/>
      <point x="822" y="391"/>
      <point x="815" y="400"/>
      <point x="807" y="400" type="curve" smooth="yes"/>
      <point x="683" y="400" type="line"/>
      <point x="683" y="723" type="line" smooth="yes"/>
      <point x="683" y="731"/>
      <point x="676" y="738"/>
      <point x="669" y="738" type="curve" smooth="yes"/>
      <point x="435" y="738" type="line"/>
      <point x="435" y="882" type="line" smooth="yes"/>
      <point x="435" y="894"/>
      <point x="427" y="903"/>
      <point x="414" y="903" type="curve" smooth="yes"/>
      <point x="408" y="903" type="line" smooth="yes"/>
      <point x="396" y="903"/>
      <point x="387" y="894"/>
      <point x="387" y="882" type="curve" smooth="yes"/>
      <point x="387" y="738" type="line"/>
      <point x="153" y="738" type="line" smooth="yes"/>
      <point x="145" y="738"/>
      <point x="139" y="731"/>
      <point x="139" y="723" type="curve" smooth="yes"/>
      <point x="139" y="400" type="line"/>
      <point x="16" y="400" type="line" smooth="yes"/>
      <point x="7" y="400"/>
      <point x="0" y="391"/>
      <point x="0" y="379" type="curve" smooth="yes"/>
      <point x="0" y="371" type="line" smooth="yes"/>
      <point x="0" y="358"/>
      <point x="7" y="350"/>
    </contour>
    <contour>
      <point x="435" y="43" type="line"/>
      <point x="435" y="350" type="line"/>
      <point x="552" y="350" type="line"/>
      <point x="552" y="58" type="line" smooth="yes"/>
      <point x="552" y="48"/>
      <point x="549" y="43"/>
      <point x="542" y="43" type="curve" smooth="yes"/>
    </contour>
    <contour>
      <point x="270" y="58" type="curve" smooth="yes"/>
      <point x="270" y="350" type="line"/>
      <point x="387" y="350" type="line"/>
      <point x="387" y="43" type="line"/>
      <point x="282" y="43" type="line" smooth="yes"/>
      <point x="275" y="43"/>
      <point x="270" y="48"/>
    </contour>
    <contour>
      <point x="270" y="400" type="line"/>
      <point x="270" y="679" type="line" smooth="yes"/>
      <point x="270" y="686"/>
      <point x="274" y="688"/>
      <point x="279" y="688" type="curve" smooth="yes"/>
      <point x="387" y="688" type="line"/>
      <point x="387" y="400" type="line"/>
    </contour>
    <contour>
      <point x="541" y="688" type="line" smooth="yes"/>
      <point x="549" y="688"/>
      <point x="552" y="683"/>
      <point x="552" y="675" type="curve" smooth="yes"/>
      <point x="552" y="400" type="line"/>
      <point x="435" y="400" type="line"/>
      <point x="435" y="688" type="line"/>
    </contour>
  </outline>
</glyph>
<glyph name="uniE04A" format="2">
  <advance width="402"/>
  <unicode hex="E04A"/>
  <note>
{'name': 'segnoSerpent1', 'description': 'Segno (serpent)'}
</note>
  <outline>
    <contour>
      <point x="2" y="403" type="curve" smooth="yes"/>
      <point x="2" y="286"/>
      <point x="156" y="223"/>
      <point x="202" y="194" type="curve" smooth="yes"/>
      <point x="244" y="167"/>
      <point x="313" y="108"/>
      <point x="313" y="76" type="curve"/>
      <point x="312" y="43"/>
      <point x="291" y="3"/>
      <point x="237" y="3" type="curve" smooth="yes"/>
      <point x="183" y="3"/>
      <point x="159" y="72"/>
      <point x="145" y="94" type="curve" smooth="yes"/>
      <point x="130" y="116"/>
      <point x="114" y="133"/>
      <point x="84" y="133" type="curve" smooth="yes"/>
      <point x="53" y="133"/>
      <point x="35" y="111"/>
      <point x="35" y="79" type="curve" smooth="yes"/>
      <point x="35" y="48"/>
      <point x="76" y="-33"/>
      <point x="207" y="-33" type="curve" smooth="yes"/>
      <point x="340" y="-33" name="hr01"/>
      <point x="380" y="56"/>
      <point x="384" y="118" type="curve" name="hr02"/>
      <point x="384" y="127" type="line" smooth="yes"/>
      <point x="384" y="181"/>
      <point x="352" y="215"/>
      <point x="341" y="226" type="curve"/>
      <point x="339" y="229" type="line" smooth="yes"/>
      <point x="335" y="234"/>
      <point x="332" y="239" name="hr03"/>
      <point x="332" y="245" type="curve" smooth="yes"/>
      <point x="332" y="250"/>
      <point x="333" y="255"/>
      <point x="338" y="261" type="curve" smooth="yes"/>
      <point x="349" y="274"/>
      <point x="396" y="315"/>
      <point x="396" y="371" type="curve" smooth="yes"/>
      <point x="396" y="422"/>
      <point x="365" y="465"/>
      <point x="357" y="476" type="curve" smooth="yes"/>
      <point x="354" y="480" type="line"/>
      <point x="350" y="484"/>
      <point x="346" y="488"/>
      <point x="346" y="494" type="curve" smooth="yes"/>
      <point x="346" y="498"/>
      <point x="348" y="503"/>
      <point x="354" y="511" type="curve" smooth="yes"/>
      <point x="370" y="530"/>
      <point x="403" y="556" name="hr04"/>
      <point x="403" y="631" type="curve" smooth="yes"/>
      <point x="403" y="699"/>
      <point x="308" y="752"/>
      <point x="262" y="778" type="curve" smooth="yes"/>
      <point x="238" y="791" type="line" smooth="yes"/>
      <point x="189" y="818"/>
      <point x="88" y="874"/>
      <point x="88" y="921" type="curve" smooth="yes"/>
      <point x="88" y="971"/>
      <point x="143" y="980"/>
      <point x="164" y="980" type="curve" smooth="yes"/>
      <point x="179" y="980"/>
      <point x="231" y="963"/>
      <point x="246" y="926" type="curve" smooth="yes"/>
      <point x="265" y="881"/>
      <point x="287" y="873"/>
      <point x="314" y="873" type="curve" smooth="yes"/>
      <point x="340" y="873"/>
      <point x="370" y="882"/>
      <point x="370" y="935" type="curve" smooth="yes"/>
      <point x="370" y="1003"/>
      <point x="252" y="1030"/>
      <point x="207" y="1031" type="curve"/>
      <point x="202" y="1031" type="line" smooth="yes"/>
      <point x="81" y="1031"/>
      <point x="19" y="952"/>
      <point x="19" y="883" type="curve" smooth="yes"/>
      <point x="19" y="820"/>
      <point x="48" y="786"/>
      <point x="60" y="772" type="curve"/>
      <point x="63" y="769" type="line"/>
      <point x="67" y="764"/>
      <point x="69" y="759"/>
      <point x="69" y="755" type="curve" smooth="yes"/>
      <point x="69" y="749"/>
      <point x="66" y="744"/>
      <point x="60" y="740" type="curve" smooth="yes"/>
      <point x="44" y="729"/>
      <point x="6" y="683" name="hr05"/>
      <point x="6" y="636" type="curve" smooth="yes"/>
      <point x="6" y="590"/>
      <point x="31" y="553"/>
      <point x="42" y="540" type="curve" smooth="yes"/>
      <point x="48" y="533"/>
      <point x="51" y="528"/>
      <point x="51" y="524" type="curve" smooth="yes"/>
      <point x="51" y="520"/>
      <point x="48" y="516"/>
      <point x="45" y="511" type="curve" smooth="yes"/>
      <point x="39" y="501"/>
      <point x="2" y="448" name="hr06"/>
    </contour>
    <contour>
      <point x="102" y="479" type="curve" smooth="yes"/>
      <point x="109" y="479"/>
      <point x="115" y="477"/>
      <point x="118" y="475" type="curve" smooth="yes"/>
      <point x="125" y="471"/>
      <point x="298" y="382"/>
      <point x="312" y="371" type="curve" smooth="yes"/>
      <point x="321" y="364"/>
      <point x="332" y="348"/>
      <point x="332" y="331" type="curve" smooth="yes"/>
      <point x="332" y="325"/>
      <point x="331" y="319"/>
      <point x="327" y="312" type="curve"/>
      <point x="319" y="294"/>
      <point x="309" y="286"/>
      <point x="293" y="286" type="curve" smooth="yes"/>
      <point x="288" y="286"/>
      <point x="282" y="287"/>
      <point x="276" y="288" type="curve" smooth="yes"/>
      <point x="248" y="295"/>
      <point x="109" y="371"/>
      <point x="109" y="371" type="curve"/>
      <point x="91" y="384"/>
      <point x="53" y="411"/>
      <point x="53" y="433" type="curve" smooth="yes"/>
      <point x="53" y="455"/>
      <point x="81" y="479"/>
    </contour>
    <contour>
      <point x="78" y="684" type="curve"/>
      <point x="92" y="705"/>
      <point x="109" y="711"/>
      <point x="121" y="711" type="curve" smooth="yes"/>
      <point x="127" y="711"/>
      <point x="131" y="710"/>
      <point x="134" y="708" type="curve" smooth="yes"/>
      <point x="143" y="703"/>
      <point x="308" y="622"/>
      <point x="321" y="611" type="curve"/>
      <point x="330" y="605"/>
      <point x="340" y="591"/>
      <point x="340" y="575" type="curve" smooth="yes"/>
      <point x="340" y="569" name="hr07"/>
      <point x="339" y="562"/>
      <point x="335" y="556" type="curve" smooth="yes"/>
      <point x="326" y="540"/>
      <point x="318" y="532"/>
      <point x="303" y="532" type="curve" smooth="yes"/>
      <point x="298" y="532"/>
      <point x="292" y="533"/>
      <point x="285" y="535" type="curve" smooth="yes"/>
      <point x="259" y="541"/>
      <point x="126" y="611"/>
      <point x="126" y="611" type="curve"/>
      <point x="109" y="623"/>
      <point x="73" y="642"/>
      <point x="73" y="668" type="curve" smooth="yes"/>
      <point x="73" y="673"/>
      <point x="75" y="678"/>
    </contour>
  </outline>
</glyph>
<glyph name="uniE04B" format="2">
  <advance width="402"/>
  <unicode hex="E04B"/>
  <note>
{'name': 'segnoSerpent2', 'description': 'Segno (serpent with vertical lines)'}
</note>
  <outline>
    <contour>
      <point x="143" y="227" type="curve"/>
      <point x="148" y="223"/>
      <point x="160" y="212"/>
      <point x="160" y="206" type="curve" smooth="yes"/>
      <point x="160" y="145" type="line" smooth="yes"/>
      <point x="160" y="138"/>
      <point x="166" y="131"/>
      <point x="174" y="131" type="curve" smooth="yes"/>
      <point x="181" y="131"/>
      <point x="189" y="138"/>
      <point x="189" y="145" type="curve" smooth="yes"/>
      <point x="189" y="188" type="line" smooth="yes"/>
      <point x="189" y="192"/>
      <point x="194" y="196"/>
      <point x="197" y="196" type="curve"/>
      <point x="197" y="196"/>
      <point x="200" y="194"/>
      <point x="201" y="194" type="curve"/>
      <point x="217" y="183" type="line"/>
      <point x="220" y="180"/>
      <point x="226" y="173"/>
      <point x="226" y="169" type="curve" smooth="yes"/>
      <point x="226" y="145" type="line" smooth="yes"/>
      <point x="226" y="138"/>
      <point x="233" y="131"/>
      <point x="240" y="131" type="curve" smooth="yes"/>
      <point x="249" y="131"/>
      <point x="255" y="138"/>
      <point x="255" y="145" type="curve"/>
      <point x="255" y="147"/>
      <point x="257" y="149"/>
      <point x="260" y="149" type="curve" smooth="yes"/>
      <point x="288" y="149"/>
      <point x="312" y="75"/>
      <point x="312" y="75" type="curve"/>
      <point x="311" y="43"/>
      <point x="290" y="3"/>
      <point x="235" y="3" type="curve" smooth="yes"/>
      <point x="181" y="3"/>
      <point x="158" y="72"/>
      <point x="143" y="95" type="curve" smooth="yes"/>
      <point x="129" y="116"/>
      <point x="114" y="134"/>
      <point x="83" y="134" type="curve" smooth="yes"/>
      <point x="51" y="134"/>
      <point x="34" y="112"/>
      <point x="34" y="80" type="curve" smooth="yes"/>
      <point x="34" y="49"/>
      <point x="74" y="-33"/>
      <point x="206" y="-33" type="curve" smooth="yes"/>
      <point x="339" y="-33"/>
      <point x="379" y="56"/>
      <point x="382" y="119" type="curve"/>
      <point x="382" y="126" type="line" smooth="yes"/>
      <point x="382" y="185"/>
      <point x="344" y="220"/>
      <point x="338" y="229" type="curve" smooth="yes"/>
      <point x="334" y="234"/>
      <point x="331" y="239" name="hr01"/>
      <point x="331" y="245" type="curve" smooth="yes"/>
      <point x="331" y="250"/>
      <point x="333" y="255"/>
      <point x="337" y="261" type="curve" smooth="yes"/>
      <point x="347" y="275"/>
      <point x="395" y="316"/>
      <point x="395" y="371" type="curve" smooth="yes"/>
      <point x="395" y="428"/>
      <point x="359" y="471"/>
      <point x="353" y="478" type="curve" smooth="yes"/>
      <point x="349" y="482"/>
      <point x="345" y="489"/>
      <point x="345" y="494" type="curve" smooth="yes"/>
      <point x="345" y="499"/>
      <point x="347" y="504"/>
      <point x="353" y="512" type="curve" smooth="yes"/>
      <point x="368" y="531"/>
      <point x="402" y="557" name="hr02"/>
      <point x="402" y="631" type="curve" smooth="yes"/>
      <point x="402" y="696"/>
      <point x="310" y="749"/>
      <point x="263" y="776" type="curve" smooth="yes"/>
      <point x="259" y="778"/>
      <point x="255" y="784"/>
      <point x="255" y="792" type="curve" smooth="yes"/>
      <point x="255" y="850" type="line" smooth="yes"/>
      <point x="255" y="858"/>
      <point x="249" y="865"/>
      <point x="240" y="865" type="curve" smooth="yes"/>
      <point x="233" y="865"/>
      <point x="226" y="858"/>
      <point x="226" y="850" type="curve" smooth="yes"/>
      <point x="226" y="809" type="line" smooth="yes"/>
      <point x="226" y="805"/>
      <point x="225" y="799"/>
      <point x="222" y="799" type="curve" smooth="yes"/>
      <point x="218" y="799"/>
      <point x="200" y="811"/>
      <point x="194" y="815" type="curve" smooth="yes"/>
      <point x="192" y="816"/>
      <point x="189" y="820"/>
      <point x="189" y="826" type="curve" smooth="yes"/>
      <point x="189" y="850" type="line" smooth="yes"/>
      <point x="189" y="858"/>
      <point x="181" y="865"/>
      <point x="174" y="865" type="curve" smooth="yes"/>
      <point x="166" y="865"/>
      <point x="160" y="858"/>
      <point x="160" y="850" type="curve" smooth="yes"/>
      <point x="160" y="844" type="line"/>
      <point x="159" y="842"/>
      <point x="157" y="841"/>
      <point x="155" y="841" type="curve"/>
      <point x="153" y="841"/>
      <point x="151" y="842"/>
      <point x="150" y="843" type="curve"/>
      <point x="116" y="868"/>
      <point x="87" y="895"/>
      <point x="87" y="921" type="curve" smooth="yes"/>
      <point x="87" y="971"/>
      <point x="142" y="980"/>
      <point x="163" y="980" type="curve" smooth="yes"/>
      <point x="178" y="980"/>
      <point x="229" y="963"/>
      <point x="244" y="927" type="curve" smooth="yes"/>
      <point x="264" y="880"/>
      <point x="285" y="873"/>
      <point x="313" y="873" type="curve" smooth="yes"/>
      <point x="339" y="873"/>
      <point x="368" y="882"/>
      <point x="368" y="936" type="curve" smooth="yes"/>
      <point x="368" y="1003"/>
      <point x="251" y="1030"/>
      <point x="206" y="1031" type="curve"/>
      <point x="201" y="1031" type="line" smooth="yes"/>
      <point x="79" y="1031"/>
      <point x="17" y="952"/>
      <point x="17" y="883" type="curve" smooth="yes"/>
      <point x="17" y="817"/>
      <point x="48" y="784"/>
      <point x="60" y="771" type="curve"/>
      <point x="66" y="763"/>
      <point x="68" y="758"/>
      <point x="68" y="754" type="curve" smooth="yes"/>
      <point x="68" y="748"/>
      <point x="65" y="743"/>
      <point x="60" y="740" type="curve" smooth="yes"/>
      <point x="44" y="730"/>
      <point x="4" y="682" name="hr03"/>
      <point x="4" y="636" type="curve" smooth="yes"/>
      <point x="4" y="590"/>
      <point x="30" y="554"/>
      <point x="42" y="541" type="curve" smooth="yes"/>
      <point x="48" y="534"/>
      <point x="50" y="529"/>
      <point x="50" y="525" type="curve" smooth="yes"/>
      <point x="50" y="521"/>
      <point x="48" y="517"/>
      <point x="45" y="512" type="curve" smooth="yes"/>
      <point x="39" y="501"/>
      <point x="1" y="448" name="hr04"/>
      <point x="1" y="404" type="curve" smooth="yes"/>
      <point x="1" y="318"/>
      <point x="80" y="263"/>
    </contour>
    <contour>
      <point x="101" y="479" type="curve" smooth="yes"/>
      <point x="108" y="479"/>
      <point x="113" y="477"/>
      <point x="116" y="475" type="curve" smooth="yes"/>
      <point x="118" y="474"/>
      <point x="131" y="468"/>
      <point x="149" y="458" type="curve" smooth="yes"/>
      <point x="152" y="456"/>
      <point x="160" y="450"/>
      <point x="160" y="441" type="curve" smooth="yes"/>
      <point x="160" y="355" type="line" smooth="yes"/>
      <point x="160" y="352"/>
      <point x="157" y="350"/>
      <point x="153" y="350" type="curve" smooth="yes"/>
      <point x="150" y="350"/>
      <point x="147" y="351"/>
      <point x="145" y="352" type="curve" smooth="yes"/>
      <point x="105" y="374" type="line"/>
      <point x="85" y="381"/>
      <point x="53" y="409"/>
      <point x="53" y="433" type="curve" smooth="yes"/>
      <point x="53" y="456"/>
      <point x="79" y="479"/>
    </contour>
    <contour>
      <point x="255" y="634" type="line" smooth="yes"/>
      <point x="255" y="640"/>
      <point x="259" y="643"/>
      <point x="262" y="643" type="curve" smooth="yes"/>
      <point x="282" y="643"/>
      <point x="321" y="613"/>
      <point x="321" y="612" type="curve"/>
      <point x="330" y="605"/>
      <point x="340" y="590"/>
      <point x="340" y="575" type="curve" smooth="yes"/>
      <point x="340" y="555"/>
      <point x="323" y="533"/>
      <point x="302" y="533" type="curve" smooth="yes"/>
      <point x="297" y="533"/>
      <point x="291" y="534"/>
      <point x="284" y="535" type="curve"/>
      <point x="280" y="537"/>
      <point x="272" y="539"/>
      <point x="263" y="543" type="curve" smooth="yes"/>
      <point x="258" y="545"/>
      <point x="255" y="552"/>
      <point x="255" y="558" type="curve" smooth="yes"/>
    </contour>
    <contour>
      <point x="72" y="670" type="curve" smooth="yes"/>
      <point x="72" y="692"/>
      <point x="97" y="710" name="hr05"/>
      <point x="118" y="710" type="curve" smooth="yes"/>
      <point x="125" y="710"/>
      <point x="130" y="709"/>
      <point x="133" y="707" type="curve" smooth="yes"/>
      <point x="152" y="698" type="line" smooth="yes"/>
      <point x="154" y="697"/>
      <point x="160" y="692"/>
      <point x="160" y="687" type="curve" smooth="yes"/>
      <point x="160" y="606" type="line" smooth="yes"/>
      <point x="160" y="601"/>
      <point x="156" y="600"/>
      <point x="152" y="600" type="curve" smooth="yes"/>
      <point x="148" y="600" type="line"/>
      <point x="134" y="607"/>
      <point x="125" y="612"/>
      <point x="125" y="612" type="curve"/>
      <point x="119" y="616" type="line" smooth="yes"/>
      <point x="100" y="628"/>
      <point x="72" y="647"/>
    </contour>
    <contour>
      <point x="255" y="391" type="line" smooth="yes"/>
      <point x="255" y="396"/>
      <point x="259" y="398"/>
      <point x="263" y="398" type="curve"/>
      <point x="265" y="398"/>
      <point x="267" y="397"/>
      <point x="268" y="396" type="curve"/>
      <point x="290" y="384"/>
      <point x="307" y="376"/>
      <point x="311" y="372" type="curve"/>
      <point x="321" y="365"/>
      <point x="331" y="349"/>
      <point x="331" y="332" type="curve" smooth="yes"/>
      <point x="331" y="325"/>
      <point x="329" y="319"/>
      <point x="326" y="312" type="curve"/>
      <point x="316" y="295"/>
      <point x="307" y="286"/>
      <point x="291" y="286" type="curve" smooth="yes"/>
      <point x="286" y="286"/>
      <point x="280" y="287"/>
      <point x="273" y="289" type="curve" smooth="yes"/>
      <point x="271" y="290"/>
      <point x="267" y="291"/>
      <point x="262" y="294" type="curve" smooth="yes"/>
      <point x="257" y="296"/>
      <point x="255" y="302"/>
      <point x="255" y="311" type="curve" smooth="yes"/>
    </contour>
    <contour>
      <point x="189" y="425" type="curve"/>
      <point x="189" y="431"/>
      <point x="193" y="434"/>
      <point x="196" y="434" type="curve" smooth="yes"/>
      <point x="201" y="434"/>
      <point x="212" y="426"/>
      <point x="217" y="424" type="curve" smooth="yes"/>
      <point x="220" y="422"/>
      <point x="226" y="417"/>
      <point x="226" y="405" type="curve" smooth="yes"/>
      <point x="226" y="322" type="line" smooth="yes"/>
      <point x="226" y="317"/>
      <point x="222" y="314"/>
      <point x="219" y="314" type="curve"/>
      <point x="218" y="314"/>
      <point x="217" y="314"/>
      <point x="216" y="315" type="curve"/>
      <point x="194" y="326" type="line"/>
      <point x="189" y="330"/>
      <point x="188" y="335"/>
      <point x="188" y="343" type="curve" smooth="yes"/>
      <point x="188" y="369"/>
      <point x="188" y="421"/>
    </contour>
    <contour>
      <point x="188" y="638" type="curve" smooth="yes"/>
      <point x="188" y="655"/>
      <point x="188" y="670"/>
      <point x="189" y="672" type="curve"/>
      <point x="189" y="675"/>
      <point x="192" y="677"/>
      <point x="194" y="677" type="curve"/>
      <point x="195" y="677"/>
      <point x="211" y="668"/>
      <point x="220" y="664" type="curve" smooth="yes"/>
      <point x="222" y="663"/>
      <point x="226" y="660"/>
      <point x="226" y="650" type="curve" smooth="yes"/>
      <point x="226" y="568" type="line" smooth="yes"/>
      <point x="226" y="564"/>
      <point x="224" y="563"/>
      <point x="222" y="563" type="curve"/>
      <point x="215" y="563"/>
      <point x="201" y="572"/>
      <point x="195" y="576" type="curve" smooth="yes"/>
      <point x="193" y="577"/>
      <point x="189" y="583"/>
      <point x="189" y="589" type="curve"/>
      <point x="188" y="601"/>
      <point x="188" y="621"/>
    </contour>
  </outline>
</glyph>
<glyph name="uniE04C" format="2">
  <advance width="371"/>
  <unicode hex="E04C"/>
  <note>
{'classes': ['forTextBasedApplications'], 'name': 'leftRepeatSmall', 'description': 'Left repeat sign within bar'}
</note>
  <outline>
    <contour>
      <point x="0" y="870" type="line"/>
      <point x="0" y="125" type="line"/>
      <point x="125" y="125" type="line"/>
      <point x="125" y="870" type="line"/>
    </contour>
    <contour>
      <point x="192" y="870" type="line"/>
      <point x="192" y="125" type="line"/>
      <point x="228" y="125" type="line"/>
      <point x="228" y="870" type="line"/>
    </contour>
    <contour>
      <point x="316" y="572" type="curve" smooth="yes"/>
      <point x="344" y="572"/>
      <point x="366" y="594"/>
      <point x="366" y="622" type="curve" smooth="yes"/>
      <point x="366" y="650"/>
      <point x="344" y="672"/>
      <point x="316" y="672" type="curve" smooth="yes"/>
      <point x="289" y="672"/>
      <point x="266" y="650"/>
      <point x="266" y="622" type="curve" smooth="yes"/>
      <point x="266" y="594"/>
      <point x="289" y="572"/>
    </contour>
    <contour>
      <point x="266" y="370" type="curve" smooth="yes"/>
      <point x="266" y="342"/>
      <point x="289" y="320"/>
      <point x="316" y="320" type="curve" smooth="yes"/>
      <point x="344" y="320"/>
      <point x="366" y="342"/>
      <point x="366" y="370" type="curve" smooth="yes"/>
      <point x="366" y="397"/>
      <point x="344" y="420"/>
      <point x="316" y="420" type="curve" smooth="yes"/>
      <point x="289" y="420"/>
      <point x="266" y="397"/>
    </contour>
  </outline>
</glyph>
<glyph name="uniE04D" format="2">
  <advance width="371"/>
  <unicode hex="E04D"/>
  <note>
{'classes': ['forTextBasedApplications'], 'name': 'rightRepeatSmall', 'description': 'Right repeat sign within bar'}
</note>
  <outline>
    <contour>
      <point x="241" y="125" type="line"/>
      <point x="366" y="125" type="line"/>
      <point x="366" y="870" type="line"/>
      <point x="241" y="870" type="line"/>
    </contour>
    <contour>
      <point x="174" y="125" type="line"/>
      <point x="174" y="870" type="line"/>
      <point x="138" y="870" type="line"/>
      <point x="138" y="125" type="line"/>
    </contour>
    <contour>
      <point x="50" y="572" type="curve" smooth="yes"/>
      <point x="77" y="572"/>
      <point x="100" y="594"/>
      <point x="100" y="622" type="curve" smooth="yes"/>
      <point x="100" y="650"/>
      <point x="77" y="672"/>
      <point x="50" y="672" type="curve" smooth="yes"/>
      <point x="22" y="672"/>
      <point x="0" y="650"/>
      <point x="0" y="622" type="curve" smooth="yes"/>
      <point x="0" y="594"/>
      <point x="22" y="572"/>
    </contour>
    <contour>
      <point x="50" y="320" type="curve" smooth="yes"/>
      <point x="77" y="320"/>
      <point x="100" y="342"/>
      <point x="100" y="370" type="curve" smooth="yes"/>
      <point x="100" y="397"/>
      <point x="77" y="420"/>
      <point x="50" y="420" type="curve" smooth="yes"/>
      <point x="22" y="420"/>
      <point x="0" y="397"/>
      <point x="0" y="370" type="curve" smooth="yes"/>
      <point x="0" y="342"/>
      <point x="22" y="320"/>
    </contour>
  </outline>
</glyph>
<glyph name="uniE051" format="2">
  <advance width="671"/>
  <unicode hex="E051"/>
  <note>
{'classes': ['clefs', 'clefsG'], 'name': 'gClef15mb', 'description': 'G clef quindicesima bassa'}
</note>
  <outline>
    <contour>
      <point x="364" y="-252" type="curve" smooth="yes"/>
      <point x="387" y="-252"/>
      <point x="413" y="-250"/>
      <point x="433" y="-246" type="curve" smooth="yes"/>
      <point x="444" y="-244"/>
      <point x="446" y="-243"/>
      <point x="448" y="-255" type="curve" smooth="yes"/>
      <point x="460" y="-322"/>
      <point x="475" y="-409"/>
      <point x="475" y="-456" type="curve" smooth="yes"/>
      <point x="475" y="-604"/>
      <point x="375" y="-622"/>
      <point x="316" y="-622" type="curve" smooth="yes"/>
      <point x="262" y="-622"/>
      <point x="236" y="-606"/>
      <point x="236" y="-593" type="curve" smooth="yes"/>
      <point x="236" y="-586"/>
      <point x="245" y="-583"/>
      <point x="268" y="-576" type="curve" smooth="yes"/>
      <point x="299" y="-567"/>
      <point x="335" y="-540" name="hr01"/>
      <point x="335" y="-482" type="curve" smooth="yes"/>
      <point x="335" y="-427"/>
      <point x="300" y="-380"/>
      <point x="239" y="-380" type="curve" smooth="yes"/>
      <point x="172" y="-380"/>
      <point x="132" y="-433"/>
      <point x="132" y="-495" type="curve" smooth="yes"/>
      <point x="132" y="-546"/>
      <point x="157" y="-619"/>
      <point x="243" y="-647" type="curve"/>
      <point x="240" y="-647"/>
      <point x="238" y="-649"/>
      <point x="236" y="-652" type="curve" smooth="yes"/>
      <point x="170" y="-726" type="line" smooth="yes"/>
      <point x="167" y="-730"/>
      <point x="165" y="-733"/>
      <point x="165" y="-736" type="curve" smooth="yes"/>
      <point x="165" y="-741"/>
      <point x="170" y="-745"/>
      <point x="175" y="-745" type="curve" smooth="yes"/>
      <point x="180" y="-745"/>
      <point x="183" y="-743"/>
      <point x="186" y="-739" type="curve" smooth="yes"/>
      <point x="209" y="-714" type="line" smooth="yes"/>
      <point x="212" y="-710"/>
      <point x="214" y="-708"/>
      <point x="217" y="-708" type="curve"/>
      <point x="219" y="-708"/>
      <point x="220" y="-709"/>
      <point x="220" y="-712" type="curve"/>
      <point x="220" y="-714"/>
      <point x="220" y="-716"/>
      <point x="219" y="-719" type="curve" smooth="yes"/>
      <point x="177" y="-851" type="line"/>
      <point x="175" y="-855"/>
      <point x="175" y="-857"/>
      <point x="169" y="-857" type="curve"/>
      <point x="148" y="-859" type="line" smooth="yes"/>
      <point x="142" y="-860"/>
      <point x="139" y="-863"/>
      <point x="139" y="-868" type="curve" smooth="yes"/>
      <point x="139" y="-873"/>
      <point x="142" y="-876"/>
      <point x="149" y="-876" type="curve" smooth="yes"/>
      <point x="252" y="-876" type="line" smooth="yes"/>
      <point x="259" y="-876"/>
      <point x="262" y="-873"/>
      <point x="262" y="-868" type="curve" smooth="yes"/>
      <point x="262" y="-863"/>
      <point x="259" y="-860"/>
      <point x="253" y="-859" type="curve" smooth="yes"/>
      <point x="232" y="-857" type="line"/>
      <point x="228" y="-857"/>
      <point x="229" y="-854"/>
      <point x="230" y="-849" type="curve"/>
      <point x="290" y="-660" type="line"/>
      <point x="290" y="-658"/>
      <point x="291" y="-657"/>
      <point x="291" y="-656" type="curve" name="hr02"/>
      <point x="301" y="-657"/>
      <point x="311" y="-658" name="hr03"/>
      <point x="322" y="-658" type="curve" smooth="yes"/>
      <point x="327" y="-658"/>
      <point x="333" y="-658"/>
      <point x="339" y="-657" type="curve"/>
      <point x="339" y="-658" type="line"/>
      <point x="305" y="-758" type="line" smooth="yes"/>
      <point x="303" y="-764"/>
      <point x="302" y="-766"/>
      <point x="302" y="-769" type="curve" smooth="yes"/>
      <point x="302" y="-775"/>
      <point x="306" y="-779"/>
      <point x="312" y="-779" type="curve" smooth="yes"/>
      <point x="316" y="-779"/>
      <point x="319" y="-777"/>
      <point x="324" y="-772" type="curve" smooth="yes"/>
      <point x="329" y="-767"/>
      <point x="342" y="-754"/>
      <point x="361" y="-754" type="curve" smooth="yes"/>
      <point x="382" y="-754"/>
      <point x="389" y="-768"/>
      <point x="389" y="-785" type="curve" smooth="yes"/>
      <point x="389" y="-815"/>
      <point x="370" y="-865"/>
      <point x="329" y="-865" type="curve" smooth="yes"/>
      <point x="317" y="-865"/>
      <point x="307" y="-860"/>
      <point x="307" y="-854" type="curve" smooth="yes"/>
      <point x="307" y="-850"/>
      <point x="310" y="-849"/>
      <point x="315" y="-847" type="curve" smooth="yes"/>
      <point x="322" y="-844"/>
      <point x="331" y="-836"/>
      <point x="331" y="-820" type="curve" smooth="yes"/>
      <point x="331" y="-805"/>
      <point x="320" y="-798"/>
      <point x="307" y="-798" type="curve" smooth="yes"/>
      <point x="290" y="-798"/>
      <point x="277" y="-813"/>
      <point x="277" y="-834" type="curve" smooth="yes"/>
      <point x="277" y="-858"/>
      <point x="297" y="-881"/>
      <point x="340" y="-881" type="curve" smooth="yes"/>
      <point x="397" y="-881"/>
      <point x="439" y="-842"/>
      <point x="439" y="-784" type="curve" smooth="yes"/>
      <point x="439" y="-748"/>
      <point x="414" y="-734"/>
      <point x="374" y="-734" type="curve" smooth="yes"/>
      <point x="362" y="-734"/>
      <point x="353" y="-735"/>
      <point x="345" y="-738" type="curve" smooth="yes"/>
      <point x="336" y="-741"/>
      <point x="335" y="-737" name="hr04"/>
      <point x="337" y="-731" type="curve" smooth="yes" name="hr05"/>
      <point x="346" y="-703" type="line" smooth="yes"/>
      <point x="348" y="-697"/>
      <point x="351" y="-697"/>
      <point x="357" y="-698" type="curve" smooth="yes"/>
      <point x="364" y="-699"/>
      <point x="373" y="-700"/>
      <point x="381" y="-700" type="curve" smooth="yes"/>
      <point x="417" y="-700"/>
      <point x="445" y="-683"/>
      <point x="464" y="-665" type="curve" smooth="yes"/>
      <point x="470" y="-660"/>
      <point x="473" y="-656"/>
      <point x="473" y="-652" type="curve" smooth="yes"/>
      <point x="473" y="-649"/>
      <point x="470" y="-646"/>
      <point x="467" y="-646" type="curve" smooth="yes"/>
      <point x="463" y="-646"/>
      <point x="460" y="-648"/>
      <point x="452" y="-650" type="curve" smooth="yes"/>
      <point x="439" y="-654"/>
      <point x="424" y="-656"/>
      <point x="406" y="-656" type="curve" smooth="yes"/>
      <point x="392" y="-656"/>
      <point x="381" y="-654"/>
      <point x="373" y="-652" type="curve"/>
      <point x="440" y="-638"/>
      <point x="519" y="-590"/>
      <point x="519" y="-458" type="curve" smooth="yes"/>
      <point x="519" y="-401"/>
      <point x="501" y="-306"/>
      <point x="490" y="-244" type="curve" smooth="yes"/>
      <point x="488" y="-232"/>
      <point x="489" y="-233"/>
      <point x="503" y="-227" type="curve" smooth="yes"/>
      <point x="604" y="-187"/>
      <point x="671" y="-102"/>
      <point x="671" y="11" type="curve" smooth="yes"/>
      <point x="671" y="139"/>
      <point x="577" y="252"/>
      <point x="430" y="252" type="curve" smooth="yes"/>
      <point x="404" y="252"/>
      <point x="404" y="252"/>
      <point x="401" y="270" type="curve" smooth="yes"/>
      <point x="376" y="415" type="line" smooth="yes"/>
      <point x="374" y="427"/>
      <point x="376" y="428"/>
      <point x="382" y="434" type="curve" smooth="yes"/>
      <point x="490" y="535"/>
      <point x="572" y="662"/>
      <point x="572" y="815" type="curve" smooth="yes"/>
      <point x="572" y="902"/>
      <point x="548" y="988"/>
      <point x="507" y="1048" type="curve" smooth="yes"/>
      <point x="492" y="1070"/>
      <point x="466" y="1098"/>
      <point x="455" y="1098" type="curve" smooth="yes"/>
      <point x="441" y="1098"/>
      <point x="410" y="1072"/>
      <point x="390" y="1050" type="curve" smooth="yes"/>
      <point x="316" y="968"/>
      <point x="292" y="843"/>
      <point x="292" y="739" type="curve" smooth="yes"/>
      <point x="292" y="681"/>
      <point x="299" y="616"/>
      <point x="306" y="575" type="curve" smooth="yes"/>
      <point x="308" y="563"/>
      <point x="309" y="561"/>
      <point x="297" y="551" type="curve" smooth="yes"/>
      <point x="153" y="432"/>
      <point x="0" y="289"/>
      <point x="0" y="87" type="curve" smooth="yes"/>
      <point x="0" y="-87"/>
      <point x="119" y="-252"/>
    </contour>
    <contour>
      <point x="80" y="20" type="curve" smooth="yes"/>
      <point x="80" y="79"/>
      <point x="90" y="158"/>
      <point x="173" y="252" type="curve" smooth="yes"/>
      <point x="233" y="319"/>
      <point x="279" y="356"/>
      <point x="326" y="394" type="curve" smooth="yes"/>
      <point x="336" y="402"/>
      <point x="338" y="401"/>
      <point x="340" y="390" type="curve" smooth="yes"/>
      <point x="361" y="262" type="line" smooth="yes"/>
      <point x="364" y="243"/>
      <point x="364" y="244"/>
      <point x="346" y="238" type="curve" smooth="yes"/>
      <point x="258" y="208"/>
      <point x="201" y="129"/>
      <point x="201" y="44" type="curve" smooth="yes"/>
      <point x="201" y="-46"/>
      <point x="248" y="-110"/>
      <point x="316" y="-133" type="curve" smooth="yes"/>
      <point x="324" y="-136"/>
      <point x="336" y="-139"/>
      <point x="343" y="-139" type="curve" smooth="yes"/>
      <point x="351" y="-139"/>
      <point x="355" y="-134"/>
      <point x="355" y="-128" type="curve" smooth="yes"/>
      <point x="355" y="-121"/>
      <point x="347" y="-118"/>
      <point x="340" y="-115" type="curve" smooth="yes"/>
      <point x="298" y="-97"/>
      <point x="268" y="-54"/>
      <point x="268" y="-8" type="curve" smooth="yes"/>
      <point x="268" y="49"/>
      <point x="307" y="92"/>
      <point x="368" y="109" type="curve" smooth="yes"/>
      <point x="384" y="113"/>
      <point x="386" y="112"/>
      <point x="388" y="101" type="curve" smooth="yes"/>
      <point x="438" y="-197" type="line" smooth="yes"/>
      <point x="440" y="-208"/>
      <point x="439" y="-208"/>
      <point x="424" y="-211" type="curve" smooth="yes"/>
      <point x="408" y="-214"/>
      <point x="388" y="-216"/>
      <point x="368" y="-216" type="curve" smooth="yes"/>
      <point x="193" y="-216"/>
      <point x="80" y="-119"/>
    </contour>
    <contour>
      <point x="337" y="691" type="curve" smooth="yes"/>
      <point x="337" y="847"/>
      <point x="409" y="943"/>
      <point x="470" y="943" type="curve" smooth="yes"/>
      <point x="503" y="943"/>
      <point x="530" y="916"/>
      <point x="530" y="861" type="curve" smooth="yes"/>
      <point x="530" y="750"/>
      <point x="435" y="660"/>
      <point x="356" y="591" type="curve" smooth="yes"/>
      <point x="349" y="585"/>
      <point x="345" y="586"/>
      <point x="343" y="599" type="curve" smooth="yes"/>
      <point x="339" y="625"/>
      <point x="337" y="659"/>
    </contour>
    <contour>
      <point x="441" y="117" type="curve" smooth="yes"/>
      <point x="522" y="110"/>
      <point x="589" y="42"/>
      <point x="589" y="-46" type="curve" smooth="yes"/>
      <point x="589" y="-109"/>
      <point x="551" y="-160"/>
      <point x="495" y="-188" type="curve" smooth="yes"/>
      <point x="483" y="-194"/>
      <point x="481" y="-194"/>
      <point x="479" y="-182" type="curve" smooth="yes"/>
      <point x="430" y="103" type="line" smooth="yes"/>
      <point x="428" y="115"/>
      <point x="429" y="118"/>
    </contour>
  </outline>
</glyph>
<glyph name="uniE054" format="2">
  <advance width="671"/>
  <unicode hex="E054"/>
  <note>
{'classes': ['clefs', 'clefsG'], 'name': 'gClef15ma', 'description': 'G clef quindicesima alta'}
</note>
  <outline>
    <contour>
      <point x="364" y="-252" type="curve" smooth="yes"/>
      <point x="387" y="-252"/>
      <point x="413" y="-250"/>
      <point x="433" y="-246" type="curve" smooth="yes"/>
      <point x="444" y="-244"/>
      <point x="446" y="-243"/>
      <point x="448" y="-255" type="curve" smooth="yes"/>
      <point x="460" y="-322"/>
      <point x="475" y="-409"/>
      <point x="475" y="-456" type="curve" smooth="yes"/>
      <point x="475" y="-604"/>
      <point x="375" y="-622"/>
      <point x="316" y="-622" type="curve" smooth="yes"/>
      <point x="262" y="-622"/>
      <point x="236" y="-606"/>
      <point x="236" y="-593" type="curve" smooth="yes"/>
      <point x="236" y="-586"/>
      <point x="245" y="-583"/>
      <point x="268" y="-576" type="curve" smooth="yes"/>
      <point x="299" y="-567"/>
      <point x="335" y="-540" name="hr01"/>
      <point x="335" y="-482" type="curve" smooth="yes"/>
      <point x="335" y="-427"/>
      <point x="300" y="-380"/>
      <point x="239" y="-380" type="curve" smooth="yes"/>
      <point x="172" y="-380"/>
      <point x="132" y="-433"/>
      <point x="132" y="-495" type="curve" smooth="yes"/>
      <point x="132" y="-560"/>
      <point x="171" y="-658"/>
      <point x="322" y="-658" type="curve" smooth="yes"/>
      <point x="389" y="-658"/>
      <point x="519" y="-628"/>
      <point x="519" y="-458" type="curve" smooth="yes"/>
      <point x="519" y="-401"/>
      <point x="501" y="-306"/>
      <point x="490" y="-244" type="curve" smooth="yes"/>
      <point x="488" y="-232"/>
      <point x="489" y="-233"/>
      <point x="503" y="-227" type="curve" smooth="yes"/>
      <point x="604" y="-187"/>
      <point x="671" y="-102"/>
      <point x="671" y="11" type="curve" smooth="yes"/>
      <point x="671" y="139"/>
      <point x="577" y="252"/>
      <point x="430" y="252" type="curve" smooth="yes"/>
      <point x="404" y="252"/>
      <point x="404" y="252"/>
      <point x="401" y="270" type="curve" smooth="yes"/>
      <point x="376" y="415" type="line" smooth="yes"/>
      <point x="374" y="427"/>
      <point x="376" y="428"/>
      <point x="382" y="434" type="curve" smooth="yes"/>
      <point x="490" y="535"/>
      <point x="572" y="662"/>
      <point x="572" y="815" type="curve" smooth="yes"/>
      <point x="572" y="902"/>
      <point x="548" y="988"/>
      <point x="507" y="1048" type="curve" smooth="yes"/>
      <point x="492" y="1070"/>
      <point x="466" y="1098"/>
      <point x="455" y="1098" type="curve" smooth="yes"/>
      <point x="441" y="1098"/>
      <point x="410" y="1072"/>
      <point x="390" y="1050" type="curve" smooth="yes"/>
      <point x="316" y="968"/>
      <point x="292" y="843" name="hr02"/>
      <point x="292" y="739" type="curve" smooth="yes"/>
      <point x="292" y="681"/>
      <point x="299" y="616"/>
      <point x="306" y="575" type="curve" smooth="yes"/>
      <point x="308" y="563"/>
      <point x="309" y="561"/>
      <point x="297" y="551" type="curve" smooth="yes"/>
      <point x="153" y="432"/>
      <point x="0" y="289"/>
      <point x="0" y="87" type="curve" smooth="yes"/>
      <point x="0" y="-87"/>
      <point x="119" y="-252"/>
    </contour>
    <contour>
      <point x="173" y="252" type="curve" smooth="yes"/>
      <point x="233" y="319"/>
      <point x="279" y="356"/>
      <point x="326" y="394" type="curve" smooth="yes"/>
      <point x="336" y="402"/>
      <point x="338" y="401"/>
      <point x="340" y="390" type="curve" smooth="yes"/>
      <point x="361" y="262" type="line" smooth="yes"/>
      <point x="364" y="243"/>
      <point x="364" y="244"/>
      <point x="346" y="238" type="curve" smooth="yes"/>
      <point x="258" y="208"/>
      <point x="201" y="129"/>
      <point x="201" y="44" type="curve" smooth="yes"/>
      <point x="201" y="-46"/>
      <point x="248" y="-110"/>
      <point x="316" y="-133" type="curve" smooth="yes"/>
      <point x="324" y="-136"/>
      <point x="336" y="-139"/>
      <point x="343" y="-139" type="curve" smooth="yes"/>
      <point x="351" y="-139"/>
      <point x="355" y="-134"/>
      <point x="355" y="-128" type="curve" smooth="yes"/>
      <point x="355" y="-121"/>
      <point x="347" y="-118"/>
      <point x="340" y="-115" type="curve" smooth="yes"/>
      <point x="298" y="-97"/>
      <point x="268" y="-54"/>
      <point x="268" y="-8" type="curve" smooth="yes"/>
      <point x="268" y="49"/>
      <point x="307" y="92"/>
      <point x="368" y="109" type="curve" smooth="yes"/>
      <point x="384" y="113"/>
      <point x="386" y="112"/>
      <point x="388" y="101" type="curve" smooth="yes"/>
      <point x="438" y="-197" type="line" smooth="yes"/>
      <point x="440" y="-208"/>
      <point x="439" y="-208"/>
      <point x="424" y="-211" type="curve" smooth="yes"/>
      <point x="408" y="-214"/>
      <point x="388" y="-216"/>
      <point x="368" y="-216" type="curve" smooth="yes"/>
      <point x="193" y="-216"/>
      <point x="80" y="-119"/>
      <point x="80" y="20" type="curve" smooth="yes"/>
      <point x="80" y="79"/>
      <point x="90" y="158"/>
    </contour>
    <contour>
      <point x="470" y="943" type="curve" smooth="yes"/>
      <point x="503" y="943"/>
      <point x="530" y="916"/>
      <point x="530" y="861" type="curve" smooth="yes"/>
      <point x="530" y="750"/>
      <point x="435" y="660"/>
      <point x="356" y="591" type="curve" smooth="yes"/>
      <point x="349" y="585"/>
      <point x="345" y="586"/>
      <point x="343" y="599" type="curve" smooth="yes"/>
      <point x="339" y="625"/>
      <point x="337" y="659"/>
      <point x="337" y="691" type="curve" smooth="yes"/>
      <point x="337" y="847"/>
      <point x="409" y="943"/>
    </contour>
    <contour>
      <point x="441" y="117" type="curve" smooth="yes"/>
      <point x="522" y="110"/>
      <point x="589" y="42"/>
      <point x="589" y="-46" type="curve" smooth="yes"/>
      <point x="589" y="-109"/>
      <point x="551" y="-160"/>
      <point x="495" y="-188" type="curve" smooth="yes"/>
      <point x="483" y="-194"/>
      <point x="481" y="-194"/>
      <point x="479" y="-182" type="curve" smooth="yes"/>
      <point x="430" y="103" type="line" smooth="yes"/>
      <point x="428" y="115"/>
      <point x="429" y="118"/>
    </contour>
    <contour>
      <point x="514" y="1083" type="curve" smooth="yes"/>
      <point x="571" y="1083"/>
      <point x="613" y="1122"/>
      <point x="613" y="1180" type="curve" smooth="yes"/>
      <point x="613" y="1216"/>
      <point x="588" y="1231"/>
      <point x="548" y="1231" type="curve" smooth="yes" name="hr03"/>
      <point x="536" y="1231"/>
      <point x="527" y="1229"/>
      <point x="519" y="1227" type="curve" smooth="yes"/>
      <point x="510" y="1224"/>
      <point x="509" y="1228"/>
      <point x="511" y="1234" type="curve" smooth="yes"/>
      <point x="520" y="1262" type="line" smooth="yes"/>
      <point x="522" y="1268"/>
      <point x="525" y="1268"/>
      <point x="531" y="1267" type="curve" smooth="yes"/>
      <point x="538" y="1266"/>
      <point x="547" y="1265"/>
      <point x="555" y="1265" type="curve" smooth="yes"/>
      <point x="591" y="1265"/>
      <point x="619" y="1282"/>
      <point x="638" y="1299" type="curve" smooth="yes"/>
      <point x="644" y="1305"/>
      <point x="647" y="1309"/>
      <point x="647" y="1313" type="curve" smooth="yes"/>
      <point x="647" y="1316"/>
      <point x="644" y="1319"/>
      <point x="641" y="1319" type="curve"/>
      <point x="639" y="1319"/>
      <point x="634" y="1317"/>
      <point x="626" y="1314" type="curve"/>
      <point x="613" y="1311"/>
      <point x="598" y="1309"/>
      <point x="580" y="1309" type="curve" smooth="yes"/>
      <point x="563" y="1309"/>
      <point x="550" y="1311"/>
      <point x="543" y="1313" type="curve" smooth="yes"/>
      <point x="534" y="1316"/>
      <point x="531" y="1317"/>
      <point x="526" y="1317" type="curve" smooth="yes"/>
      <point x="519" y="1317"/>
      <point x="515" y="1313"/>
      <point x="513" y="1306" type="curve" smooth="yes"/>
      <point x="479" y="1207" type="line" smooth="yes"/>
      <point x="477" y="1201"/>
      <point x="476" y="1199"/>
      <point x="476" y="1195" type="curve" smooth="yes"/>
      <point x="476" y="1189"/>
      <point x="480" y="1186"/>
      <point x="486" y="1186" type="curve" smooth="yes"/>
      <point x="490" y="1186"/>
      <point x="493" y="1188"/>
      <point x="498" y="1192" type="curve"/>
      <point x="503" y="1198"/>
      <point x="516" y="1211"/>
      <point x="535" y="1211" type="curve" smooth="yes"/>
      <point x="556" y="1211"/>
      <point x="563" y="1197"/>
      <point x="563" y="1179" type="curve" smooth="yes"/>
      <point x="563" y="1149"/>
      <point x="544" y="1099"/>
      <point x="503" y="1099" type="curve" smooth="yes"/>
      <point x="491" y="1099"/>
      <point x="481" y="1104"/>
      <point x="481" y="1110" type="curve" smooth="yes"/>
      <point x="481" y="1114"/>
      <point x="484" y="1115"/>
      <point x="489" y="1118" type="curve" smooth="yes"/>
      <point x="496" y="1121"/>
      <point x="505" y="1128"/>
      <point x="505" y="1144" type="curve" smooth="yes"/>
      <point x="505" y="1159"/>
      <point x="494" y="1167"/>
      <point x="481" y="1167" type="curve" smooth="yes" name="hr04"/>
      <point x="464" y="1167"/>
      <point x="451" y="1151"/>
      <point x="451" y="1131" type="curve" smooth="yes"/>
      <point x="451" y="1106"/>
      <point x="471" y="1083"/>
    </contour>
    <contour>
      <point x="323" y="1088" type="curve" smooth="yes"/>
      <point x="426" y="1088" type="line" smooth="yes"/>
      <point x="433" y="1088"/>
      <point x="436" y="1092"/>
      <point x="436" y="1097" type="curve" smooth="yes"/>
      <point x="436" y="1102" name="hr05"/>
      <point x="433" y="1105"/>
      <point x="427" y="1105" type="curve"/>
      <point x="406" y="1107" type="line"/>
      <point x="402" y="1108"/>
      <point x="403" y="1111"/>
      <point x="404" y="1116" type="curve"/>
      <point x="464" y="1305" type="line" smooth="yes"/>
      <point x="465" y="1308"/>
      <point x="465" y="1310"/>
      <point x="465" y="1312" type="curve"/>
      <point x="465" y="1315"/>
      <point x="463" y="1318"/>
      <point x="459" y="1318" type="curve" smooth="yes"/>
      <point x="453" y="1318"/>
      <point x="445" y="1312"/>
      <point x="438" y="1312" type="curve" smooth="yes"/>
      <point x="431" y="1312"/>
      <point x="427" y="1318"/>
      <point x="419" y="1318" type="curve" smooth="yes"/>
      <point x="415" y="1318"/>
      <point x="413" y="1316"/>
      <point x="410" y="1313" type="curve" smooth="yes"/>
      <point x="344" y="1239" type="line" smooth="yes"/>
      <point x="341" y="1235"/>
      <point x="339" y="1232"/>
      <point x="339" y="1228" type="curve" smooth="yes"/>
      <point x="339" y="1224"/>
      <point x="344" y="1219"/>
      <point x="349" y="1219" type="curve" smooth="yes"/>
      <point x="354" y="1219"/>
      <point x="357" y="1222"/>
      <point x="360" y="1226" type="curve" smooth="yes"/>
      <point x="383" y="1251" type="line" smooth="yes"/>
      <point x="386" y="1255"/>
      <point x="388" y="1256"/>
      <point x="391" y="1256" type="curve"/>
      <point x="393" y="1256"/>
      <point x="394" y="1255"/>
      <point x="394" y="1252" type="curve"/>
      <point x="394" y="1250"/>
      <point x="394" y="1248"/>
      <point x="393" y="1245" type="curve" smooth="yes"/>
      <point x="351" y="1114" type="line" smooth="yes"/>
      <point x="349" y="1109"/>
      <point x="349" y="1108"/>
      <point x="343" y="1107" type="curve" smooth="yes"/>
      <point x="322" y="1105" type="line"/>
      <point x="316" y="1105"/>
      <point x="313" y="1102"/>
      <point x="313" y="1097" type="curve" smooth="yes"/>
      <point x="313" y="1092"/>
      <point x="316" y="1088"/>
    </contour>
  </outline>
</glyph>
<glyph name="uniE055" format="2">
  <advance width="1044"/>
  <unicode hex="E055"/>
  <note>
{'classes': ['clefs', 'clefsG'], 'name': 'gClef8vbOld', 'description': 'G clef ottava bassa (old style)'}
</note>
  <outline>
    <contour>
      <point x="0" y="87" type="curve" smooth="yes"/>
      <point x="0" y="-87"/>
      <point x="119" y="-252"/>
      <point x="364" y="-252" type="curve" smooth="yes"/>
      <point x="387" y="-252"/>
      <point x="413" y="-250"/>
      <point x="433" y="-246" type="curve" smooth="yes"/>
      <point x="444" y="-244"/>
      <point x="446" y="-243"/>
      <point x="448" y="-255" type="curve" smooth="yes"/>
      <point x="460" y="-322"/>
      <point x="475" y="-409"/>
      <point x="475" y="-456" type="curve" smooth="yes"/>
      <point x="475" y="-604"/>
      <point x="375" y="-622"/>
      <point x="316" y="-622" type="curve" smooth="yes"/>
      <point x="262" y="-622"/>
      <point x="236" y="-606"/>
      <point x="236" y="-593" type="curve" smooth="yes"/>
      <point x="236" y="-586"/>
      <point x="245" y="-583"/>
      <point x="268" y="-576" type="curve" smooth="yes"/>
      <point x="299" y="-567"/>
      <point x="335" y="-540" name="hr01"/>
      <point x="335" y="-482" type="curve" smooth="yes"/>
      <point x="335" y="-427"/>
      <point x="300" y="-380"/>
      <point x="239" y="-380" type="curve" smooth="yes"/>
      <point x="172" y="-380"/>
      <point x="132" y="-433"/>
      <point x="132" y="-495" type="curve" smooth="yes"/>
      <point x="132" y="-560"/>
      <point x="171" y="-658"/>
      <point x="322" y="-658" type="curve" smooth="yes"/>
      <point x="378" y="-658"/>
      <point x="477" y="-637"/>
      <point x="509" y="-531" type="curve"/>
      <point x="522" y="-591"/>
      <point x="570" y="-658"/>
      <point x="695" y="-658" type="curve" smooth="yes"/>
      <point x="762" y="-658"/>
      <point x="892" y="-628"/>
      <point x="892" y="-458" type="curve" smooth="yes"/>
      <point x="892" y="-401"/>
      <point x="874" y="-306"/>
      <point x="863" y="-244" type="curve" smooth="yes"/>
      <point x="861" y="-232"/>
      <point x="862" y="-233"/>
      <point x="876" y="-227" type="curve" smooth="yes"/>
      <point x="977" y="-187"/>
      <point x="1044" y="-102"/>
      <point x="1044" y="11" type="curve" smooth="yes"/>
      <point x="1044" y="139"/>
      <point x="950" y="252"/>
      <point x="803" y="252" type="curve" smooth="yes"/>
      <point x="777" y="252"/>
      <point x="777" y="252"/>
      <point x="774" y="270" type="curve" smooth="yes"/>
      <point x="749" y="415" type="line" smooth="yes"/>
      <point x="747" y="427"/>
      <point x="749" y="428"/>
      <point x="755" y="434" type="curve" smooth="yes"/>
      <point x="863" y="535"/>
      <point x="945" y="662"/>
      <point x="945" y="815" type="curve" smooth="yes"/>
      <point x="945" y="902"/>
      <point x="921" y="988"/>
      <point x="880" y="1048" type="curve" smooth="yes"/>
      <point x="865" y="1070"/>
      <point x="839" y="1098"/>
      <point x="828" y="1098" type="curve" smooth="yes"/>
      <point x="814" y="1098"/>
      <point x="783" y="1072"/>
      <point x="763" y="1050" type="curve" smooth="yes"/>
      <point x="689" y="968"/>
      <point x="665" y="843"/>
      <point x="665" y="739" type="curve" smooth="yes"/>
      <point x="665" y="681"/>
      <point x="672" y="616"/>
      <point x="679" y="575" type="curve" smooth="yes"/>
      <point x="681" y="563"/>
      <point x="682" y="561"/>
      <point x="670" y="551" type="curve" smooth="yes"/>
      <point x="570" y="468"/>
      <point x="463" y="373"/>
      <point x="409" y="251" type="curve"/>
      <point x="403" y="252"/>
      <point x="403" y="256"/>
      <point x="401" y="270" type="curve" smooth="yes"/>
      <point x="376" y="415" type="line" smooth="yes"/>
      <point x="374" y="427"/>
      <point x="376" y="428"/>
      <point x="382" y="434" type="curve" smooth="yes"/>
      <point x="490" y="535"/>
      <point x="572" y="662"/>
      <point x="572" y="815" type="curve" smooth="yes"/>
      <point x="572" y="902"/>
      <point x="548" y="988"/>
      <point x="507" y="1048" type="curve" smooth="yes"/>
      <point x="492" y="1070"/>
      <point x="466" y="1098"/>
      <point x="455" y="1098" type="curve" smooth="yes"/>
      <point x="441" y="1098"/>
      <point x="410" y="1072"/>
      <point x="390" y="1050" type="curve" smooth="yes"/>
      <point x="316" y="968"/>
      <point x="292" y="843" name="hr02"/>
      <point x="292" y="739" type="curve" smooth="yes"/>
      <point x="292" y="681"/>
      <point x="299" y="616"/>
      <point x="306" y="575" type="curve" smooth="yes"/>
      <point x="308" y="563"/>
      <point x="309" y="561"/>
      <point x="297" y="551" type="curve" smooth="yes"/>
      <point x="153" y="432"/>
      <point x="0" y="289"/>
    </contour>
    <contour>
      <point x="173" y="252" type="curve" smooth="yes"/>
      <point x="233" y="319"/>
      <point x="279" y="356"/>
      <point x="326" y="394" type="curve" smooth="yes"/>
      <point x="336" y="402"/>
      <point x="338" y="401"/>
      <point x="340" y="390" type="curve" smooth="yes"/>
      <point x="361" y="262" type="line" smooth="yes"/>
      <point x="364" y="243"/>
      <point x="364" y="244"/>
      <point x="346" y="238" type="curve" smooth="yes"/>
      <point x="258" y="208"/>
      <point x="201" y="129"/>
      <point x="201" y="44" type="curve" smooth="yes"/>
      <point x="201" y="-46"/>
      <point x="248" y="-110"/>
      <point x="316" y="-133" type="curve" smooth="yes"/>
      <point x="324" y="-136"/>
      <point x="336" y="-139"/>
      <point x="343" y="-139" type="curve" smooth="yes"/>
      <point x="351" y="-139"/>
      <point x="355" y="-134"/>
      <point x="355" y="-128" type="curve" smooth="yes"/>
      <point x="355" y="-121"/>
      <point x="347" y="-118"/>
      <point x="340" y="-115" type="curve" smooth="yes"/>
      <point x="298" y="-97"/>
      <point x="268" y="-54"/>
      <point x="268" y="-8" type="curve" smooth="yes"/>
      <point x="268" y="49"/>
      <point x="307" y="92"/>
      <point x="368" y="109" type="curve"/>
      <point x="370" y="109"/>
      <point x="372" y="110"/>
      <point x="373" y="110" type="curve"/>
      <point x="373" y="87" type="line" smooth="yes"/>
      <point x="373" y="24"/>
      <point x="388" y="-37"/>
      <point x="420" y="-91" type="curve"/>
      <point x="438" y="-197" type="line" smooth="yes"/>
      <point x="440" y="-208"/>
      <point x="439" y="-208"/>
      <point x="424" y="-211" type="curve" smooth="yes"/>
      <point x="408" y="-214"/>
      <point x="388" y="-216"/>
      <point x="368" y="-216" type="curve" smooth="yes"/>
      <point x="193" y="-216"/>
      <point x="80" y="-119"/>
      <point x="80" y="20" type="curve" smooth="yes"/>
      <point x="80" y="79"/>
      <point x="90" y="158"/>
    </contour>
    <contour>
      <point x="503" y="-227" type="curve" smooth="yes"/>
      <point x="517" y="-221"/>
      <point x="530" y="-215"/>
      <point x="543" y="-207" type="curve"/>
      <point x="595" y="-235"/>
      <point x="660" y="-252"/>
      <point x="737" y="-252" type="curve" smooth="yes"/>
      <point x="760" y="-252"/>
      <point x="786" y="-250"/>
      <point x="806" y="-246" type="curve" smooth="yes"/>
      <point x="817" y="-244"/>
      <point x="819" y="-243"/>
      <point x="821" y="-255" type="curve" smooth="yes"/>
      <point x="833" y="-322"/>
      <point x="848" y="-409"/>
      <point x="848" y="-456" type="curve" smooth="yes"/>
      <point x="848" y="-604"/>
      <point x="748" y="-622"/>
      <point x="689" y="-622" type="curve" smooth="yes"/>
      <point x="635" y="-622"/>
      <point x="609" y="-606"/>
      <point x="609" y="-593" type="curve" smooth="yes"/>
      <point x="609" y="-586"/>
      <point x="618" y="-583"/>
      <point x="641" y="-576" type="curve" smooth="yes"/>
      <point x="672" y="-567"/>
      <point x="708" y="-540"/>
      <point x="708" y="-482" type="curve" smooth="yes"/>
      <point x="708" y="-427"/>
      <point x="673" y="-380"/>
      <point x="612" y="-380" type="curve" smooth="yes"/>
      <point x="568" y="-380"/>
      <point x="535" y="-403"/>
      <point x="518" y="-436" type="curve"/>
      <point x="515" y="-379"/>
      <point x="499" y="-298"/>
      <point x="490" y="-244" type="curve" smooth="yes"/>
      <point x="488" y="-232"/>
      <point x="489" y="-233"/>
    </contour>
    <contour>
      <point x="337" y="691" type="curve" smooth="yes"/>
      <point x="337" y="847"/>
      <point x="409" y="943"/>
      <point x="470" y="943" type="curve" smooth="yes"/>
      <point x="503" y="943"/>
      <point x="530" y="916"/>
      <point x="530" y="861" type="curve" smooth="yes"/>
      <point x="530" y="750"/>
      <point x="435" y="660"/>
      <point x="356" y="591" type="curve" smooth="yes"/>
      <point x="349" y="585"/>
      <point x="345" y="586"/>
      <point x="343" y="599" type="curve" smooth="yes"/>
      <point x="339" y="625"/>
      <point x="337" y="659"/>
    </contour>
    <contour>
      <point x="710" y="691" type="curve" smooth="yes"/>
      <point x="710" y="847"/>
      <point x="782" y="943"/>
      <point x="843" y="943" type="curve" smooth="yes"/>
      <point x="876" y="943"/>
      <point x="903" y="916"/>
      <point x="903" y="861" type="curve" smooth="yes"/>
      <point x="903" y="750"/>
      <point x="808" y="660"/>
      <point x="729" y="591" type="curve" smooth="yes"/>
      <point x="722" y="585"/>
      <point x="718" y="586"/>
      <point x="716" y="599" type="curve" smooth="yes"/>
      <point x="712" y="625"/>
      <point x="710" y="659"/>
    </contour>
    <contour>
      <point x="642" y="-108" type="curve"/>
      <point x="658" y="-121"/>
      <point x="694" y="-139"/>
      <point x="716" y="-139" type="curve" smooth="yes"/>
      <point x="724" y="-139"/>
      <point x="728" y="-134"/>
      <point x="728" y="-128" type="curve" smooth="yes"/>
      <point x="728" y="-121"/>
      <point x="720" y="-118"/>
      <point x="713" y="-115" type="curve" smooth="yes"/>
      <point x="690" y="-105"/>
      <point x="672" y="-89"/>
      <point x="659" y="-68" type="curve"/>
      <point x="667" y="-44"/>
      <point x="671" y="-17"/>
      <point x="671" y="11" type="curve" smooth="yes"/>
      <point x="671" y="28"/>
      <point x="669" y="46"/>
      <point x="666" y="63" type="curve"/>
      <point x="683" y="84" name="hr03"/>
      <point x="709" y="100"/>
      <point x="741" y="109" type="curve" smooth="yes"/>
      <point x="757" y="113"/>
      <point x="759" y="112"/>
      <point x="761" y="101" type="curve" smooth="yes"/>
      <point x="811" y="-197" type="line" smooth="yes"/>
      <point x="813" y="-208"/>
      <point x="812" y="-208"/>
      <point x="797" y="-211" type="curve" smooth="yes"/>
      <point x="781" y="-214"/>
      <point x="761" y="-216"/>
      <point x="741" y="-216" type="curve" smooth="yes"/>
      <point x="679" y="-216"/>
      <point x="625" y="-203"/>
      <point x="581" y="-182" type="curve"/>
      <point x="606" y="-161"/>
      <point x="627" y="-136"/>
    </contour>
    <contour>
      <point x="814" y="117" type="curve" smooth="yes"/>
      <point x="895" y="110"/>
      <point x="962" y="42"/>
      <point x="962" y="-46" type="curve" smooth="yes"/>
      <point x="962" y="-109"/>
      <point x="924" y="-160"/>
      <point x="868" y="-188" type="curve" smooth="yes"/>
      <point x="856" y="-194"/>
      <point x="854" y="-194"/>
      <point x="852" y="-182" type="curve" smooth="yes"/>
      <point x="803" y="103" type="line" smooth="yes"/>
      <point x="801" y="115"/>
      <point x="802" y="118"/>
    </contour>
    <contour>
      <point x="453" y="20" type="curve" smooth="yes"/>
      <point x="453" y="47"/>
      <point x="455" y="78"/>
      <point x="465" y="113" type="curve"/>
      <point x="514" y="101"/>
      <point x="555" y="67"/>
      <point x="575" y="20" type="curve"/>
      <point x="577" y="0"/>
      <point x="582" y="-20"/>
      <point x="589" y="-37" type="curve"/>
      <point x="589" y="-46" type="line" smooth="yes"/>
      <point x="589" y="-90"/>
      <point x="570" y="-128"/>
      <point x="540" y="-157" type="curve"/>
      <point x="484" y="-115"/>
      <point x="453" y="-53"/>
    </contour>
    <contour>
      <point x="529" y="232" type="curve"/>
      <point x="534" y="239"/>
      <point x="540" y="245"/>
      <point x="546" y="252" type="curve" smooth="yes"/>
      <point x="606" y="319"/>
      <point x="652" y="356"/>
      <point x="699" y="394" type="curve" smooth="yes"/>
      <point x="709" y="402"/>
      <point x="711" y="401"/>
      <point x="713" y="390" type="curve" smooth="yes"/>
      <point x="734" y="262" type="line" smooth="yes"/>
      <point x="737" y="243"/>
      <point x="737" y="244"/>
      <point x="719" y="238" type="curve" smooth="yes"/>
      <point x="677" y="223"/>
      <point x="642" y="198"/>
      <point x="617" y="166" type="curve"/>
      <point x="594" y="194"/>
      <point x="565" y="217"/>
    </contour>
    <contour>
      <point x="475" y="-159" type="line"/>
      <point x="484" y="-168"/>
      <point x="493" y="-176"/>
      <point x="503" y="-183" type="curve"/>
      <point x="495" y="-188" type="line"/>
      <point x="483" y="-194"/>
      <point x="481" y="-194"/>
      <point x="479" y="-182" type="curve" smooth="yes"/>
    </contour>
  </outline>
</glyph>
<glyph name="uniE057" format="2">
  <advance width="664"/>
  <unicode hex="E057"/>
  <note>
{'classes': ['clefs', 'clefsG'], 'name': 'gClef8vbParens', 'description': 'G clef, optionally ottava bassa'}
</note>
  <outline>
    <contour>
      <point x="1" y="103" type="curve" smooth="yes"/>
      <point x="1" y="-122"/>
      <point x="161" y="-244"/>
      <point x="376" y="-244" type="curve" smooth="yes"/>
      <point x="397" y="-244"/>
      <point x="418" y="-242"/>
      <point x="438" y="-240" type="curve"/>
      <point x="444" y="-240" type="line"/>
      <point x="466" y="-376" type="line" smooth="yes"/>
      <point x="470" y="-401"/>
      <point x="472" y="-423"/>
      <point x="472" y="-443" type="curve" smooth="yes"/>
      <point x="472" y="-607"/>
      <point x="349" y="-609"/>
      <point x="337" y="-609" type="curve" smooth="yes"/>
      <point x="321" y="-609" type="line" smooth="yes"/>
      <point x="288" y="-609"/>
      <point x="259" y="-604"/>
      <point x="238" y="-589" type="curve" smooth="yes"/>
      <point x="232" y="-584"/>
      <point x="230" y="-581"/>
      <point x="230" y="-578" type="curve" smooth="yes"/>
      <point x="230" y="-575"/>
      <point x="233" y="-572"/>
      <point x="238" y="-571" type="curve" smooth="yes"/>
      <point x="247" y="-569"/>
      <point x="254" y="-569"/>
      <point x="262" y="-564" type="curve"/>
      <point x="303" y="-550"/>
      <point x="331" y="-514"/>
      <point x="331" y="-469" type="curve" smooth="yes"/>
      <point x="331" y="-464" type="line"/>
      <point x="327" y="-413"/>
      <point x="284" y="-370"/>
      <point x="232" y="-370" type="curve" smooth="yes"/>
      <point x="225" y="-370" type="line"/>
      <point x="177" y="-372"/>
      <point x="140" y="-407"/>
      <point x="133" y="-453" type="curve"/>
      <point x="132" y="-453"/>
      <point x="129" y="-466"/>
      <point x="129" y="-486" type="curve" smooth="yes"/>
      <point x="129" y="-528"/>
      <point x="143" y="-599"/>
      <point x="224" y="-631" type="curve"/>
      <point x="172" y="-664"/>
      <point x="148" y="-708" name="hr01"/>
      <point x="148" y="-761" type="curve" smooth="yes"/>
      <point x="148" y="-816"/>
      <point x="174" y="-864"/>
      <point x="235" y="-898" type="curve"/>
      <point x="236" y="-898" type="line"/>
      <point x="236" y="-898"/>
      <point x="237" y="-897"/>
      <point x="237" y="-896" type="curve"/>
      <point x="237" y="-889" type="line"/>
      <point x="237" y="-887"/>
      <point x="236" y="-886"/>
      <point x="235" y="-886" type="curve"/>
      <point x="200" y="-858"/>
      <point x="186" y="-822"/>
      <point x="186" y="-761" type="curve" smooth="yes"/>
      <point x="186" y="-700"/>
      <point x="199" y="-664"/>
      <point x="235" y="-637" type="curve"/>
      <point x="235" y="-637"/>
      <point x="236" y="-636"/>
      <point x="236" y="-635" type="curve"/>
      <point x="249" y="-640"/>
      <point x="264" y="-643"/>
      <point x="280" y="-645" type="curve"/>
      <point x="266" y="-656"/>
      <point x="258" y="-672"/>
      <point x="258" y="-688" type="curve" smooth="yes"/>
      <point x="258" y="-701"/>
      <point x="263" y="-714"/>
      <point x="274" y="-726" type="curve"/>
      <point x="275" y="-727"/>
      <point x="276" y="-729"/>
      <point x="276" y="-731" type="curve"/>
      <point x="276" y="-733"/>
      <point x="274" y="-735"/>
      <point x="270" y="-736" type="curve" smooth="yes"/>
      <point x="246" y="-743"/>
      <point x="221" y="-773"/>
      <point x="221" y="-800" type="curve" smooth="yes"/>
      <point x="221" y="-803"/>
      <point x="221" y="-806"/>
      <point x="222" y="-809" type="curve" smooth="yes"/>
      <point x="231" y="-845"/>
      <point x="276" y="-865"/>
      <point x="308" y="-865" type="curve" smooth="yes"/>
      <point x="351" y="-865"/>
      <point x="392" y="-847"/>
      <point x="392" y="-797" type="curve" smooth="yes"/>
      <point x="392" y="-786"/>
      <point x="389" y="-775"/>
      <point x="383" y="-764" type="curve" name="hr02"/>
      <point x="381" y="-758"/>
      <point x="379" y="-753"/>
      <point x="379" y="-749" type="curve" smooth="yes"/>
      <point x="379" y="-744"/>
      <point x="381" y="-740"/>
      <point x="387" y="-736" type="curve"/>
      <point x="396" y="-726"/>
      <point x="417" y="-720"/>
      <point x="417" y="-688" type="curve" smooth="yes"/>
      <point x="417" y="-663"/>
      <point x="399" y="-647"/>
      <point x="378" y="-640" type="curve"/>
      <point x="389" y="-637"/>
      <point x="400" y="-633"/>
      <point x="411" y="-628" type="curve"/>
      <point x="411" y="-635" type="line"/>
      <point x="411" y="-635"/>
      <point x="411" y="-638"/>
      <point x="413" y="-639" type="curve" smooth="yes"/>
      <point x="449" y="-666"/>
      <point x="462" y="-703"/>
      <point x="462" y="-763" type="curve" smooth="yes"/>
      <point x="462" y="-823"/>
      <point x="448" y="-859"/>
      <point x="413" y="-887" type="curve"/>
      <point x="412" y="-888"/>
      <point x="411" y="-889"/>
      <point x="411" y="-891" type="curve"/>
      <point x="411" y="-898" type="line"/>
      <point x="412" y="-900" type="line"/>
      <point x="474" y="-866"/>
      <point x="500" y="-818"/>
      <point x="500" y="-763" type="curve" smooth="yes"/>
      <point x="500" y="-707"/>
      <point x="473" y="-660"/>
      <point x="413" y="-627" type="curve"/>
      <point x="467" y="-602"/>
      <point x="516" y="-548" name="hr03"/>
      <point x="516" y="-444" type="curve" smooth="yes"/>
      <point x="516" y="-422"/>
      <point x="514" y="-398"/>
      <point x="509" y="-372" type="curve"/>
      <point x="486" y="-226" type="line"/>
      <point x="596" y="-183"/>
      <point x="666" y="-93"/>
      <point x="666" y="17" type="curve" smooth="yes"/>
      <point x="666" y="33" type="line"/>
      <point x="659" y="161"/>
      <point x="552" y="261"/>
      <point x="426" y="261" type="curve" smooth="yes"/>
      <point x="415" y="261" type="line" smooth="yes"/>
      <point x="409" y="261"/>
      <point x="405" y="261"/>
      <point x="401" y="259" type="curve"/>
      <point x="390" y="323"/>
      <point x="378" y="374"/>
      <point x="370" y="428" type="curve"/>
      <point x="502" y="552"/>
      <point x="569" y="681"/>
      <point x="569" y="816" type="curve" smooth="yes"/>
      <point x="569" y="879"/>
      <point x="554" y="943"/>
      <point x="526" y="1008" type="curve" smooth="yes"/>
      <point x="489" y="1094"/>
      <point x="452" y="1101"/>
      <point x="452" y="1101" type="curve"/>
      <point x="355" y="1059"/>
      <point x="292" y="911"/>
      <point x="292" y="732" type="curve" smooth="yes"/>
      <point x="292" y="699"/>
      <point x="294" y="664"/>
      <point x="299" y="629" type="curve" smooth="yes"/>
      <point x="308" y="566" type="line"/>
      <point x="164" y="441"/>
      <point x="1" y="296"/>
    </contour>
    <contour>
      <point x="80" y="15" type="curve"/>
      <point x="80" y="25" type="line" smooth="yes"/>
      <point x="80" y="190"/>
      <point x="206" y="312"/>
      <point x="335" y="406" type="curve"/>
      <point x="360" y="251" type="line"/>
      <point x="270" y="225"/>
      <point x="201" y="139"/>
      <point x="201" y="50" type="curve" smooth="yes"/>
      <point x="201" y="-19"/>
      <point x="247" y="-101"/>
      <point x="313" y="-125" type="curve"/>
      <point x="321" y="-127"/>
      <point x="328" y="-128"/>
      <point x="333" y="-128" type="curve" smooth="yes"/>
      <point x="342" y="-128"/>
      <point x="346" y="-125"/>
      <point x="346" y="-120" type="curve" smooth="yes"/>
      <point x="346" y="-114"/>
      <point x="340" y="-106"/>
      <point x="331" y="-102" type="curve" smooth="yes"/>
      <point x="311" y="-94"/>
      <point x="268" y="-44"/>
      <point x="265" y="-4" type="curve"/>
      <point x="265" y="6" type="line" smooth="yes"/>
      <point x="265" y="74"/>
      <point x="316" y="107"/>
      <point x="383" y="118" type="curve"/>
      <point x="436" y="-199" type="line"/>
      <point x="421" y="-204"/>
      <point x="398" y="-207"/>
      <point x="370" y="-207" type="curve" smooth="yes"/>
      <point x="261" y="-207"/>
      <point x="85" y="-159"/>
    </contour>
    <contour>
      <point x="331" y="676" type="curve" smooth="yes"/>
      <point x="331" y="778"/>
      <point x="381" y="939"/>
      <point x="460" y="944" type="curve"/>
      <point x="493" y="944"/>
      <point x="524" y="917"/>
      <point x="524" y="863" type="curve" smooth="yes"/>
      <point x="524" y="756"/>
      <point x="421" y="654"/>
      <point x="343" y="595" type="curve"/>
      <point x="337" y="619"/>
      <point x="333" y="638" name="hr04"/>
      <point x="333" y="644" type="curve"/>
      <point x="332" y="654"/>
      <point x="331" y="664"/>
    </contour>
    <contour>
      <point x="427" y="122" type="line" smooth="yes"/>
      <point x="509" y="122"/>
      <point x="580" y="57"/>
      <point x="584" y="-26" type="curve"/>
      <point x="584" y="-37" type="line" smooth="yes"/>
      <point x="584" y="-107"/>
      <point x="547" y="-158"/>
      <point x="479" y="-187" type="curve"/>
      <point x="463" y="-98"/>
      <point x="444" y="10"/>
      <point x="423" y="122" type="curve"/>
    </contour>
    <contour>
      <point x="268" y="-768" type="curve"/>
      <point x="268" y="-764"/>
      <point x="270" y="-762"/>
      <point x="272" y="-760" type="curve" smooth="yes"/>
      <point x="276" y="-758"/>
      <point x="280" y="-752"/>
      <point x="287" y="-752" type="curve" smooth="yes"/>
      <point x="292" y="-752"/>
      <point x="297" y="-758"/>
      <point x="301" y="-760" type="curve"/>
      <point x="304" y="-764" name="hr05"/>
      <point x="311" y="-768"/>
      <point x="316" y="-773" type="curve" smooth="yes"/>
      <point x="327" y="-782" name="hr06"/>
      <point x="335" y="-793"/>
      <point x="341" y="-807" type="curve" smooth="yes"/>
      <point x="343" y="-811"/>
      <point x="343" y="-816"/>
      <point x="343" y="-820" type="curve" smooth="yes"/>
      <point x="343" y="-836"/>
      <point x="327" y="-854"/>
      <point x="308" y="-854" type="curve" smooth="yes"/>
      <point x="289" y="-854"/>
      <point x="264" y="-836"/>
      <point x="258" y="-805" type="curve"/>
      <point x="258" y="-803"/>
      <point x="257" y="-800"/>
      <point x="257" y="-798" type="curve"/>
      <point x="257" y="-787"/>
      <point x="261" y="-775"/>
    </contour>
    <contour>
      <point x="304" y="-669" type="curve"/>
      <point x="306" y="-653"/>
      <point x="320" y="-647"/>
      <point x="335" y="-645" type="curve"/>
      <point x="349" y="-645"/>
      <point x="364" y="-651"/>
      <point x="374" y="-661" type="curve"/>
      <point x="379" y="-664"/>
      <point x="383" y="-674"/>
      <point x="383" y="-683" type="curve" smooth="yes"/>
      <point x="383" y="-690" type="line"/>
      <point x="381" y="-704"/>
      <point x="376" y="-729" name="hr07"/>
      <point x="360" y="-729" type="curve" smooth="yes"/>
      <point x="356" y="-729"/>
      <point x="352" y="-727"/>
      <point x="347" y="-724" type="curve" smooth="yes"/>
      <point x="331" y="-715"/>
      <point x="304" y="-688"/>
    </contour>
  </outline>
</glyph>
<glyph name="uniE058" format="2">
  <advance width="692"/>
  <unicode hex="E058"/>
  <note>
{'classes': ['clefs', 'clefsG'], 'name': 'gClefLigatedNumberBelow', 'description': 'Combining G clef, number below'}
</note>
  <anchor x="263" y="-654" name="numeralBottom" color="0,0,0,0"/>
  <outline>
    <contour>
      <point x="8" y="66" type="curve"/>
      <point x="29" y="-178"/>
      <point x="218" y="-254"/>
      <point x="383" y="-254" type="curve" smooth="yes"/>
      <point x="402" y="-254"/>
      <point x="420" y="-252"/>
      <point x="439" y="-250" type="curve"/>
      <point x="449" y="-250" type="line" smooth="yes"/>
      <point x="453" y="-250"/>
      <point x="453" y="-253"/>
      <point x="472" y="-357" type="curve" smooth="yes"/>
      <point x="478" y="-390" type="line" smooth="yes"/>
      <point x="483" y="-417"/>
      <point x="485" y="-440"/>
      <point x="485" y="-462" type="curve" smooth="yes"/>
      <point x="485" y="-627"/>
      <point x="361" y="-647"/>
      <point x="349" y="-647" type="curve" smooth="yes"/>
      <point x="155" y="-647" type="line"/>
      <point x="155" y="-661" type="line"/>
      <point x="352" y="-661" type="line"/>
      <point x="424" y="-656"/>
      <point x="530" y="-611"/>
      <point x="530" y="-455" type="curve" smooth="yes"/>
      <point x="530" y="-435"/>
      <point x="528" y="-410"/>
      <point x="523" y="-385" type="curve"/>
      <point x="523" y="-385"/>
      <point x="512" y="-327"/>
      <point x="499" y="-236" type="curve"/>
      <point x="611" y="-193"/>
      <point x="682" y="-103"/>
      <point x="682" y="10" type="curve" smooth="yes"/>
      <point x="682" y="26" type="line"/>
      <point x="675" y="155"/>
      <point x="566" y="256"/>
      <point x="438" y="256" type="curve" smooth="yes"/>
      <point x="426" y="256" type="line" smooth="yes"/>
      <point x="422" y="256"/>
      <point x="417" y="256"/>
      <point x="413" y="254" type="curve"/>
      <point x="381" y="426" type="line"/>
      <point x="514" y="550"/>
      <point x="582" y="683"/>
      <point x="582" y="821" type="curve" smooth="yes"/>
      <point x="582" y="884"/>
      <point x="569" y="948"/>
      <point x="540" y="1013" type="curve" smooth="yes"/>
      <point x="501" y="1101"/>
      <point x="465" y="1108"/>
      <point x="465" y="1108" type="curve"/>
      <point x="367" y="1065"/>
      <point x="302" y="914"/>
      <point x="302" y="731" type="curve" smooth="yes"/>
      <point x="302" y="697"/>
      <point x="304" y="663"/>
      <point x="309" y="629" type="curve"/>
      <point x="320" y="566" type="line"/>
      <point x="173" y="439"/>
      <point x="6" y="290"/>
      <point x="6" y="96" type="curve" smooth="yes"/>
      <point x="6" y="87"/>
      <point x="8" y="76"/>
    </contour>
    <contour>
      <point x="87" y="8" type="curve"/>
      <point x="87" y="17" type="line" smooth="yes"/>
      <point x="87" y="184"/>
      <point x="216" y="308"/>
      <point x="347" y="403" type="curve"/>
      <point x="372" y="247" type="line"/>
      <point x="279" y="220"/>
      <point x="212" y="134"/>
      <point x="212" y="44" type="curve" smooth="yes"/>
      <point x="212" y="30"/>
      <point x="212" y="15"/>
      <point x="216" y="1" type="curve"/>
      <point x="232" y="-69"/>
      <point x="277" y="-119"/>
      <point x="325" y="-135" type="curve"/>
      <point x="334" y="-137"/>
      <point x="343" y="-139"/>
      <point x="345" y="-139" type="curve"/>
      <point x="354" y="-139"/>
      <point x="356" y="-135"/>
      <point x="356" y="-130" type="curve" smooth="yes"/>
      <point x="356" y="-123"/>
      <point x="349" y="-117"/>
      <point x="343" y="-112" type="curve"/>
      <point x="322" y="-103"/>
      <point x="277" y="-53"/>
      <point x="275" y="-13" type="curve"/>
      <point x="275" y="-4" type="line" smooth="yes"/>
      <point x="275" y="66"/>
      <point x="327" y="100"/>
      <point x="395" y="112" type="curve"/>
      <point x="449" y="-209" type="line"/>
      <point x="433" y="-214"/>
      <point x="408" y="-218"/>
      <point x="381" y="-218" type="curve" smooth="yes"/>
      <point x="270" y="-218"/>
      <point x="92" y="-168"/>
    </contour>
    <contour>
      <point x="474" y="948" type="curve"/>
      <point x="505" y="948"/>
      <point x="539" y="920"/>
      <point x="539" y="866" type="curve" smooth="yes"/>
      <point x="539" y="859"/>
      <point x="537" y="853"/>
      <point x="537" y="846" type="curve"/>
      <point x="523" y="762"/>
      <point x="462" y="676"/>
      <point x="354" y="595" type="curve"/>
      <point x="349" y="620"/>
      <point x="345" y="640"/>
      <point x="345" y="645" type="curve"/>
      <point x="343" y="656"/>
      <point x="343" y="667"/>
      <point x="343" y="679" type="curve" smooth="yes"/>
      <point x="343" y="783"/>
      <point x="392" y="943"/>
    </contour>
    <contour>
      <point x="435" y="116" type="line"/>
      <point x="523" y="116"/>
      <point x="600" y="48"/>
      <point x="600" y="-35" type="curve" smooth="yes"/>
      <point x="600" y="-114"/>
      <point x="564" y="-166"/>
      <point x="492" y="-198" type="curve"/>
    </contour>
  </outline>
</glyph>
<glyph name="uniE05A" format="2">
  <advance width="669"/>
  <unicode hex="E05A"/>
  <note>
{'classes': ['clefs', 'clefsG'], 'name': 'gClefArrowUp', 'description': 'G clef, arrow up'}
</note>
  <outline>
    <contour>
      <point x="0" y="87" type="curve" smooth="yes"/>
      <point x="0" y="-87"/>
      <point x="119" y="-252"/>
      <point x="364" y="-252" type="curve" smooth="yes"/>
      <point x="387" y="-252"/>
      <point x="413" y="-250"/>
      <point x="433" y="-246" type="curve" smooth="yes"/>
      <point x="444" y="-244"/>
      <point x="446" y="-243"/>
      <point x="448" y="-255" type="curve" smooth="yes"/>
      <point x="460" y="-322"/>
      <point x="475" y="-409"/>
      <point x="475" y="-456" type="curve" smooth="yes"/>
      <point x="475" y="-604"/>
      <point x="375" y="-622"/>
      <point x="316" y="-622" type="curve" smooth="yes"/>
      <point x="262" y="-622"/>
      <point x="236" y="-606"/>
      <point x="236" y="-593" type="curve" smooth="yes"/>
      <point x="236" y="-586"/>
      <point x="245" y="-583"/>
      <point x="268" y="-576" type="curve" smooth="yes"/>
      <point x="299" y="-567"/>
      <point x="335" y="-540" name="hr01"/>
      <point x="335" y="-482" type="curve" smooth="yes"/>
      <point x="335" y="-427"/>
      <point x="300" y="-380"/>
      <point x="239" y="-380" type="curve" smooth="yes"/>
      <point x="172" y="-380"/>
      <point x="132" y="-433"/>
      <point x="132" y="-495" type="curve" smooth="yes"/>
      <point x="132" y="-560"/>
      <point x="171" y="-658"/>
      <point x="322" y="-658" type="curve" smooth="yes"/>
      <point x="389" y="-658"/>
      <point x="519" y="-628"/>
      <point x="519" y="-458" type="curve" smooth="yes"/>
      <point x="519" y="-401"/>
      <point x="501" y="-306"/>
      <point x="490" y="-244" type="curve" smooth="yes"/>
      <point x="488" y="-232"/>
      <point x="489" y="-233"/>
      <point x="503" y="-227" type="curve" smooth="yes"/>
      <point x="604" y="-187"/>
      <point x="671" y="-102"/>
      <point x="671" y="11" type="curve" smooth="yes"/>
      <point x="671" y="139"/>
      <point x="577" y="252"/>
      <point x="430" y="252" type="curve" smooth="yes"/>
      <point x="404" y="252"/>
      <point x="404" y="252"/>
      <point x="401" y="270" type="curve" smooth="yes"/>
      <point x="376" y="415" type="line" smooth="yes"/>
      <point x="374" y="427"/>
      <point x="376" y="428"/>
      <point x="382" y="434" type="curve" smooth="yes"/>
      <point x="484" y="530"/>
      <point x="562" y="641" name="hr02"/>
      <point x="562" y="787" type="curve" smooth="yes"/>
      <point x="562" y="886"/>
      <point x="525" y="944"/>
      <point x="493" y="977" type="curve" smooth="yes"/>
      <point x="485" y="985"/>
      <point x="479" y="987"/>
      <point x="475" y="987" type="curve" smooth="yes" name="hr03"/>
      <point x="471" y="987"/>
      <point x="469" y="986"/>
      <point x="467" y="984" type="curve" smooth="yes"/>
      <point x="463" y="980"/>
      <point x="463" y="973"/>
      <point x="469" y="964" type="curve" smooth="yes"/>
      <point x="480" y="949"/>
      <point x="500" y="906" name="hr04"/>
      <point x="500" y="854" type="curve" smooth="yes"/>
      <point x="500" y="727"/>
      <point x="444" y="667"/>
      <point x="356" y="591" type="curve" smooth="yes"/>
      <point x="349" y="585"/>
      <point x="345" y="586"/>
      <point x="343" y="599" type="curve"/>
      <point x="343" y="599"/>
      <point x="298" y="854"/>
      <point x="297" y="862" type="curve" smooth="yes"/>
      <point x="295" y="871"/>
      <point x="298" y="879"/>
      <point x="305" y="880" type="curve" smooth="yes"/>
      <point x="311" y="881"/>
      <point x="359" y="890"/>
      <point x="362" y="890" type="curve"/>
      <point x="370" y="892"/>
      <point x="369" y="900"/>
      <point x="367" y="905" type="curve" smooth="yes"/>
      <point x="226" y="1195" type="line"/>
      <point x="225" y="1199"/>
      <point x="223" y="1202"/>
      <point x="219" y="1201" type="curve"/>
      <point x="215" y="1201"/>
      <point x="215" y="1198"/>
      <point x="215" y="1193" type="curve"/>
      <point x="178" y="873" type="line"/>
      <point x="178" y="866" type="line"/>
      <point x="179" y="860"/>
      <point x="183" y="858"/>
      <point x="189" y="859" type="curve" smooth="yes"/>
      <point x="249" y="870" type="line" smooth="yes"/>
      <point x="253" y="871"/>
      <point x="257" y="867"/>
      <point x="259" y="856" type="curve" smooth="yes"/>
      <point x="261" y="846"/>
      <point x="306" y="575"/>
      <point x="306" y="575" type="curve"/>
      <point x="308" y="563"/>
      <point x="309" y="561"/>
      <point x="297" y="551" type="curve" smooth="yes"/>
      <point x="153" y="432"/>
      <point x="0" y="289"/>
    </contour>
    <contour>
      <point x="173" y="252" type="curve" smooth="yes"/>
      <point x="233" y="319"/>
      <point x="279" y="356"/>
      <point x="326" y="394" type="curve" smooth="yes"/>
      <point x="336" y="402"/>
      <point x="338" y="401"/>
      <point x="340" y="390" type="curve" smooth="yes"/>
      <point x="361" y="262" type="line" smooth="yes"/>
      <point x="364" y="243"/>
      <point x="364" y="244"/>
      <point x="346" y="238" type="curve" smooth="yes"/>
      <point x="258" y="208"/>
      <point x="201" y="129"/>
      <point x="201" y="44" type="curve" smooth="yes"/>
      <point x="201" y="-46"/>
      <point x="248" y="-110"/>
      <point x="316" y="-133" type="curve" smooth="yes"/>
      <point x="324" y="-136"/>
      <point x="336" y="-139"/>
      <point x="343" y="-139" type="curve" smooth="yes"/>
      <point x="351" y="-139"/>
      <point x="355" y="-134"/>
      <point x="355" y="-128" type="curve" smooth="yes"/>
      <point x="355" y="-121"/>
      <point x="347" y="-118"/>
      <point x="340" y="-115" type="curve" smooth="yes"/>
      <point x="298" y="-97"/>
      <point x="268" y="-54"/>
      <point x="268" y="-8" type="curve" smooth="yes"/>
      <point x="268" y="49"/>
      <point x="307" y="92"/>
      <point x="368" y="109" type="curve" smooth="yes"/>
      <point x="384" y="113"/>
      <point x="386" y="112"/>
      <point x="388" y="101" type="curve" smooth="yes"/>
      <point x="438" y="-197" type="line" smooth="yes"/>
      <point x="440" y="-208"/>
      <point x="439" y="-208"/>
      <point x="424" y="-211" type="curve" smooth="yes"/>
      <point x="408" y="-214"/>
      <point x="388" y="-216"/>
      <point x="368" y="-216" type="curve" smooth="yes"/>
      <point x="193" y="-216"/>
      <point x="80" y="-119"/>
      <point x="80" y="20" type="curve" smooth="yes"/>
      <point x="80" y="79"/>
      <point x="90" y="158"/>
    </contour>
    <contour>
      <point x="441" y="117" type="curve" smooth="yes"/>
      <point x="522" y="110"/>
      <point x="589" y="42"/>
      <point x="589" y="-46" type="curve" smooth="yes"/>
      <point x="589" y="-109"/>
      <point x="551" y="-160"/>
      <point x="495" y="-188" type="curve" smooth="yes"/>
      <point x="483" y="-194"/>
      <point x="481" y="-194"/>
      <point x="479" y="-182" type="curve" smooth="yes"/>
      <point x="430" y="103" type="line" smooth="yes"/>
      <point x="428" y="115"/>
      <point x="429" y="118"/>
    </contour>
  </outline>
</glyph>
<glyph name="uniE05B" format="2">
  <advance width="673"/>
  <unicode hex="E05B"/>
  <note>
{'classes': ['clefs', 'clefsG'], 'name': 'gClefArrowDown', 'description': 'G clef, arrow down'}
</note>
  <outline>
    <contour>
      <point x="364" y="-255" type="curve" smooth="yes"/>
      <point x="387" y="-255"/>
      <point x="413" y="-253"/>
      <point x="433" y="-249" type="curve" smooth="yes"/>
      <point x="444" y="-247"/>
      <point x="446" y="-246"/>
      <point x="448" y="-258" type="curve" smooth="yes"/>
      <point x="469" y="-380" type="line" smooth="yes"/>
      <point x="471" y="-392"/>
      <point x="470" y="-394"/>
      <point x="458" y="-396" type="curve" smooth="yes"/>
      <point x="406" y="-405" type="line" smooth="yes"/>
      <point x="400" y="-406"/>
      <point x="398" y="-407"/>
      <point x="399" y="-413" type="curve"/>
      <point x="399" y="-414"/>
      <point x="399" y="-416"/>
      <point x="401" y="-420" type="curve" smooth="yes"/>
      <point x="542" y="-710" type="line"/>
      <point x="543" y="-714"/>
      <point x="545" y="-717"/>
      <point x="549" y="-716" type="curve"/>
      <point x="553" y="-716"/>
      <point x="553" y="-713"/>
      <point x="553" y="-708" type="curve"/>
      <point x="590" y="-388" type="line"/>
      <point x="590" y="-381" type="line"/>
      <point x="589" y="-375"/>
      <point x="586" y="-374"/>
      <point x="580" y="-375" type="curve" smooth="yes"/>
      <point x="520" y="-385" type="line"/>
      <point x="513" y="-385"/>
      <point x="512" y="-380"/>
      <point x="510" y="-371" type="curve"/>
      <point x="490" y="-247" type="line" smooth="yes"/>
      <point x="488" y="-235"/>
      <point x="489" y="-236"/>
      <point x="503" y="-230" type="curve" smooth="yes"/>
      <point x="604" y="-190"/>
      <point x="671" y="-105"/>
      <point x="671" y="8" type="curve" smooth="yes"/>
      <point x="671" y="136"/>
      <point x="577" y="249"/>
      <point x="430" y="249" type="curve" smooth="yes"/>
      <point x="404" y="249"/>
      <point x="404" y="249"/>
      <point x="401" y="267" type="curve" smooth="yes"/>
      <point x="376" y="412" type="line" smooth="yes"/>
      <point x="374" y="424"/>
      <point x="376" y="425"/>
      <point x="382" y="431" type="curve" smooth="yes"/>
      <point x="490" y="532"/>
      <point x="572" y="659"/>
      <point x="572" y="812" type="curve" smooth="yes"/>
      <point x="572" y="899"/>
      <point x="548" y="985"/>
      <point x="507" y="1045" type="curve" smooth="yes"/>
      <point x="492" y="1067"/>
      <point x="466" y="1095"/>
      <point x="455" y="1095" type="curve" smooth="yes"/>
      <point x="441" y="1095"/>
      <point x="410" y="1069"/>
      <point x="390" y="1047" type="curve" smooth="yes"/>
      <point x="316" y="965"/>
      <point x="292" y="840"/>
      <point x="292" y="736" type="curve" smooth="yes"/>
      <point x="292" y="678"/>
      <point x="299" y="613"/>
      <point x="306" y="572" type="curve" smooth="yes"/>
      <point x="308" y="560"/>
      <point x="309" y="558"/>
      <point x="297" y="548" type="curve" smooth="yes"/>
      <point x="153" y="429"/>
      <point x="0" y="286"/>
      <point x="0" y="84" type="curve" smooth="yes"/>
      <point x="0" y="-90"/>
      <point x="119" y="-255"/>
    </contour>
    <contour>
      <point x="173" y="249" type="curve" smooth="yes"/>
      <point x="233" y="316"/>
      <point x="279" y="353"/>
      <point x="326" y="391" type="curve" smooth="yes"/>
      <point x="336" y="399"/>
      <point x="338" y="398"/>
      <point x="340" y="387" type="curve" smooth="yes"/>
      <point x="361" y="259" type="line" smooth="yes"/>
      <point x="364" y="240"/>
      <point x="364" y="241"/>
      <point x="346" y="235" type="curve" smooth="yes"/>
      <point x="258" y="205"/>
      <point x="201" y="126"/>
      <point x="201" y="41" type="curve" smooth="yes"/>
      <point x="201" y="-49"/>
      <point x="248" y="-113"/>
      <point x="316" y="-136" type="curve" smooth="yes"/>
      <point x="324" y="-139"/>
      <point x="336" y="-142"/>
      <point x="343" y="-142" type="curve" smooth="yes"/>
      <point x="351" y="-142"/>
      <point x="355" y="-137"/>
      <point x="355" y="-131" type="curve" smooth="yes"/>
      <point x="355" y="-124"/>
      <point x="347" y="-121"/>
      <point x="340" y="-118" type="curve" smooth="yes"/>
      <point x="298" y="-100"/>
      <point x="268" y="-57"/>
      <point x="268" y="-11" type="curve" smooth="yes"/>
      <point x="268" y="46"/>
      <point x="307" y="89"/>
      <point x="368" y="106" type="curve" smooth="yes"/>
      <point x="384" y="110"/>
      <point x="386" y="109"/>
      <point x="388" y="98" type="curve" smooth="yes"/>
      <point x="438" y="-200" type="line" smooth="yes"/>
      <point x="440" y="-211"/>
      <point x="439" y="-211"/>
      <point x="424" y="-214" type="curve" smooth="yes"/>
      <point x="408" y="-217"/>
      <point x="388" y="-219"/>
      <point x="368" y="-219" type="curve" smooth="yes"/>
      <point x="193" y="-219"/>
      <point x="80" y="-122"/>
      <point x="80" y="17" type="curve" smooth="yes"/>
      <point x="80" y="76"/>
      <point x="90" y="155"/>
    </contour>
    <contour>
      <point x="337" y="688" type="curve" smooth="yes"/>
      <point x="337" y="844"/>
      <point x="409" y="940"/>
      <point x="470" y="940" type="curve" smooth="yes"/>
      <point x="503" y="940"/>
      <point x="530" y="913"/>
      <point x="530" y="858" type="curve" smooth="yes"/>
      <point x="530" y="747"/>
      <point x="435" y="657"/>
      <point x="356" y="588" type="curve" smooth="yes"/>
      <point x="349" y="582"/>
      <point x="345" y="583"/>
      <point x="343" y="596" type="curve" smooth="yes"/>
      <point x="339" y="622"/>
      <point x="337" y="656"/>
    </contour>
    <contour>
      <point x="441" y="114" type="curve" smooth="yes"/>
      <point x="522" y="107"/>
      <point x="589" y="39"/>
      <point x="589" y="-49" type="curve" smooth="yes"/>
      <point x="589" y="-112"/>
      <point x="551" y="-163"/>
      <point x="495" y="-191" type="curve" smooth="yes"/>
      <point x="483" y="-197"/>
      <point x="481" y="-197"/>
      <point x="479" y="-185" type="curve" smooth="yes"/>
      <point x="430" y="100" type="line" smooth="yes"/>
      <point x="428" y="112"/>
      <point x="429" y="115"/>
    </contour>
  </outline>
</glyph>
<glyph name="uniE05D" format="2">
  <advance width="699"/>
  <unicode hex="E05D"/>
  <note>
{'classes': ['clefs', 'clefsC'], 'name': 'cClef8vb', 'description': 'C clef ottava bassa'}
</note>
  <outline>
    <contour>
      <point x="208" y="-503" type="curve"/>
      <point x="209" y="-503" type="line"/>
      <point x="223" y="-503"/>
      <point x="230" y="-496"/>
      <point x="230" y="-482" type="curve" smooth="yes"/>
      <point x="230" y="-44" type="line" smooth="yes"/>
      <point x="230" y="-36"/>
      <point x="235" y="-37"/>
      <point x="239" y="-38" type="curve" smooth="yes"/>
      <point x="265" y="-45"/>
      <point x="307" y="-71"/>
      <point x="328" y="-184" type="curve" smooth="yes"/>
      <point x="331" y="-200"/>
      <point x="337" y="-209"/>
      <point x="347" y="-209" type="curve" smooth="yes"/>
      <point x="358" y="-209"/>
      <point x="363" y="-199"/>
      <point x="368" y="-182" type="curve" smooth="yes"/>
      <point x="381" y="-138"/>
      <point x="404" y="-89"/>
      <point x="475" y="-89" type="curve" smooth="yes"/>
      <point x="540" y="-89"/>
      <point x="558" y="-153"/>
      <point x="558" y="-284" type="curve" smooth="yes"/>
      <point x="558" y="-415"/>
      <point x="535" y="-474"/>
      <point x="452" y="-474" type="curve" smooth="yes"/>
      <point x="438" y="-474"/>
      <point x="367" y="-468"/>
      <point x="367" y="-447" type="curve" smooth="yes"/>
      <point x="367" y="-442"/>
      <point x="383" y="-436"/>
      <point x="394" y="-432" type="curve" smooth="yes"/>
      <point x="414" y="-425"/>
      <point x="434" y="-405"/>
      <point x="434" y="-367" type="curve" smooth="yes"/>
      <point x="434" y="-323"/>
      <point x="405" y="-298"/>
      <point x="366" y="-298" type="curve" smooth="yes"/>
      <point x="323" y="-298"/>
      <point x="289" y="-327"/>
      <point x="289" y="-380" type="curve" smooth="yes"/>
      <point x="289" y="-443"/>
      <point x="344" y="-506"/>
      <point x="463" y="-506" type="curve" smooth="yes"/>
      <point x="627" y="-506"/>
      <point x="699" y="-391"/>
      <point x="699" y="-287" type="curve" smooth="yes"/>
      <point x="699" y="-149"/>
      <point x="623" y="-53"/>
      <point x="490" y="-53" type="curve" smooth="yes"/>
      <point x="461" y="-53"/>
      <point x="442" y="-58"/>
      <point x="429" y="-62" type="curve" smooth="yes"/>
      <point x="419" y="-65"/>
      <point x="409" y="-67"/>
      <point x="400" y="-61" type="curve" smooth="yes"/>
      <point x="386" y="-52"/>
      <point x="364" y="-20"/>
      <point x="364" y="0" type="curve" smooth="yes"/>
      <point x="364" y="20"/>
      <point x="386" y="52"/>
      <point x="400" y="61" type="curve" smooth="yes"/>
      <point x="409" y="67"/>
      <point x="419" y="65"/>
      <point x="429" y="62" type="curve" smooth="yes"/>
      <point x="442" y="58"/>
      <point x="461" y="53"/>
      <point x="490" y="53" type="curve" smooth="yes"/>
      <point x="623" y="53"/>
      <point x="699" y="149"/>
      <point x="699" y="287" type="curve" smooth="yes"/>
      <point x="699" y="391"/>
      <point x="627" y="506"/>
      <point x="463" y="506" type="curve" smooth="yes"/>
      <point x="344" y="506"/>
      <point x="289" y="443"/>
      <point x="289" y="380" type="curve" smooth="yes"/>
      <point x="289" y="327"/>
      <point x="323" y="298"/>
      <point x="366" y="298" type="curve" smooth="yes"/>
      <point x="405" y="298"/>
      <point x="434" y="323"/>
      <point x="434" y="367" type="curve" smooth="yes"/>
      <point x="434" y="405"/>
      <point x="414" y="425"/>
      <point x="394" y="432" type="curve" smooth="yes"/>
      <point x="383" y="436"/>
      <point x="367" y="442"/>
      <point x="367" y="447" type="curve" smooth="yes"/>
      <point x="367" y="468"/>
      <point x="438" y="474"/>
      <point x="452" y="474" type="curve" smooth="yes"/>
      <point x="535" y="474"/>
      <point x="558" y="415"/>
      <point x="558" y="284" type="curve" smooth="yes"/>
      <point x="558" y="153"/>
      <point x="540" y="89"/>
      <point x="475" y="89" type="curve" smooth="yes"/>
      <point x="404" y="89"/>
      <point x="381" y="138"/>
      <point x="368" y="182" type="curve" smooth="yes"/>
      <point x="363" y="199"/>
      <point x="358" y="209"/>
      <point x="347" y="209" type="curve" smooth="yes"/>
      <point x="337" y="209"/>
      <point x="331" y="200"/>
      <point x="328" y="184" type="curve" smooth="yes"/>
      <point x="307" y="71"/>
      <point x="265" y="45"/>
      <point x="239" y="38" type="curve" smooth="yes"/>
      <point x="235" y="37"/>
      <point x="230" y="36"/>
      <point x="230" y="44" type="curve" smooth="yes"/>
      <point x="230" y="482" type="line" smooth="yes"/>
      <point x="230" y="496"/>
      <point x="223" y="503"/>
      <point x="209" y="503" type="curve"/>
      <point x="208" y="503" type="line"/>
      <point x="194" y="503"/>
      <point x="187" y="496"/>
      <point x="187" y="482" type="curve" smooth="yes"/>
      <point x="187" y="-482" type="line" smooth="yes"/>
      <point x="187" y="-496"/>
      <point x="194" y="-503"/>
    </contour>
    <contour>
      <point x="0" y="-482" type="line" smooth="yes"/>
      <point x="0" y="-496"/>
      <point x="7" y="-503"/>
      <point x="21" y="-503" type="curve" smooth="yes"/>
      <point x="107" y="-503" type="line" smooth="yes"/>
      <point x="121" y="-503"/>
      <point x="128" y="-496"/>
      <point x="128" y="-482" type="curve" smooth="yes"/>
      <point x="128" y="482" type="line" smooth="yes"/>
      <point x="128" y="496"/>
      <point x="121" y="503"/>
      <point x="107" y="503" type="curve" smooth="yes"/>
      <point x="21" y="503" type="line" smooth="yes"/>
      <point x="7" y="503"/>
      <point x="0" y="496"/>
      <point x="0" y="482" type="curve" smooth="yes"/>
    </contour>
    <contour>
      <point x="224" y="-682" type="curve" smooth="yes"/>
      <point x="224" y="-715" name="hr01"/>
      <point x="248" y="-741"/>
      <point x="302" y="-741" type="curve" smooth="yes"/>
      <point x="351" y="-741"/>
      <point x="393" y="-716"/>
      <point x="393" y="-670" type="curve" smooth="yes"/>
      <point x="393" y="-652"/>
      <point x="389" y="-639"/>
      <point x="377" y="-626" type="curve" smooth="yes"/>
      <point x="370" y="-618"/>
      <point x="368" y="-616"/>
      <point x="380" y="-610" type="curve" smooth="yes"/>
      <point x="407" y="-596"/>
      <point x="417" y="-575"/>
      <point x="417" y="-557" type="curve" smooth="yes" name="hr02"/>
      <point x="417" y="-528"/>
      <point x="397" y="-505"/>
      <point x="348" y="-505" type="curve" smooth="yes"/>
      <point x="297" y="-505"/>
      <point x="262" y="-530"/>
      <point x="262" y="-572" type="curve" smooth="yes"/>
      <point x="262" y="-587"/>
      <point x="266" y="-599"/>
      <point x="274" y="-609" type="curve" smooth="yes"/>
      <point x="279" y="-616"/>
      <point x="281" y="-618"/>
      <point x="269" y="-623" type="curve" smooth="yes"/>
      <point x="237" y="-636"/>
      <point x="224" y="-658"/>
    </contour>
    <contour>
      <point x="263" y="-688" type="curve" smooth="yes" name="hr03"/>
      <point x="263" y="-672"/>
      <point x="270" y="-649"/>
      <point x="291" y="-636" type="curve" smooth="yes"/>
      <point x="296" y="-633"/>
      <point x="299" y="-634"/>
      <point x="306" y="-639" type="curve" smooth="yes"/>
      <point x="338" y="-664"/>
      <point x="346" y="-671"/>
      <point x="346" y="-686" type="curve" smooth="yes"/>
      <point x="346" y="-712"/>
      <point x="327" y="-726"/>
      <point x="303" y="-726" type="curve" smooth="yes"/>
      <point x="273" y="-726"/>
      <point x="263" y="-706"/>
    </contour>
    <contour>
      <point x="309" y="-555" type="curve" smooth="yes"/>
      <point x="309" y="-533"/>
      <point x="325" y="-520"/>
      <point x="347" y="-520" type="curve" smooth="yes" name="hr04"/>
      <point x="371" y="-520"/>
      <point x="379" y="-536"/>
      <point x="379" y="-552" type="curve" smooth="yes"/>
      <point x="379" y="-569" name="hr05"/>
      <point x="372" y="-586"/>
      <point x="355" y="-598" type="curve" smooth="yes"/>
      <point x="351" y="-601"/>
      <point x="348" y="-601"/>
      <point x="340" y="-596" type="curve"/>
      <point x="317" y="-578"/>
      <point x="309" y="-569"/>
    </contour>
  </outline>
</glyph>
<glyph name="uniE05E" format="2">
  <advance width="699"/>
  <unicode hex="E05E"/>
  <note>
{'classes': ['clefs', 'clefsC'], 'name': 'cClefArrowUp', 'description': 'C clef, arrow up'}
</note>
  <outline>
    <contour>
      <point x="208" y="-503" type="curve"/>
      <point x="209" y="-503" type="line"/>
      <point x="223" y="-503"/>
      <point x="230" y="-496"/>
      <point x="230" y="-482" type="curve" smooth="yes"/>
      <point x="230" y="-44" type="line" smooth="yes"/>
      <point x="230" y="-36"/>
      <point x="235" y="-37"/>
      <point x="239" y="-38" type="curve" smooth="yes"/>
      <point x="265" y="-45"/>
      <point x="307" y="-71"/>
      <point x="328" y="-184" type="curve" smooth="yes"/>
      <point x="331" y="-200"/>
      <point x="337" y="-209"/>
      <point x="347" y="-209" type="curve" smooth="yes"/>
      <point x="358" y="-209"/>
      <point x="363" y="-199"/>
      <point x="368" y="-182" type="curve" smooth="yes"/>
      <point x="381" y="-138"/>
      <point x="404" y="-89"/>
      <point x="475" y="-89" type="curve" smooth="yes"/>
      <point x="540" y="-89"/>
      <point x="558" y="-153"/>
      <point x="558" y="-284" type="curve" smooth="yes"/>
      <point x="558" y="-415"/>
      <point x="535" y="-474"/>
      <point x="452" y="-474" type="curve" smooth="yes"/>
      <point x="438" y="-474"/>
      <point x="367" y="-468"/>
      <point x="367" y="-447" type="curve" smooth="yes"/>
      <point x="367" y="-442"/>
      <point x="383" y="-436"/>
      <point x="394" y="-432" type="curve" smooth="yes"/>
      <point x="414" y="-425"/>
      <point x="434" y="-405"/>
      <point x="434" y="-367" type="curve" smooth="yes"/>
      <point x="434" y="-323"/>
      <point x="405" y="-298"/>
      <point x="366" y="-298" type="curve" smooth="yes"/>
      <point x="323" y="-298"/>
      <point x="289" y="-327"/>
      <point x="289" y="-380" type="curve" smooth="yes"/>
      <point x="289" y="-443"/>
      <point x="344" y="-506"/>
      <point x="463" y="-506" type="curve" smooth="yes"/>
      <point x="627" y="-506"/>
      <point x="699" y="-391"/>
      <point x="699" y="-287" type="curve" smooth="yes"/>
      <point x="699" y="-149"/>
      <point x="623" y="-53"/>
      <point x="490" y="-53" type="curve" smooth="yes"/>
      <point x="461" y="-53"/>
      <point x="442" y="-58"/>
      <point x="429" y="-62" type="curve" smooth="yes"/>
      <point x="419" y="-65"/>
      <point x="409" y="-67"/>
      <point x="400" y="-61" type="curve" smooth="yes"/>
      <point x="386" y="-52"/>
      <point x="364" y="-20"/>
      <point x="364" y="0" type="curve" smooth="yes"/>
      <point x="364" y="20"/>
      <point x="386" y="52"/>
      <point x="400" y="61" type="curve" smooth="yes"/>
      <point x="409" y="67"/>
      <point x="419" y="65"/>
      <point x="429" y="62" type="curve" smooth="yes"/>
      <point x="442" y="58"/>
      <point x="461" y="53"/>
      <point x="490" y="53" type="curve" smooth="yes"/>
      <point x="623" y="53"/>
      <point x="699" y="149"/>
      <point x="699" y="287" type="curve" smooth="yes"/>
      <point x="699" y="391"/>
      <point x="627" y="506"/>
      <point x="463" y="506" type="curve" smooth="yes"/>
      <point x="344" y="506"/>
      <point x="289" y="443"/>
      <point x="289" y="380" type="curve" smooth="yes"/>
      <point x="289" y="327"/>
      <point x="323" y="298"/>
      <point x="366" y="298" type="curve" smooth="yes"/>
      <point x="405" y="298"/>
      <point x="434" y="323"/>
      <point x="434" y="367" type="curve" smooth="yes"/>
      <point x="434" y="405"/>
      <point x="414" y="425"/>
      <point x="394" y="432" type="curve" smooth="yes"/>
      <point x="383" y="436"/>
      <point x="367" y="442"/>
      <point x="367" y="447" type="curve" smooth="yes"/>
      <point x="367" y="468"/>
      <point x="438" y="474"/>
      <point x="452" y="474" type="curve" smooth="yes"/>
      <point x="535" y="474"/>
      <point x="558" y="415"/>
      <point x="558" y="284" type="curve" smooth="yes"/>
      <point x="558" y="153"/>
      <point x="540" y="89"/>
      <point x="475" y="89" type="curve" smooth="yes"/>
      <point x="404" y="89"/>
      <point x="381" y="138"/>
      <point x="368" y="182" type="curve" smooth="yes"/>
      <point x="363" y="199"/>
      <point x="358" y="209"/>
      <point x="347" y="209" type="curve" smooth="yes"/>
      <point x="337" y="209"/>
      <point x="331" y="200"/>
      <point x="328" y="184" type="curve" smooth="yes"/>
      <point x="307" y="71"/>
      <point x="265" y="45"/>
      <point x="239" y="38" type="curve" smooth="yes"/>
      <point x="235" y="37"/>
      <point x="230" y="36"/>
      <point x="230" y="44" type="curve" smooth="yes"/>
      <point x="230" y="482" type="line" smooth="yes"/>
      <point x="230" y="496"/>
      <point x="223" y="503"/>
      <point x="209" y="503" type="curve"/>
      <point x="208" y="503" type="line"/>
      <point x="194" y="503"/>
      <point x="187" y="496"/>
      <point x="187" y="482" type="curve" smooth="yes"/>
      <point x="187" y="-482" type="line" smooth="yes"/>
      <point x="187" y="-496"/>
      <point x="194" y="-503"/>
    </contour>
    <contour>
      <point x="-20" y="580" type="curve" smooth="yes"/>
      <point x="37" y="580" type="line" smooth="yes"/>
      <point x="44" y="580"/>
      <point x="46" y="578"/>
      <point x="46" y="571" type="curve" smooth="yes"/>
      <point x="46" y="514" type="line" smooth="yes"/>
      <point x="46" y="505"/>
      <point x="44" y="503"/>
      <point x="35" y="503" type="curve" smooth="yes"/>
      <point x="21" y="503" type="line" smooth="yes"/>
      <point x="7" y="503"/>
      <point x="0" y="496"/>
      <point x="0" y="482" type="curve" smooth="yes"/>
      <point x="0" y="-482" type="line" smooth="yes"/>
      <point x="0" y="-496"/>
      <point x="7" y="-503"/>
      <point x="21" y="-503" type="curve" smooth="yes"/>
      <point x="107" y="-503" type="line" smooth="yes"/>
      <point x="121" y="-503"/>
      <point x="128" y="-496"/>
      <point x="128" y="-482" type="curve" smooth="yes"/>
      <point x="128" y="482" type="line" smooth="yes"/>
      <point x="128" y="496"/>
      <point x="121" y="503"/>
      <point x="107" y="503" type="curve" smooth="yes"/>
      <point x="93" y="503" type="line" smooth="yes"/>
      <point x="84" y="503"/>
      <point x="82" y="505"/>
      <point x="82" y="514" type="curve" smooth="yes"/>
      <point x="82" y="571" type="line" smooth="yes"/>
      <point x="82" y="578"/>
      <point x="84" y="580"/>
      <point x="91" y="580" type="curve" smooth="yes"/>
      <point x="156" y="580" type="line" smooth="yes"/>
      <point x="162" y="580"/>
      <point x="165" y="581"/>
      <point x="165" y="587" type="curve"/>
      <point x="165" y="588"/>
      <point x="165" y="590"/>
      <point x="164" y="594" type="curve" smooth="yes"/>
      <point x="74" y="904" type="line" smooth="yes"/>
      <point x="73" y="908"/>
      <point x="72" y="911"/>
      <point x="68" y="911" type="curve" smooth="yes"/>
      <point x="64" y="911"/>
      <point x="63" y="908"/>
      <point x="62" y="904" type="curve" smooth="yes"/>
      <point x="-28" y="594" type="line" smooth="yes"/>
      <point x="-29" y="590"/>
      <point x="-29" y="588"/>
      <point x="-29" y="587" type="curve"/>
      <point x="-29" y="581"/>
      <point x="-26" y="580"/>
    </contour>
  </outline>
</glyph>
<glyph name="uniE05F" format="2">
  <advance width="700"/>
  <unicode hex="E05F"/>
  <note>
{'classes': ['clefs', 'clefsC'], 'name': 'cClefArrowDown', 'description': 'C clef, arrow down'}
</note>
  <outline>
    <contour>
      <point x="187" y="482" type="curve" smooth="yes"/>
      <point x="187" y="-482" type="line" smooth="yes"/>
      <point x="187" y="-496"/>
      <point x="194" y="-503"/>
      <point x="208" y="-503" type="curve"/>
      <point x="209" y="-503" type="line"/>
      <point x="223" y="-503"/>
      <point x="230" y="-496"/>
      <point x="230" y="-482" type="curve" smooth="yes"/>
      <point x="230" y="-44" type="line" smooth="yes"/>
      <point x="230" y="-36"/>
      <point x="235" y="-37"/>
      <point x="239" y="-38" type="curve" smooth="yes"/>
      <point x="265" y="-45"/>
      <point x="307" y="-71"/>
      <point x="328" y="-184" type="curve" smooth="yes"/>
      <point x="331" y="-200"/>
      <point x="337" y="-209"/>
      <point x="347" y="-209" type="curve" smooth="yes"/>
      <point x="358" y="-209"/>
      <point x="363" y="-199"/>
      <point x="368" y="-182" type="curve" smooth="yes"/>
      <point x="381" y="-138"/>
      <point x="404" y="-89"/>
      <point x="475" y="-89" type="curve" smooth="yes"/>
      <point x="540" y="-89"/>
      <point x="558" y="-153"/>
      <point x="558" y="-284" type="curve" smooth="yes"/>
      <point x="558" y="-415"/>
      <point x="535" y="-474"/>
      <point x="452" y="-474" type="curve" smooth="yes"/>
      <point x="438" y="-474"/>
      <point x="367" y="-468"/>
      <point x="367" y="-447" type="curve" smooth="yes"/>
      <point x="367" y="-442"/>
      <point x="383" y="-436"/>
      <point x="394" y="-432" type="curve" smooth="yes"/>
      <point x="414" y="-425"/>
      <point x="434" y="-405"/>
      <point x="434" y="-367" type="curve" smooth="yes"/>
      <point x="434" y="-323"/>
      <point x="405" y="-298"/>
      <point x="366" y="-298" type="curve" smooth="yes"/>
      <point x="323" y="-298"/>
      <point x="289" y="-327"/>
      <point x="289" y="-380" type="curve" smooth="yes"/>
      <point x="289" y="-443"/>
      <point x="344" y="-506"/>
      <point x="463" y="-506" type="curve" smooth="yes"/>
      <point x="627" y="-506"/>
      <point x="699" y="-391"/>
      <point x="699" y="-287" type="curve" smooth="yes"/>
      <point x="699" y="-149"/>
      <point x="623" y="-53"/>
      <point x="490" y="-53" type="curve" smooth="yes"/>
      <point x="461" y="-53"/>
      <point x="442" y="-58"/>
      <point x="429" y="-62" type="curve" smooth="yes"/>
      <point x="419" y="-65"/>
      <point x="409" y="-67"/>
      <point x="400" y="-61" type="curve" smooth="yes"/>
      <point x="386" y="-52"/>
      <point x="364" y="-20"/>
      <point x="364" y="0" type="curve" smooth="yes"/>
      <point x="364" y="20"/>
      <point x="386" y="52"/>
      <point x="400" y="61" type="curve" smooth="yes"/>
      <point x="409" y="67"/>
      <point x="419" y="65"/>
      <point x="429" y="62" type="curve" smooth="yes"/>
      <point x="442" y="58"/>
      <point x="461" y="53"/>
      <point x="490" y="53" type="curve" smooth="yes"/>
      <point x="623" y="53"/>
      <point x="699" y="149"/>
      <point x="699" y="287" type="curve" smooth="yes"/>
      <point x="699" y="391"/>
      <point x="627" y="506"/>
      <point x="463" y="506" type="curve" smooth="yes"/>
      <point x="344" y="506"/>
      <point x="289" y="443"/>
      <point x="289" y="380" type="curve" smooth="yes"/>
      <point x="289" y="327"/>
      <point x="323" y="298"/>
      <point x="366" y="298" type="curve" smooth="yes"/>
      <point x="405" y="298"/>
      <point x="434" y="323"/>
      <point x="434" y="367" type="curve" smooth="yes"/>
      <point x="434" y="405"/>
      <point x="414" y="425"/>
      <point x="394" y="432" type="curve" smooth="yes"/>
      <point x="383" y="436"/>
      <point x="367" y="442"/>
      <point x="367" y="447" type="curve" smooth="yes"/>
      <point x="367" y="468"/>
      <point x="438" y="474"/>
      <point x="452" y="474" type="curve" smooth="yes"/>
      <point x="535" y="474"/>
      <point x="558" y="415"/>
      <point x="558" y="284" type="curve" smooth="yes"/>
      <point x="558" y="153"/>
      <point x="540" y="89"/>
      <point x="475" y="89" type="curve" smooth="yes"/>
      <point x="404" y="89"/>
      <point x="381" y="138"/>
      <point x="368" y="182" type="curve" smooth="yes"/>
      <point x="363" y="199"/>
      <point x="358" y="209"/>
      <point x="347" y="209" type="curve" smooth="yes"/>
      <point x="337" y="209"/>
      <point x="331" y="200"/>
      <point x="328" y="184" type="curve" smooth="yes"/>
      <point x="307" y="71"/>
      <point x="265" y="45"/>
      <point x="239" y="38" type="curve" smooth="yes"/>
      <point x="235" y="37"/>
      <point x="230" y="36"/>
      <point x="230" y="44" type="curve" smooth="yes"/>
      <point x="230" y="482" type="line" smooth="yes"/>
      <point x="230" y="496"/>
      <point x="223" y="503"/>
      <point x="209" y="503" type="curve"/>
      <point x="208" y="503" type="line"/>
      <point x="194" y="503"/>
      <point x="187" y="496"/>
    </contour>
    <contour>
      <point x="-32" y="-594" type="curve" smooth="yes"/>
      <point x="58" y="-904" type="line" smooth="yes"/>
      <point x="59" y="-908"/>
      <point x="60" y="-911"/>
      <point x="64" y="-911" type="curve" smooth="yes"/>
      <point x="68" y="-911"/>
      <point x="69" y="-908"/>
      <point x="70" y="-904" type="curve" smooth="yes"/>
      <point x="160" y="-594" type="line" smooth="yes"/>
      <point x="161" y="-590"/>
      <point x="161" y="-588"/>
      <point x="161" y="-587" type="curve"/>
      <point x="161" y="-581"/>
      <point x="158" y="-580"/>
      <point x="152" y="-580" type="curve" smooth="yes"/>
      <point x="91" y="-580" type="line" smooth="yes"/>
      <point x="84" y="-580"/>
      <point x="82" y="-578"/>
      <point x="82" y="-571" type="curve" smooth="yes"/>
      <point x="82" y="-514" type="line" smooth="yes"/>
      <point x="82" y="-505"/>
      <point x="84" y="-503"/>
      <point x="93" y="-503" type="curve" smooth="yes"/>
      <point x="107" y="-503" type="line" smooth="yes"/>
      <point x="121" y="-503"/>
      <point x="128" y="-496"/>
      <point x="128" y="-482" type="curve" smooth="yes"/>
      <point x="128" y="482" type="line" smooth="yes"/>
      <point x="128" y="496"/>
      <point x="121" y="503"/>
      <point x="107" y="503" type="curve" smooth="yes"/>
      <point x="21" y="503" type="line" smooth="yes"/>
      <point x="7" y="503"/>
      <point x="0" y="496"/>
      <point x="0" y="482" type="curve" smooth="yes"/>
      <point x="0" y="-482" type="line" smooth="yes"/>
      <point x="0" y="-496"/>
      <point x="7" y="-503"/>
      <point x="21" y="-503" type="curve" smooth="yes"/>
      <point x="35" y="-503" type="line" smooth="yes"/>
      <point x="44" y="-503"/>
      <point x="46" y="-505"/>
      <point x="46" y="-514" type="curve" smooth="yes"/>
      <point x="46" y="-571" type="line" smooth="yes"/>
      <point x="46" y="-578"/>
      <point x="44" y="-580"/>
      <point x="37" y="-580" type="curve" smooth="yes"/>
      <point x="-24" y="-580" type="line" smooth="yes"/>
      <point x="-30" y="-580"/>
      <point x="-33" y="-581"/>
      <point x="-33" y="-587" type="curve"/>
      <point x="-33" y="-588"/>
      <point x="-33" y="-590"/>
    </contour>
  </outline>
</glyph>
<glyph name="uniE060" format="2">
  <advance width="584"/>
  <unicode hex="E060"/>
  <note>
{'classes': ['clefs', 'clefsC'], 'name': 'cClefSquare', 'description': 'C clef (19th century)'}
</note>
  <outline>
    <contour>
      <point x="129" y="-456" type="curve" smooth="yes"/>
      <point x="143" y="-456"/>
      <point x="150" y="-449"/>
      <point x="150" y="-435" type="curve" smooth="yes"/>
      <point x="150" y="-183" type="line" smooth="yes"/>
      <point x="150" y="-175"/>
      <point x="150" y="-171"/>
      <point x="162" y="-172" type="curve" smooth="yes"/>
      <point x="422" y="-193" type="line" smooth="yes"/>
      <point x="432" y="-194"/>
      <point x="434" y="-197"/>
      <point x="434" y="-207" type="curve" smooth="yes"/>
      <point x="434" y="-478" type="line" smooth="yes"/>
      <point x="434" y="-492"/>
      <point x="441" y="-499"/>
      <point x="455" y="-499" type="curve" smooth="yes"/>
      <point x="469" y="-499"/>
      <point x="476" y="-492"/>
      <point x="476" y="-478" type="curve" smooth="yes"/>
      <point x="476" y="435" type="line" smooth="yes"/>
      <point x="476" y="449"/>
      <point x="469" y="456"/>
      <point x="455" y="456" type="curve" smooth="yes"/>
      <point x="441" y="456"/>
      <point x="434" y="449"/>
      <point x="434" y="435" type="curve" smooth="yes"/>
      <point x="434" y="183" type="line" smooth="yes"/>
      <point x="434" y="175"/>
      <point x="434" y="171"/>
      <point x="422" y="172" type="curve" smooth="yes"/>
      <point x="162" y="193" type="line" smooth="yes"/>
      <point x="152" y="194"/>
      <point x="150" y="197"/>
      <point x="150" y="207" type="curve" smooth="yes"/>
      <point x="150" y="478" type="line" smooth="yes"/>
      <point x="150" y="492"/>
      <point x="143" y="499"/>
      <point x="129" y="499" type="curve" smooth="yes"/>
      <point x="115" y="499"/>
      <point x="108" y="492"/>
      <point x="108" y="478" type="curve" smooth="yes"/>
      <point x="108" y="-435" type="line" smooth="yes"/>
      <point x="108" y="-449"/>
      <point x="115" y="-456"/>
    </contour>
    <contour>
      <point x="21" y="-456" type="curve" smooth="yes"/>
      <point x="35" y="-456"/>
      <point x="42" y="-449"/>
      <point x="42" y="-435" type="curve" smooth="yes"/>
      <point x="42" y="478" type="line" smooth="yes"/>
      <point x="42" y="492"/>
      <point x="35" y="499"/>
      <point x="21" y="499" type="curve" smooth="yes"/>
      <point x="7" y="499"/>
      <point x="0" y="492"/>
      <point x="0" y="478" type="curve" smooth="yes"/>
      <point x="0" y="-435" type="line" smooth="yes"/>
      <point x="0" y="-449"/>
      <point x="7" y="-456"/>
    </contour>
    <contour>
      <point x="542" y="-478" type="line" smooth="yes"/>
      <point x="542" y="-492"/>
      <point x="549" y="-499"/>
      <point x="563" y="-499" type="curve" smooth="yes"/>
      <point x="577" y="-499"/>
      <point x="584" y="-492"/>
      <point x="584" y="-478" type="curve" smooth="yes"/>
      <point x="584" y="435" type="line" smooth="yes"/>
      <point x="584" y="449"/>
      <point x="577" y="456"/>
      <point x="563" y="456" type="curve" smooth="yes"/>
      <point x="549" y="456"/>
      <point x="542" y="449"/>
      <point x="542" y="435" type="curve" smooth="yes"/>
    </contour>
    <contour>
      <point x="150" y="57" type="line" smooth="yes"/>
      <point x="150" y="65"/>
      <point x="150" y="69"/>
      <point x="162" y="68" type="curve" smooth="yes"/>
      <point x="422" y="47" type="line" smooth="yes"/>
      <point x="432" y="46"/>
      <point x="434" y="43"/>
      <point x="434" y="33" type="curve" smooth="yes"/>
      <point x="434" y="-57" type="line" smooth="yes"/>
      <point x="434" y="-65"/>
      <point x="434" y="-69"/>
      <point x="422" y="-68" type="curve" smooth="yes"/>
      <point x="162" y="-47" type="line" smooth="yes"/>
      <point x="152" y="-46"/>
      <point x="150" y="-43"/>
      <point x="150" y="-33" type="curve" smooth="yes"/>
    </contour>
  </outline>
</glyph>
<glyph name="uniE061" format="2">
  <advance width="233"/>
  <unicode hex="E061"/>
  <note>
{'classes': ['clefs', 'clefsC'], 'name': 'cClefCombining', 'description': 'Combining C clef'}
</note>
  <outline>
    <contour>
      <point x="13" y="31" type="curve" smooth="yes"/>
      <point x="214" y="31" type="line" smooth="yes"/>
      <point x="223" y="31"/>
      <point x="227" y="35"/>
      <point x="227" y="44" type="curve" smooth="yes"/>
      <point x="227" y="516" type="line" smooth="yes"/>
      <point x="227" y="529"/>
      <point x="221" y="537"/>
      <point x="208" y="537" type="curve" smooth="yes"/>
      <point x="195" y="537"/>
      <point x="189" y="529"/>
      <point x="189" y="516" type="curve" smooth="yes"/>
      <point x="189" y="133" type="line" smooth="yes"/>
      <point x="189" y="126"/>
      <point x="186" y="123"/>
      <point x="179" y="123" type="curve" smooth="yes"/>
      <point x="13" y="123" type="line" smooth="yes"/>
      <point x="4" y="123"/>
      <point x="0" y="119"/>
      <point x="0" y="110" type="curve" smooth="yes"/>
      <point x="0" y="44" type="line" smooth="yes"/>
      <point x="0" y="35"/>
      <point x="4" y="31"/>
    </contour>
    <contour>
      <point x="13" y="-123" type="curve" smooth="yes"/>
      <point x="179" y="-123" type="line" smooth="yes"/>
      <point x="186" y="-123"/>
      <point x="189" y="-126"/>
      <point x="189" y="-133" type="curve" smooth="yes"/>
      <point x="189" y="-516" type="line" smooth="yes"/>
      <point x="189" y="-529"/>
      <point x="195" y="-537"/>
      <point x="208" y="-537" type="curve" smooth="yes"/>
      <point x="221" y="-537"/>
      <point x="227" y="-529"/>
      <point x="227" y="-516" type="curve" smooth="yes"/>
      <point x="227" y="-44" type="line" smooth="yes"/>
      <point x="227" y="-35"/>
      <point x="223" y="-31"/>
      <point x="214" y="-31" type="curve" smooth="yes"/>
      <point x="13" y="-31" type="line" smooth="yes"/>
      <point x="4" y="-31"/>
      <point x="0" y="-35"/>
      <point x="0" y="-44" type="curve" smooth="yes"/>
      <point x="0" y="-110" type="line" smooth="yes"/>
      <point x="0" y="-119"/>
      <point x="4" y="-123"/>
    </contour>
  </outline>
</glyph>
<glyph name="uniE063" format="2">
  <advance width="684"/>
  <unicode hex="E063"/>
  <note>
{'classes': ['clefs', 'clefsF'], 'name': 'fClef15mb', 'description': 'F clef quindicesima bassa'}
</note>
  <outline>
    <contour>
      <point x="-5" y="-623" type="curve" smooth="yes"/>
      <point x="-5" y="-629"/>
      <point x="-1" y="-635"/>
      <point x="8" y="-635" type="curve" smooth="yes"/>
      <point x="31" y="-635"/>
      <point x="175" y="-549"/>
      <point x="200" y="-532" type="curve"/>
      <point x="153" y="-586" type="line" smooth="yes"/>
      <point x="150" y="-590"/>
      <point x="148" y="-593"/>
      <point x="148" y="-597" type="curve" smooth="yes"/>
      <point x="148" y="-601"/>
      <point x="153" y="-606"/>
      <point x="158" y="-606" type="curve" smooth="yes"/>
      <point x="163" y="-606"/>
      <point x="166" y="-603"/>
      <point x="169" y="-599" type="curve" smooth="yes"/>
      <point x="192" y="-574" type="line" smooth="yes"/>
      <point x="195" y="-570"/>
      <point x="197" y="-569"/>
      <point x="200" y="-569" type="curve"/>
      <point x="202" y="-569"/>
      <point x="203" y="-570"/>
      <point x="203" y="-573" type="curve"/>
      <point x="203" y="-575"/>
      <point x="203" y="-577"/>
      <point x="202" y="-580" type="curve" smooth="yes"/>
      <point x="160" y="-711" type="line" smooth="yes"/>
      <point x="158" y="-716"/>
      <point x="158" y="-717"/>
      <point x="152" y="-718" type="curve" smooth="yes"/>
      <point x="131" y="-720" type="line"/>
      <point x="125" y="-720"/>
      <point x="122" y="-723"/>
      <point x="122" y="-728" type="curve" smooth="yes"/>
      <point x="122" y="-733"/>
      <point x="125" y="-737"/>
      <point x="132" y="-737" type="curve" smooth="yes"/>
      <point x="235" y="-737" type="line" smooth="yes"/>
      <point x="242" y="-737"/>
      <point x="245" y="-733"/>
      <point x="245" y="-728" type="curve" smooth="yes"/>
      <point x="245" y="-723"/>
      <point x="242" y="-720"/>
      <point x="236" y="-720" type="curve"/>
      <point x="215" y="-718" type="line"/>
      <point x="211" y="-717"/>
      <point x="212" y="-714"/>
      <point x="213" y="-709" type="curve"/>
      <point x="273" y="-520" type="line" smooth="yes"/>
      <point x="274" y="-517"/>
      <point x="274" y="-515"/>
      <point x="274" y="-513" type="curve"/>
      <point x="274" y="-510"/>
      <point x="272" y="-507"/>
      <point x="268" y="-507" type="curve" smooth="yes"/>
      <point x="262" y="-507"/>
      <point x="254" y="-513"/>
      <point x="247" y="-513" type="curve" smooth="yes"/>
      <point x="243" y="-513"/>
      <point x="239" y="-510"/>
      <point x="236" y="-509" type="curve"/>
      <point x="402" y="-391"/>
      <point x="531" y="-245"/>
      <point x="531" y="-28" type="curve" smooth="yes"/>
      <point x="531" y="146"/>
      <point x="425" y="262"/>
      <point x="252" y="262" type="curve" smooth="yes"/>
      <point x="78" y="262"/>
      <point x="0" y="135"/>
      <point x="0" y="39" type="curve" smooth="yes"/>
      <point x="0" y="-41"/>
      <point x="42" y="-110"/>
      <point x="123" y="-110" type="curve" smooth="yes"/>
      <point x="186" y="-110"/>
      <point x="229" y="-66"/>
      <point x="229" y="-4" type="curve" smooth="yes"/>
      <point x="229" y="60"/>
      <point x="182" y="100"/>
      <point x="133" y="100" type="curve" smooth="yes"/>
      <point x="106" y="100"/>
      <point x="96" y="93"/>
      <point x="83" y="93" type="curve" smooth="yes"/>
      <point x="70" y="93"/>
      <point x="67" y="101"/>
      <point x="67" y="111" type="curve" smooth="yes"/>
      <point x="67" y="151"/>
      <point x="127" y="224"/>
      <point x="229" y="224" type="curve" smooth="yes"/>
      <point x="335" y="224"/>
      <point x="381" y="120"/>
      <point x="381" y="-37" type="curve" smooth="yes"/>
      <point x="381" y="-316"/>
      <point x="243" y="-472"/>
      <point x="10" y="-605" type="curve" smooth="yes"/>
      <point x="1" y="-610"/>
      <point x="-5" y="-615"/>
    </contour>
    <contour>
      <point x="260" y="-694" type="curve" smooth="yes"/>
      <point x="260" y="-719"/>
      <point x="280" y="-742"/>
      <point x="323" y="-742" type="curve" smooth="yes" name="hr01"/>
      <point x="380" y="-742"/>
      <point x="422" y="-703"/>
      <point x="422" y="-645" type="curve" smooth="yes"/>
      <point x="422" y="-609"/>
      <point x="397" y="-594"/>
      <point x="357" y="-594" type="curve" smooth="yes"/>
      <point x="345" y="-594"/>
      <point x="336" y="-596"/>
      <point x="328" y="-598" type="curve" smooth="yes"/>
      <point x="319" y="-601"/>
      <point x="318" y="-597"/>
      <point x="320" y="-591" type="curve" smooth="yes"/>
      <point x="329" y="-563" type="line" smooth="yes"/>
      <point x="331" y="-557"/>
      <point x="334" y="-557"/>
      <point x="340" y="-558" type="curve" smooth="yes"/>
      <point x="347" y="-559"/>
      <point x="356" y="-560"/>
      <point x="364" y="-560" type="curve" smooth="yes"/>
      <point x="400" y="-560"/>
      <point x="428" y="-543"/>
      <point x="447" y="-526" type="curve" smooth="yes"/>
      <point x="453" y="-520"/>
      <point x="456" y="-516"/>
      <point x="456" y="-512" type="curve" smooth="yes"/>
      <point x="456" y="-509"/>
      <point x="453" y="-506"/>
      <point x="450" y="-506" type="curve"/>
      <point x="448" y="-506"/>
      <point x="443" y="-508"/>
      <point x="435" y="-511" type="curve"/>
      <point x="422" y="-514"/>
      <point x="407" y="-516"/>
      <point x="389" y="-516" type="curve" smooth="yes"/>
      <point x="372" y="-516"/>
      <point x="359" y="-514"/>
      <point x="352" y="-512" type="curve" smooth="yes"/>
      <point x="343" y="-509"/>
      <point x="340" y="-508"/>
      <point x="335" y="-508" type="curve" smooth="yes"/>
      <point x="328" y="-508"/>
      <point x="324" y="-512"/>
      <point x="322" y="-519" type="curve" smooth="yes"/>
      <point x="288" y="-618" type="line" smooth="yes"/>
      <point x="286" y="-624"/>
      <point x="285" y="-626"/>
      <point x="285" y="-630" type="curve" smooth="yes"/>
      <point x="285" y="-636"/>
      <point x="289" y="-639"/>
      <point x="295" y="-639" type="curve" smooth="yes"/>
      <point x="299" y="-639"/>
      <point x="302" y="-637"/>
      <point x="307" y="-633" type="curve"/>
      <point x="312" y="-627"/>
      <point x="325" y="-614"/>
      <point x="344" y="-614" type="curve" smooth="yes"/>
      <point x="365" y="-614"/>
      <point x="372" y="-628"/>
      <point x="372" y="-646" type="curve" smooth="yes"/>
      <point x="372" y="-676"/>
      <point x="353" y="-726"/>
      <point x="312" y="-726" type="curve" smooth="yes"/>
      <point x="300" y="-726"/>
      <point x="290" y="-721"/>
      <point x="290" y="-715" type="curve" smooth="yes"/>
      <point x="290" y="-711"/>
      <point x="293" y="-710"/>
      <point x="298" y="-707" type="curve" smooth="yes"/>
      <point x="305" y="-704"/>
      <point x="314" y="-697"/>
      <point x="314" y="-681" type="curve" smooth="yes"/>
      <point x="314" y="-666"/>
      <point x="303" y="-658"/>
      <point x="290" y="-658" type="curve" smooth="yes"/>
      <point x="273" y="-658"/>
      <point x="260" y="-674"/>
    </contour>
    <contour>
      <point x="629" y="70" type="curve" smooth="yes"/>
      <point x="660" y="70"/>
      <point x="684" y="94"/>
      <point x="684" y="125" type="curve" smooth="yes"/>
      <point x="684" y="156"/>
      <point x="660" y="180"/>
      <point x="629" y="180" type="curve" smooth="yes"/>
      <point x="598" y="180"/>
      <point x="574" y="156"/>
      <point x="574" y="125" type="curve" smooth="yes"/>
      <point x="574" y="94"/>
      <point x="598" y="70"/>
    </contour>
    <contour>
      <point x="576" y="-125" type="curve" smooth="yes"/>
      <point x="576" y="-156"/>
      <point x="599" y="-179"/>
      <point x="630" y="-179" type="curve" smooth="yes"/>
      <point x="661" y="-179"/>
      <point x="684" y="-156"/>
      <point x="684" y="-125" type="curve" smooth="yes"/>
      <point x="684" y="-94"/>
      <point x="661" y="-71"/>
      <point x="630" y="-71" type="curve" smooth="yes"/>
      <point x="599" y="-71"/>
      <point x="576" y="-94"/>
    </contour>
  </outline>
</glyph>
